SplineFontDB: 3.0
FontName: Candal
FullName: Candal
FamilyName: Candal
Weight: Book
Copyright: Copyright (c) 2011 by vernon adams. All rights reserved.
Version: 1.000
ItalicAngle: 0
UnderlinePosition: -50
UnderlineWidth: 50
Ascent: 1638
Descent: 410
sfntRevision: 0x00010000
LayerCount: 2
Layer: 0 1 "Back"  1
Layer: 1 1 "Fore"  0
NeedsXUIDChange: 1
XUID: [1021 823 301787212 13410495]
FSType: 0
OS2Version: 2
OS2_WeightWidthSlopeOnly: 0
OS2_UseTypoMetrics: 1
CreationTime: 1297380780
ModificationTime: 1299151128
PfmFamily: 17
TTFWeight: 400
TTFWidth: 5
LineGap: 0
VLineGap: 0
Panose: 2 0 0 0 0 0 0 0 0 0
OS2TypoAscent: 2185
OS2TypoAOffset: 0
OS2TypoDescent: -788
OS2TypoDOffset: 0
OS2TypoLinegap: 0
OS2WinAscent: 2185
OS2WinAOffset: 0
OS2WinDescent: 788
OS2WinDOffset: 0
HheadAscent: 2185
HheadAOffset: 0
HheadDescent: -788
HheadDOffset: 0
OS2SubXSize: 1434
OS2SubYSize: 1331
OS2SubXOff: 0
OS2SubYOff: 287
OS2SupXSize: 1434
OS2SupYSize: 1331
OS2SupXOff: 0
OS2SupYOff: 977
OS2StrikeYSize: 102
OS2StrikeYPos: 512
OS2Vendor: 'newt'
OS2CodePages: 20000111.40000000
OS2UnicodeRanges: 800000af.4800204a.14000000.00000000
Lookup: 258 0 0 "'kern' Horizontal Kerning lookup 0"  {"'kern' Horizontal Kerning lookup 0-1" [307,30,0] } ['kern' ('DFLT' <'dflt' > 'grek' <'dflt' > 'latn' <'dflt' > ) ]
MarkAttachClasses: 1
DEI: 91125
ShortTable: maxp 16
  0
  0
  0
  0
  0
  0
  0
  2
  1
  2
  22
  0
  256
  0
  0
  0
EndShort
TtTable: prep
PUSHW_1
 511
SCANCTRL
PUSHB_1
 1
SCANTYPE
SVTCA[y-axis]
MPPEM
PUSHB_1
 8
LT
IF
PUSHB_2
 1
 1
INSTCTRL
EIF
PUSHB_2
 70
 6
CALL
IF
POP
PUSHB_1
 16
EIF
MPPEM
PUSHB_1
 20
GT
IF
POP
PUSHB_1
 128
EIF
SCVTCI
PUSHB_1
 6
CALL
NOT
IF
SVTCA[y-axis]
PUSHB_1
 4
DUP
RCVT
PUSHB_1
 3
CALL
WCVTP
PUSHB_1
 5
DUP
RCVT
PUSHB_3
 4
 16
 2
CALL
PUSHB_1
 3
CALL
WCVTP
PUSHB_1
 6
DUP
RCVT
PUSHB_3
 5
 15
 2
CALL
PUSHB_1
 3
CALL
WCVTP
PUSHB_1
 7
DUP
RCVT
PUSHB_3
 6
 14
 2
CALL
PUSHB_1
 3
CALL
WCVTP
PUSHB_1
 8
DUP
RCVT
PUSHB_3
 7
 13
 2
CALL
PUSHB_1
 3
CALL
WCVTP
PUSHB_1
 9
DUP
RCVT
PUSHB_3

StartChar: percent
Encoding: 5 37 4
Width: 2900
Flags: W
HStem: -28 237<2205.97 2379.22> 0 21G<978 1402.35> 299 237<519.971 693.221> 898 230<2207.73 2378.15> 1225 230<521.73 692.155> 1406 20G<1470 1919>
VStem: 100 341<636.99 1123.49> 772 342<636.99 1124.64> 1786 341<309.99 796.488> 2458 342<309.99 797.638>
DStem2: 978 0 1395 0 0.344912 0.938635<143.828 1510.6>
LayerCount: 2
Fore
SplineSet
607 299 m 0,0,1
 512 299 512 299 438 322 c 128,-1,2
 364 345 364 345 307.5 385.5 c 128,-1,3
 251 426 251 426 211.5 481.5 c 128,-1,4
 172 537 172 537 147.5 602 c 128,-1,5
 123 667 123 667 111.5 738.5 c 128,-1,6
 100 810 100 810 100 883 c 0,7,8
 100 954 100 954 111 1024.5 c 128,-1,9
 122 1095 122 1095 147 1158.5 c 128,-1,10
 172 1222 172 1222 211 1276.5 c 128,-1,11
 250 1331 250 1331 306.5 1370.5 c 128,-1,12
 363 1410 363 1410 437.5 1432.5 c 128,-1,13
 512 1455 512 1455 607 1455 c 0,14,15
 749 1455 749 1455 846 1406 c 128,-1,16
 943 1357 943 1357 1002.5 1276.5 c 128,-1,17
 1062 1196 1062 1196 1088 1093 c 128,-1,18
 1114 990 1114 990 1114 883 c 0,19,20
 1114 810 1114 810 1102.5 738.5 c 128,-1,21
 1091 667 1091 667 1066.5 602 c 128,-1,22
 1042 537 1042 537 1002.5 481.5 c 128,-1,23
 963 426 963 426 906.5 385.5 c 128,-1,24
 850 345 850 345 775.5 322 c 128,-1,25
 701 299 701 299 607 299 c 0,0,1
607 536 m 0,26,27
 648 536 648 536 679 565.5 c 128,-1,28
 710 595 710 595 730.5 643.5 c 128,-1,29
 751 692 751 692 761.5 754 c 128,-1,30
 772 816 772 816 772 881 c 0,31,32
 772 945 772 945 761.5 1007 c 128,-1,33
 751 1069 751 1069 730.5 1117.5 c 128,-1,34
 710 1166 710 1166 679 1195.5 c 128,-1,35
 648 1225 648 1225 607 1225 c 256,36,37
 566 1225 566 1225 535 1195.5 c 128,-1,38
 504 1166 504 1166 483 1117.5 c 128,-1,39
 462 1069 462 1069 451.5 1007 c 128,-1,40
 441 945 441 945 441 881 c 0,41,42
 441 816 441 816 451.5 754 c 128,-1,43
 462 692 462 692 482.5 643.5 c 128,-1,44
 503 595 503 595 534 565.5 c 128,-1,45
 565 536 565 536 607 536 c 0,26,27
2293 -28 m 0,46,47
 2198 -28 2198 -28 2124 -5 c 128,-1,48
 2050 18 2050 18 1993.5 58.5 c 128,-1,49
 1937 99 1937 99 1897.5 154.5 c 128,-1,50
 1858 210 1858 210 1833.5 275 c 128,-1,51
 1809 340 1809 340 1797.5 411.5 c 128,-1,52
 1786 483 1786 483 1786 556 c 0,53,54
 1786 628 1786 628 1797 698 c 128,-1,55
 1808 768 1808 768 1833 831.5 c 128,-1,56
 1858 895 1858 895 1897 949.5 c 128,-1,57
 1936 1004 1936 1004 1992.5 1043.5 c 128,-1,58
 2049 1083 2049 1083 2123.5 1105.5 c 128,-1,59
 2198 1128 2198 1128 2293 1128 c 0,60,61
 2435 1128 2435 1128 2532 1079 c 128,-1,62
 2629 1030 2629 1030 2688.5 949.5 c 128,-1,63
 2748 869 2748 869 2774 766 c 128,-1,64
 2800 663 2800 663 2800 556 c 0,65,66
 2800 483 2800 483 2788.5 411.5 c 128,-1,67
 2777 340 2777 340 2752.5 275 c 128,-1,68
 2728 210 2728 210 2688.5 154.5 c 128,-1,69
 2649 99 2649 99 2592.5 58.5 c 128,-1,70
 2536 18 2536 18 2461.5 -5 c 128,-1,71
 2387 -28 2387 -28 2293 -28 c 0,46,47
2293 209 m 0,72,73
 2334 209 2334 209 2365 238.5 c 128,-1,74
 2396 268 2396 268 2416.5 316.5 c 128,-1,75
 2437 365 2437 365 2447.5 427 c 128,-1,76
 2458 489 2458 489 2458 554 c 0,77,78
 2458 618 2458 618 2447.5 680 c 128,-1,79
 2437 742 2437 742 2416.5 790.5 c 128,-1,80
 2396 839 2396 839 2365 868.5 c 128,-1,81
 2334 898 2334 898 2293 898 c 256,82,83
 2252 898 2252 898 2221 868.5 c 128,-1,84
 2190 839 2190 839 2169 790.5 c 128,-1,85
 2148 742 2148 742 2137.5 680 c 128,-1,86
 2127 618 2127 618 2127 554 c 0,87,88
 2127 489 2127 489 2137.5 427 c 128,-1,89
 2148 365 2148 365 2168.5 316.5 c 128,-1,90
 2189 268 2189 268 2220 238.5 c 128,-1,91
 2251 209 2251 209 2293 209 c 0,72,73
1919 1426 m 1,92,-1
 1395 0 l 1,93,-1
 978 0 l 1,94,-1
 1477 1426 l 1,95,-1
 1919 1426 l 1,92,-1
EndSplineSet
EndChar

StartChar: ampersand
Encoding: 6 38 5
Width: 1728
Flags: MW
HStem: -32 287<628.289 948.419> 1119.91 321.091<622.818 1235.62>
VStem: 128 448<305.639 518.44> 225 351<865.879 1064> 938 406<309.686 564 778 938>
LayerCount: 2
Fore
SplineSet
1344 456 m 2,0,1
 1344 420 1344 420 1349.5 387 c 128,-1,2
 1355 354 1355 354 1372 329 c 128,-1,3
 1389 304 1389 304 1421 289 c 128,-1,4
 1453 274 1453 274 1506 274 c 0,5,6
 1540 274 1540 274 1581 281 c 128,-1,7
 1622 288 1622 288 1674 305 c 1,8,-1
 1698 23 l 1,9,10
 1635 0 1635 0 1553.5 -16 c 128,-1,11
 1472 -32 1472 -32 1381 -32 c 0,12,13
 1343 -32 1343 -32 1301 -27.5 c 128,-1,14
 1259 -23 1259 -23 1217.5 -11 c 0,15,16
 1170.85820082 2.48678530465 1170.85820082 2.48678530465 1146 31.5 c 0,17,18
 1111.30004883 72 1111.30004883 72 1087.29980469 122 c 5,19,20
 1001.29998779 40 1001.29998779 40 974.5 20 c 4,21,22
 931.027369474 -8.401343673 931.027369474 -8.401343673 869 -15 c 0,23,24
 822 -20 822 -20 770 -26 c 128,-1,25
 718 -32 718 -32 672 -32 c 0,26,27
 529 -32 529 -32 426 1 c 128,-1,28
 323 34 323 34 257 90.5 c 128,-1,29
 191 147 191 147 159.5 222.5 c 128,-1,30
 128 298 128 298 128 384 c 0,31,32
 128 441 128 441 151.5 501.5 c 128,-1,33
 175 562 175 562 220 612.5 c 128,-1,34
 265 663 265 663 330.5 697 c 128,-1,35
 396 731 396 731 480 736 c 1,36,37
 403 749 403 749 353.5 781 c 128,-1,38
 304 813 304 813 275.5 856.5 c 128,-1,39
 247 900 247 900 236 951.5 c 128,-1,40
 225 1003 225 1003 225 1056 c 0,41,42
 225 1135 225 1135 255 1194 c 128,-1,43
 285 1253 285 1253 335 1296 c 128,-1,44
 385 1339 385 1339 450.5 1367 c 128,-1,45
 516 1395 516 1395 587 1411.5 c 128,-1,46
 658 1428 658 1428 729.5 1434.5 c 128,-1,47
 801 1441 801 1441 864 1441 c 0,48,49
 909 1441 909 1441 968.5 1436 c 128,-1,50
 1028 1431 1028 1431 1089.5 1422.5 c 128,-1,51
 1151 1414 1151 1414 1209.5 1402 c 128,-1,52
 1268 1390 1268 1390 1312 1376 c 1,53,-1
 1248 1088 l 1,54,-1
 1116 1104 l 2,55,56
 1087.71428571 1107.42857143 1087.71428571 1107.42857143 1062 1110 c 0,57,58
 1034 1113 1034 1113 1008 1115 c 128,-1,59
 982 1117 982 1117 960.5 1118.5 c 128,-1,60
 939 1120 939 1120 924 1120 c 0,61,62
 905.738592943 1120 905.738592943 1120 888.116617839 1119.90865258 c 0,63,64
 834.329738539 1119.62983634 834.329738539 1119.62983634 786.5 1118.5 c 0,65,66
 723 1117 723 1117 676.5 1103 c 128,-1,67
 630 1089 630 1089 603 1056 c 128,-1,68
 576 1023 576 1023 576 965 c 128,-1,69
 576 907 576 907 591.5 878 c 128,-1,70
 607 849 607 849 635 827 c 128,-1,71
 663 805 663 805 702 791.5 c 128,-1,72
 741 778 741 778 788 778 c 2,73,-1
 938 778 l 1,74,-1
 938 938 l 1,75,-1
 1344 938 l 1,76,-1
 1344 456 l 2,0,1
952 288 m 1,77,78
 948 299 948 299 945 336 c 1,79,80
 942 360 942 360 940 421.5 c 128,-1,81
 938 483 938 483 938 564 c 1,82,83
 830 564 830 564 756.5 555.5 c 128,-1,84
 683 547 683 547 644 531 c 128,-1,85
 605 515 605 515 590.5 481 c 128,-1,86
 576 447 576 447 576 416 c 0,87,88
 576 389 576 389 585.5 360.5 c 128,-1,89
 595 332 595 332 617.5 308.5 c 128,-1,90
 640 285 640 285 676.5 270 c 128,-1,91
 713 255 713 255 768 255 c 0,92,93
 804 255 804 255 849.5 262.5 c 128,-1,94
 895 270 895 270 952 288 c 1,77,78
EndSplineSet
EndChar

StartChar: quotesingle
Encoding: 7 39 6
Width: 600
Flags: MW
HStem: 964 598<200 400>
VStem: 140 320<1562 1562> 200 200<964 1106.88>
LayerCount: 2
Fore
SplineSet
140 1562 m 5,0,-1
 460 1562 l 5,1,-1
 400 964 l 1,2,-1
 200 964 l 1,3,-1
 140 1562 l 5,0,-1
EndSplineSet
EndChar

StartChar: parenleft
Encoding: 8 40 7
Width: 896
Flags: MW
HStem: -32 256<647.448 736> -32 21G<685 736> 1216 256<649.621 736>
VStem: 96 416<431.789 999.121>
LayerCount: 2
Fore
SplineSet
96 711 m 0,0,1
 96 812 96 812 115 907 c 128,-1,2
 134 1002 134 1002 171 1087 c 128,-1,3
 208 1172 208 1172 263 1242.5 c 128,-1,4
 318 1313 318 1313 389 1364 c 128,-1,5
 460 1415 460 1415 547 1443.5 c 128,-1,6
 634 1472 634 1472 736 1472 c 1,7,-1
 736 1216 l 1,8,9
 691 1216 691 1216 650 1172.5 c 128,-1,10
 609 1129 609 1129 578.5 1057.5 c 128,-1,11
 548 986 548 986 530 895.5 c 128,-1,12
 512 805 512 805 512 711 c 0,13,14
 512 619 512 619 530 531 c 128,-1,15
 548 443 548 443 578.5 375 c 128,-1,16
 609 307 609 307 650 265.5 c 128,-1,17
 691 224 691 224 736 224 c 5,18,-1
 736 -32 l 5,19,20
 634 -32 634 -32 547 -4.5 c 128,-1,21
 460 23 460 23 389 72.5 c 128,-1,22
 318 122 318 122 263 190.5 c 128,-1,23
 208 259 208 259 171 341.5 c 128,-1,24
 134 424 134 424 115 518 c 128,-1,25
 96 612 96 612 96 711 c 0,0,1
EndSplineSet
EndChar

StartChar: parenright
Encoding: 9 41 8
Width: 896
Flags: MW
HStem: -32 256<160 248.552> -32 21G<160 211> 1216 256<160 246.379>
VStem: 384 416<431.789 999.058>
LayerCount: 2
Fore
SplineSet
800 711 m 0,0,1
 800 612 800 612 781 518 c 128,-1,2
 762 424 762 424 725 341.5 c 128,-1,3
 688 259 688 259 633 190.5 c 128,-1,4
 578 122 578 122 507 72.5 c 128,-1,5
 436 23 436 23 349 -4.5 c 128,-1,6
 262 -32 262 -32 160 -32 c 1,7,-1
 160 224 l 1,8,9
 205 224 205 224 246 265.5 c 128,-1,10
 287 307 287 307 317.5 375 c 128,-1,11
 348 443 348 443 366 531 c 128,-1,12
 384 619 384 619 384 711 c 0,13,14
 384 805 384 805 366 895.5 c 128,-1,15
 348 986 348 986 317.5 1057.5 c 128,-1,16
 287 1129 287 1129 246 1172.5 c 128,-1,17
 205 1216 205 1216 160 1216 c 5,18,-1
 160 1472 l 5,19,20
 262 1472 262 1472 349 1443.5 c 128,-1,21
 436 1415 436 1415 507 1364 c 128,-1,22
 578 1313 578 1313 633 1242.5 c 128,-1,23
 688 1172 688 1172 725 1087 c 128,-1,24
 762 1002 762 1002 781 906.5 c 128,-1,25
 800 811 800 811 800 711 c 0,0,1
EndSplineSet
EndChar

StartChar: asterisk
Encoding: 10 42 9
Width: 1151
Flags: W
HStem: 866 220<74 385> 883 220<723 1034>
DStem2: 426 1496 233 1404 0.434397 -0.900721<0 323.117 709.527 1032.64>
LayerCount: 2
Fore
SplineSet
426 473 m 1,0,-1
 233 565 l 1,1,-1
 385 866 l 1,2,-1
 74 866 l 1,3,-1
 74 1086 l 1,4,-1
 385 1086 l 1,5,-1
 233 1404 l 1,6,-1
 426 1496 l 1,7,-1
 554 1199 l 1,8,-1
 682 1496 l 1,9,-1
 875 1404 l 1,10,-1
 723 1103 l 1,11,-1
 1034 1103 l 1,12,-1
 1034 883 l 1,13,-1
 723 883 l 1,14,-1
 875 565 l 1,15,-1
 682 473 l 1,16,-1
 554 770 l 1,17,-1
 426 473 l 1,0,-1
EndSplineSet
EndChar

StartChar: plus
Encoding: 11 43 10
Width: 896
Flags: W
HStem: 544 288<45 269 589 813> 1068 20G<269 589>
VStem: 269 320<288 544 832 1088>
LayerCount: 2
Fore
SplineSet
269 544 m 1,0,-1
 45 544 l 1,1,-1
 45 832 l 1,2,-1
 269 832 l 1,3,-1
 269 1088 l 1,4,-1
 589 1088 l 1,5,-1
 589 832 l 1,6,-1
 813 832 l 1,7,-1
 813 544 l 1,8,-1
 589 544 l 1,9,-1
 589 288 l 1,10,-1
 269 288 l 1,11,-1
 269 544 l 1,0,-1
EndSplineSet
EndChar

StartChar: comma
Encoding: 12 44 11
Width: 832
Flags: MW
HStem: -320 192<160 400.374> -32 448<234.892 424.942> 98 78<128 672>
VStem: 427 245<-96.494 4>
CounterMasks: 1 e0
LayerCount: 2
Fore
SplineSet
427 4 m 1,0,1
 361 -32 361 -32 312 -32 c 0,2,3
 273 -32 273 -32 239.5 -15 c 128,-1,4
 206 2 206 2 181 30.5 c 128,-1,5
 156 59 156 59 142 97 c 128,-1,6
 128 135 128 135 128 176 c 4,7,8
 128 218 128 218 144.5 261 c 128,-1,9
 161 304 161 304 194.5 338.5 c 128,-1,10
 228 373 228 373 278.5 394.5 c 128,-1,11
 329 416 329 416 397 416 c 0,12,13
 533 416 533 416 602.5 334 c 128,-1,14
 672 252 672 252 672 98 c 4,15,16
 672 -28 672 -28 635 -109.5 c 128,-1,17
 598 -191 598 -191 538.5 -237.5 c 128,-1,18
 479 -284 479 -284 405 -302 c 128,-1,19
 331 -320 331 -320 256 -320 c 2,20,-1
 160 -320 l 1,21,-1
 160 -128 l 1,22,23
 258 -128 258 -128 281 -124 c 0,24,25
 346 -116 346 -116 369 -106 c 0,26,27
 404 -90 404 -90 415.5 -60 c 128,-1,28
 427 -30 427 -30 427 4 c 1,0,1
EndSplineSet
EndChar

StartChar: hyphen
Encoding: 13 45 12
Width: 992
Flags: W
HStem: 512 320<96 896>
LayerCount: 2
Fore
SplineSet
896 832 m 1,0,-1
 896 512 l 1,1,-1
 96 512 l 1,2,-1
 96 832 l 1,3,-1
 896 832 l 1,0,-1
EndSplineSet
EndChar

StartChar: period
Encoding: 14 46 13
Width: 800
Flags: W
HStem: -31 448<231.281 563.5>
VStem: 128 544<65.5791 316.576>
LayerCount: 2
Fore
SplineSet
393 -31 m 0,0,1
 326 -31 326 -31 276.5 -12 c 128,-1,2
 227 7 227 7 194 38.5 c 128,-1,3
 161 70 161 70 144.5 110.5 c 128,-1,4
 128 151 128 151 128 193 c 0,5,6
 128 233 128 233 145 273 c 128,-1,7
 162 313 162 313 196 345 c 128,-1,8
 230 377 230 377 279.5 397 c 128,-1,9
 329 417 329 417 394 417 c 0,10,11
 461 417 461 417 513 397 c 128,-1,12
 565 377 565 377 600.5 345 c 128,-1,13
 636 313 636 313 654 273.5 c 128,-1,14
 672 234 672 234 672 194 c 0,15,16
 672 151 672 151 654.5 110.5 c 128,-1,17
 637 70 637 70 602.5 38.5 c 128,-1,18
 568 7 568 7 515.5 -12 c 128,-1,19
 463 -31 463 -31 393 -31 c 0,0,1
EndSplineSet
EndChar

StartChar: slash
Encoding: 15 47 14
Width: 992
Flags: W
HStem: 0 21G<64 517.778> 1420 20G<442.667 928>
VStem: 64 448<0 448> 448 480<960 1440>
LayerCount: 2
Fore
SplineSet
928 1440 m 1,0,-1
 512 0 l 1,1,-1
 64 0 l 1,2,-1
 448 1440 l 1,3,-1
 928 1440 l 1,0,-1
EndSplineSet
EndChar

StartChar: zero
Encoding: 16 48 15
Width: 1600
Flags: W
HStem: -32 320<692.248 907.561> 1120 320<693.507 906.493>
VStem: 128 449<440.988 964.922> 1023 449<440.988 964.922>
LayerCount: 2
Fore
SplineSet
800 1440 m 256,0,1
 926 1440 926 1440 1025 1411 c 128,-1,2
 1124 1382 1124 1382 1198.5 1331.5 c 128,-1,3
 1273 1281 1273 1281 1325 1211 c 128,-1,4
 1377 1141 1377 1141 1409.5 1059.5 c 128,-1,5
 1442 978 1442 978 1457 887.5 c 128,-1,6
 1472 797 1472 797 1472 705 c 0,7,8
 1472 612 1472 612 1457 521 c 128,-1,9
 1442 430 1442 430 1409 348.5 c 128,-1,10
 1376 267 1376 267 1324 197 c 128,-1,11
 1272 127 1272 127 1197 76.5 c 128,-1,12
 1122 26 1122 26 1023.5 -3 c 128,-1,13
 925 -32 925 -32 800 -32 c 256,14,15
 675 -32 675 -32 576.5 -3 c 128,-1,16
 478 26 478 26 403 76.5 c 128,-1,17
 328 127 328 127 276 197 c 128,-1,18
 224 267 224 267 191 348.5 c 128,-1,19
 158 430 158 430 143 521 c 128,-1,20
 128 612 128 612 128 705 c 0,21,22
 128 797 128 797 143 887.5 c 128,-1,23
 158 978 158 978 190.5 1059.5 c 128,-1,24
 223 1141 223 1141 275 1211 c 128,-1,25
 327 1281 327 1281 401.5 1331.5 c 128,-1,26
 476 1382 476 1382 575 1411 c 128,-1,27
 674 1440 674 1440 800 1440 c 256,0,1
800 1120 m 256,28,29
 745 1120 745 1120 703.5 1085.5 c 128,-1,30
 662 1051 662 1051 634 993 c 128,-1,31
 606 935 606 935 591.5 860 c 128,-1,32
 577 785 577 785 577 704 c 256,33,34
 577 623 577 623 591 548 c 128,-1,35
 605 473 605 473 633 415.5 c 128,-1,36
 661 358 661 358 702.5 323 c 128,-1,37
 744 288 744 288 800 288 c 0,38,39
 855 288 855 288 897 323 c 128,-1,40
 939 358 939 358 967 415.5 c 128,-1,41
 995 473 995 473 1009 548 c 128,-1,42
 1023 623 1023 623 1023 704 c 256,43,44
 1023 785 1023 785 1008.5 860 c 128,-1,45
 994 935 994 935 966 993 c 128,-1,46
 938 1051 938 1051 896.5 1085.5 c 128,-1,47
 855 1120 855 1120 800 1120 c 256,28,29
EndSplineSet
EndChar

StartChar: one
Encoding: 17 49 16
Width: 864
Flags: W
HStem: 0 21G<297 724> 1394 20G<375 724>
VStem: 297 427<0 1021>
LayerCount: 2
Fore
SplineSet
724 0 m 1,0,-1
 297 0 l 1,1,-1
 297 1021 l 1,2,-1
 73 980 l 1,3,-1
 73 1254 l 1,4,5
 121 1269 121 1269 176 1291 c 0,6,7
 223 1310 223 1310 282.5 1342 c 128,-1,8
 342 1374 342 1374 408 1414 c 1,9,-1
 724 1414 l 1,10,-1
 724 0 l 1,0,-1
EndSplineSet
EndChar

StartChar: two
Encoding: 18 50 17
Width: 1280
Flags: MW
HStem: 0 349<655 1106> 0 348<639 1088> 1120 321<239.5 633.517>
VStem: 108 998<254.956 349> 674 446<864.277 1079.19>
LayerCount: 2
Fore
SplineSet
655 349 m 1,0,-1
 1106 349 l 5,1,-1
 1106 0 l 1,2,-1
 160 0 l 1,3,-1
 108 352 l 5,4,5
 222 434 222 434 326.5 521 c 128,-1,6
 431 608 431 608 498.5 691.5 c 128,-1,7
 566 775 566 775 620 850 c 128,-1,8
 674 925 674 925 674 983 c 0,9,10
 674 1058 674 1058 614 1089 c 128,-1,11
 554 1120 554 1120 485 1120 c 0,12,13
 445 1120 445 1120 402.5 1114 c 128,-1,14
 360 1108 360 1108 321 1099 c 128,-1,15
 282 1090 282 1090 248.5 1078.5 c 128,-1,16
 215 1067 215 1067 192 1056 c 1,17,-1
 128 1376 l 1,18,19
 240 1414 240 1414 350 1427.5 c 128,-1,20
 460 1441 460 1441 555 1441 c 0,21,22
 700 1441 700 1441 806.5 1406.5 c 128,-1,23
 913 1372 913 1372 983 1313.5 c 128,-1,24
 1053 1255 1053 1255 1086.5 1177 c 128,-1,25
 1120 1099 1120 1099 1120 1013 c 0,26,27
 1120 949 1120 949 1098 881.5 c 128,-1,28
 1076 814 1076 814 1037.5 747.5 c 128,-1,29
 999 681 999 681 947.5 617 c 128,-1,30
 896 553 896 553 869.5 526 c 128,-1,31
 843 499 843 499 778.5 451 c 128,-1,32
 714 403 714 403 651 368 c 1,33,-1
 655 349 l 1,0,-1
EndSplineSet
EndChar

StartChar: three
Encoding: 19 51 18
Width: 1216
Flags: MW
HStem: -32 296<195.192 582.531> 608 256<256 586.507> 1144 296<192.501 594.062>
VStem: 96 992<1073 1079> 96 1024<345 404> 640 480<319.318 555.246> 640 448<907.614 1099.6>
LayerCount: 2
Fore
SplineSet
256 864 m 1,0,-1
 452 864 l 2,1,2
 500 864 500 864 535.5 875.5 c 128,-1,3
 571 887 571 887 594 906.5 c 128,-1,4
 617 926 617 926 628.5 951 c 128,-1,5
 640 976 640 976 640 1004 c 0,6,7
 640 1043 640 1043 623 1069.5 c 128,-1,8
 606 1096 606 1096 577 1112.5 c 128,-1,9
 548 1129 548 1129 510 1136.5 c 128,-1,10
 472 1144 472 1144 430 1144 c 0,11,12
 390 1144 390 1144 346.5 1139 c 128,-1,13
 303 1134 303 1134 259.5 1124.5 c 128,-1,14
 216 1115 216 1115 174 1102 c 128,-1,15
 132 1089 132 1089 96 1073 c 5,16,-1
 96 1357 l 1,17,18
 143 1379 143 1379 191 1394.5 c 128,-1,19
 239 1410 239 1410 289.5 1420 c 128,-1,20
 340 1430 340 1430 394.5 1435 c 128,-1,21
 449 1440 449 1440 511 1440 c 0,22,23
 627 1440 627 1440 715 1423.5 c 128,-1,24
 803 1407 803 1407 867 1378 c 128,-1,25
 931 1349 931 1349 973.5 1310 c 128,-1,26
 1016 1271 1016 1271 1041.5 1225 c 128,-1,27
 1067 1179 1067 1179 1077.5 1129 c 128,-1,28
 1088 1079 1088 1079 1088 1028 c 4,29,30
 1088 980 1088 980 1077 941 c 128,-1,31
 1066 902 1066 902 1047.5 872 c 128,-1,32
 1029 842 1029 842 1005.5 819 c 128,-1,33
 982 796 982 796 958 780 c 0,34,35
 901 741 901 741 828 724 c 1,36,37
 910 710 910 710 974 671 c 0,38,39
 1001 654 1001 654 1027.5 630.5 c 128,-1,40
 1054 607 1054 607 1074.5 574.5 c 128,-1,41
 1095 542 1095 542 1107.5 500 c 128,-1,42
 1120 458 1120 458 1120 404 c 0,43,44
 1120 324 1120 324 1094 246 c 128,-1,45
 1068 168 1068 168 1001 106 c 128,-1,46
 934 44 934 44 817.5 6 c 128,-1,47
 701 -32 701 -32 521 -32 c 0,48,49
 398 -32 398 -32 294.5 -12.5 c 128,-1,50
 191 7 191 7 96 52 c 1,51,-1
 96 345 l 1,52,53
 131 327 131 327 173 312 c 128,-1,54
 215 297 215 297 259.5 286.5 c 128,-1,55
 304 276 304 276 347.5 270 c 128,-1,56
 391 264 391 264 430 264 c 0,57,58
 472 264 472 264 510 273.5 c 128,-1,59
 548 283 548 283 577 303.5 c 128,-1,60
 606 324 606 324 623 357 c 128,-1,61
 640 390 640 390 640 438 c 0,62,63
 640 472 640 472 628.5 502.5 c 128,-1,64
 617 533 617 533 594 556.5 c 128,-1,65
 571 580 571 580 535.5 594 c 128,-1,66
 500 608 500 608 452 608 c 2,67,-1
 256 608 l 1,68,-1
 256 864 l 1,0,-1
EndSplineSet
EndChar

StartChar: four
Encoding: 20 52 19
Width: 1408
Flags: W
HStem: 0 21G<704 1120> 288 320<440 704 1120 1290> 1394 20G<439.266 1120>
VStem: 704 416<0 288 608 1120>
LayerCount: 2
Fore
SplineSet
1120 608 m 1,0,-1
 1290 608 l 1,1,-1
 1290 288 l 1,2,-1
 1120 288 l 1,3,-1
 1120 0 l 1,4,-1
 704 0 l 1,5,-1
 704 288 l 1,6,-1
 96 288 l 1,7,-1
 96 608 l 1,8,-1
 448 1414 l 5,9,-1
 1120 1414 l 5,10,-1
 1120 608 l 1,0,-1
635 1120 m 1,11,-1
 440 608 l 1,12,-1
 704 608 l 1,13,-1
 704 1120 l 1,14,-1
 635 1120 l 1,11,-1
EndSplineSet
EndChar

StartChar: five
Encoding: 21 53 20
Width: 1408
Flags: W
HStem: -32 288<581.667 807.21> 640 288<594.401 870> 1122 292<576 1152>
VStem: 864 416<315.025 590.929>
LayerCount: 2
Fore
SplineSet
160 642 m 1,0,-1
 256 1414 l 1,1,-1
 1184 1414 l 1,2,-1
 1152 1122 l 1,3,-1
 576 1122 l 1,4,-1
 512 832 l 1,5,6
 534 856 534 856 573 874 c 128,-1,7
 612 892 612 892 656.5 904 c 128,-1,8
 701 916 701 916 746 922 c 128,-1,9
 791 928 791 928 826 928 c 0,10,11
 914 928 914 928 996 898.5 c 128,-1,12
 1078 869 1078 869 1133.5 821.5 c 128,-1,13
 1189 774 1189 774 1234.5 691 c 128,-1,14
 1280 608 1280 608 1280 501 c 0,15,16
 1280 406 1280 406 1246.5 313.5 c 128,-1,17
 1213 221 1213 221 1156.5 139 c 128,-1,18
 1100 57 1100 57 991 12.5 c 128,-1,19
 882 -32 882 -32 717 -32 c 0,20,21
 568 -32 568 -32 463.5 2 c 128,-1,22
 359 36 359 36 290 96 c 128,-1,23
 221 156 221 156 182.5 227.5 c 128,-1,24
 144 299 144 299 128 395 c 1,25,-1
 544 395 l 1,26,27
 550 340 550 340 565 319 c 128,-1,28
 580 298 580 298 603 281.5 c 128,-1,29
 626 265 626 265 655.5 260.5 c 128,-1,30
 685 256 685 256 718 256 c 0,31,32
 755 256 755 256 782.5 276 c 128,-1,33
 810 296 810 296 828 328 c 128,-1,34
 846 360 846 360 855 401.5 c 128,-1,35
 864 443 864 443 864 485 c 0,36,37
 864 515 864 515 853 543 c 128,-1,38
 842 571 842 571 818.5 592.5 c 128,-1,39
 795 614 795 614 759 627 c 128,-1,40
 723 640 723 640 672 640 c 0,41,42
 619 640 619 640 567 622.5 c 128,-1,43
 515 605 515 605 480 576 c 1,44,-1
 160 642 l 1,0,-1
EndSplineSet
EndChar

StartChar: six
Encoding: 22 54 21
Width: 1504
Flags: W
HStem: -32 288<646.224 937.932> 608 256<623.617 934.944> 1120 321<676.314 1154.54>
VStem: 160 416<334.939 608 800 1011.33> 992 352<310.761 550.93>
CounterMasks: 1 e0
LayerCount: 2
Fore
SplineSet
1216 1056 m 5,0,1
 1198 1062 1198 1062 1164 1072.5 c 132,-1,2
 1130 1083 1130 1083 1081.5 1093.5 c 132,-1,3
 1033 1104 1033 1104 970.5 1112 c 132,-1,4
 908 1120 908 1120 832 1120 c 4,5,6
 781 1120 781 1120 734.5 1106 c 132,-1,7
 688 1092 688 1092 653 1056 c 132,-1,8
 618 1020 618 1020 597 958 c 132,-1,9
 576 896 576 896 576 800 c 5,10,11
 613 817 613 817 653.5 829 c 132,-1,12
 694 841 694 841 736 849 c 132,-1,13
 778 857 778 857 818.5 860.5 c 132,-1,14
 859 864 859 864 896 864 c 4,15,16
 986 864 986 864 1067 835.5 c 132,-1,17
 1148 807 1148 807 1209.5 752 c 132,-1,18
 1271 697 1271 697 1307.5 615.5 c 132,-1,19
 1344 534 1344 534 1344 428 c 4,20,21
 1344 372 1344 372 1334.5 316 c 132,-1,22
 1325 260 1325 260 1301 209 c 132,-1,23
 1277 158 1277 158 1237.5 114 c 132,-1,24
 1198 70 1198 70 1138.5 37.5 c 132,-1,25
 1079 5 1079 5 997 -13.5 c 132,-1,26
 915 -32 915 -32 807 -32 c 4,27,28
 671 -32 671 -32 570.5 -6 c 132,-1,29
 470 20 470 20 398 67.5 c 132,-1,30
 326 115 326 115 280 181 c 132,-1,31
 234 247 234 247 207.5 326.5 c 132,-1,32
 181 406 181 406 170.5 497 c 132,-1,33
 160 588 160 588 160 685 c 4,34,35
 160 789 160 789 170 885 c 132,-1,36
 180 981 180 981 206 1065 c 132,-1,37
 232 1149 232 1149 278.5 1218.5 c 132,-1,38
 325 1288 325 1288 398 1337.5 c 132,-1,39
 471 1387 471 1387 573.5 1414 c 132,-1,40
 676 1441 676 1441 816 1441 c 4,41,42
 939 1441 939 1441 1051.5 1424.5 c 132,-1,43
 1164 1408 1164 1408 1248 1376 c 5,44,-1
 1216 1056 l 5,0,1
576 608 m 5,45,46
 576 488 576 488 590.5 418 c 132,-1,47
 605 348 605 348 634.5 312 c 132,-1,48
 664 276 664 276 710 266 c 132,-1,49
 756 256 756 256 819 256 c 4,50,51
 861 256 861 256 893.5 271 c 132,-1,52
 926 286 926 286 947.5 310.5 c 132,-1,53
 969 335 969 335 980.5 366.5 c 132,-1,54
 992 398 992 398 992 431 c 260,55,56
 992 464 992 464 981 496 c 132,-1,57
 970 528 970 528 946.5 553 c 132,-1,58
 923 578 923 578 886.5 593 c 132,-1,59
 850 608 850 608 799 608 c 6,60,-1
 576 608 l 5,45,46
EndSplineSet
EndChar

StartChar: eight
Encoding: 24 56 22
Width: 1536
Flags: W
HStem: -32 320<557.554 954.812> 1152 288<640.497 889.384>
VStem: 96 416<333.342 503.147> 192 416<963.911 1125.1> 928 416<946.435 1113.37>
LayerCount: 2
Fore
SplineSet
1344 1091 m 0,0,1
 1344 1004 1344 1004 1285.5 926.5 c 128,-1,2
 1227 849 1227 849 1113 802 c 1,3,4
 1174 779 1174 779 1233 747.5 c 128,-1,5
 1292 716 1292 716 1338 673.5 c 128,-1,6
 1384 631 1384 631 1412 575 c 128,-1,7
 1440 519 1440 519 1440 446 c 0,8,9
 1440 388 1440 388 1427.5 330 c 128,-1,10
 1415 272 1415 272 1385 218.5 c 128,-1,11
 1355 165 1355 165 1305 119.5 c 128,-1,12
 1255 74 1255 74 1179.5 40 c 128,-1,13
 1104 6 1104 6 1000.5 -13 c 128,-1,14
 897 -32 897 -32 761 -32 c 0,15,16
 597 -32 597 -32 473 2.5 c 128,-1,17
 349 37 349 37 265 92.5 c 128,-1,18
 181 148 181 148 138.5 217.5 c 128,-1,19
 96 287 96 287 96 358 c 0,20,21
 96 409 96 409 116 457 c 128,-1,22
 136 505 136 505 175.5 547 c 128,-1,23
 215 589 215 589 275 622.5 c 128,-1,24
 335 656 335 656 416 679 c 1,25,26
 368 708 368 708 327 744.5 c 128,-1,27
 286 781 286 781 256 827 c 128,-1,28
 226 873 226 873 209 929.5 c 128,-1,29
 192 986 192 986 192 1055 c 0,30,31
 192 1132 192 1132 229.5 1201.5 c 128,-1,32
 267 1271 267 1271 340 1324 c 128,-1,33
 413 1377 413 1377 520.5 1408.5 c 128,-1,34
 628 1440 628 1440 769 1440 c 0,35,36
 908 1440 908 1440 1015.5 1409.5 c 128,-1,37
 1123 1379 1123 1379 1196 1329.5 c 128,-1,38
 1269 1280 1269 1280 1306.5 1217.5 c 128,-1,39
 1344 1155 1344 1155 1344 1091 c 0,0,1
711 559 m 0,40,41
 685 567 685 567 656 576 c 128,-1,42
 627 585 627 585 596 596 c 1,43,44
 557 568 557 568 534.5 534.5 c 128,-1,45
 512 501 512 501 512 455 c 0,46,47
 512 406 512 406 526.5 373.5 c 128,-1,48
 541 341 541 341 571.5 322 c 128,-1,49
 602 303 602 303 649 295.5 c 128,-1,50
 696 288 696 288 762 288 c 0,51,52
 822 288 822 288 865.5 295 c 128,-1,53
 909 302 909 302 937 318.5 c 128,-1,54
 965 335 965 335 978.5 363.5 c 128,-1,55
 992 392 992 392 992 435 c 0,56,57
 992 458 992 458 970.5 473.5 c 128,-1,58
 949 489 949 489 911 502 c 128,-1,59
 873 515 873 515 822 528 c 128,-1,60
 771 541 771 541 711 559 c 0,40,41
769 1162 m 4,61,62
 694 1162 694 1162 651 1130.5 c 128,-1,63
 608 1099 608 1099 608 1057 c 0,64,65
 608 1022 608 1022 627 993.5 c 128,-1,66
 646 965 646 965 680.5 941 c 128,-1,67
 715 917 715 917 761.5 898 c 128,-1,68
 808 879 808 879 864 864 c 1,69,70
 890 891 890 891 909 931.5 c 128,-1,71
 928 972 928 972 928 1017 c 0,72,73
 928 1044 928 1044 917 1068.5 c 128,-1,74
 906 1093 906 1093 886 1111.5 c 128,-1,75
 866 1130 866 1130 836 1146 c 128,-1,76
 806 1162 806 1162 769 1162 c 4,61,62
EndSplineSet
EndChar

StartChar: nine
Encoding: 25 57 23
Width: 1408
Flags: W
HStem: -32 320<311.439 761.2> 576 256<530.293 810.038> 1184 257<531.456 794.894>
VStem: 96 384<882.57 1132.67> 864 416<404.145 640 832 1089.18>
CounterMasks: 1 e0
LayerCount: 2
Fore
SplineSet
256 352 m 1,0,1
 274 346 274 346 304 335 c 128,-1,2
 334 324 334 324 378.5 313.5 c 128,-1,3
 423 303 423 303 481.5 295.5 c 128,-1,4
 540 288 540 288 614 288 c 0,5,6
 667 288 667 288 713 305 c 128,-1,7
 759 322 759 322 792.5 362.5 c 128,-1,8
 826 403 826 403 845 470.5 c 128,-1,9
 864 538 864 538 864 640 c 1,10,11
 790 611 790 611 710 593.5 c 128,-1,12
 630 576 630 576 556 576 c 0,13,14
 464 576 464 576 380.5 604 c 128,-1,15
 297 632 297 632 234 686 c 128,-1,16
 171 740 171 740 133.5 819.5 c 128,-1,17
 96 899 96 899 96 1003 c 0,18,19
 96 1056 96 1056 106 1109.5 c 128,-1,20
 116 1163 116 1163 140.5 1211.5 c 128,-1,21
 165 1260 165 1260 205.5 1302 c 128,-1,22
 246 1344 246 1344 307 1375 c 128,-1,23
 368 1406 368 1406 451.5 1423.5 c 128,-1,24
 535 1441 535 1441 645 1441 c 0,25,26
 778 1441 778 1441 877 1416 c 128,-1,27
 976 1391 976 1391 1047 1345 c 128,-1,28
 1118 1299 1118 1299 1163 1235 c 128,-1,29
 1208 1171 1208 1171 1234 1094 c 128,-1,30
 1260 1017 1260 1017 1270 928.5 c 128,-1,31
 1280 840 1280 840 1280 746 c 0,32,33
 1280 639 1280 639 1270.5 540 c 128,-1,34
 1261 441 1261 441 1235.5 354.5 c 128,-1,35
 1210 268 1210 268 1164.5 197 c 128,-1,36
 1119 126 1119 126 1047.5 75 c 128,-1,37
 976 24 976 24 874.5 -4 c 128,-1,38
 773 -32 773 -32 636 -32 c 0,39,40
 393 -32 393 -32 224 32 c 1,41,-1
 256 352 l 1,0,1
864 832 m 1,42,43
 864 952 864 952 849 1022 c 128,-1,44
 834 1092 834 1092 805.5 1128 c 128,-1,45
 777 1164 777 1164 735.5 1174 c 128,-1,46
 694 1184 694 1184 640 1184 c 0,47,48
 598 1184 598 1184 568 1168 c 128,-1,49
 538 1152 538 1152 518.5 1125.5 c 128,-1,50
 499 1099 499 1099 489.5 1066 c 128,-1,51
 480 1033 480 1033 480 1000 c 256,52,53
 480 967 480 967 490 936.5 c 128,-1,54
 500 906 500 906 522.5 882.5 c 128,-1,55
 545 859 545 859 581.5 845.5 c 128,-1,56
 618 832 618 832 672 832 c 2,57,-1
 864 832 l 1,42,43
EndSplineSet
EndChar

StartChar: colon
Encoding: 26 58 24
Width: 768
Flags: W
HStem: 0 464<227.754 539.496> 654 466<230.254 537.746>
VStem: 128 512<99.2277 380.287 739.228 1020.29>
LayerCount: 2
Fore
SplineSet
384 0 m 0,0,1
 319 0 319 0 270.5 21 c 128,-1,2
 222 42 222 42 190.5 76 c 128,-1,3
 159 110 159 110 143.5 152.5 c 128,-1,4
 128 195 128 195 128 239 c 0,5,6
 128 284 128 284 144.5 327.5 c 128,-1,7
 161 371 161 371 193 404.5 c 128,-1,8
 225 438 225 438 273 451 c 128,-1,9
 321 464 321 464 384 464 c 256,10,11
 447 464 447 464 495 451 c 128,-1,12
 543 438 543 438 575 404.5 c 128,-1,13
 607 371 607 371 623.5 327.5 c 128,-1,14
 640 284 640 284 640 239 c 0,15,16
 640 195 640 195 624 152.5 c 128,-1,17
 608 110 608 110 576.5 76 c 128,-1,18
 545 42 545 42 496.5 21 c 128,-1,19
 448 0 448 0 384 0 c 0,0,1
384 654 m 0,20,21
 319 654 319 654 270.5 668 c 128,-1,22
 222 682 222 682 190.5 716 c 128,-1,23
 159 750 159 750 143.5 792.5 c 128,-1,24
 128 835 128 835 128 879 c 0,25,26
 128 924 128 924 144.5 967.5 c 128,-1,27
 161 1011 161 1011 193 1044.5 c 128,-1,28
 225 1078 225 1078 273 1099 c 128,-1,29
 321 1120 321 1120 384 1120 c 256,30,31
 447 1120 447 1120 495 1099 c 128,-1,32
 543 1078 543 1078 575 1044.5 c 128,-1,33
 607 1011 607 1011 623.5 967.5 c 128,-1,34
 640 924 640 924 640 879 c 0,35,36
 640 835 640 835 624 792.5 c 128,-1,37
 608 750 608 750 576.5 716 c 128,-1,38
 545 682 545 682 496.5 668 c 128,-1,39
 448 654 448 654 384 654 c 0,20,21
EndSplineSet
EndChar

StartChar: semicolon
Encoding: 27 59 25
Width: 768
Flags: W
HStem: -320 192<160 381.569> -32 441<233.567 413.74> 647 473<230.254 537.746>
VStem: 128 512<740.808 1020.29>
LayerCount: 2
Fore
SplineSet
384 647 m 0,0,1
 319 647 319 647 270.5 668 c 128,-1,2
 222 689 222 689 190.5 719.5 c 128,-1,3
 159 750 159 750 143.5 792.5 c 128,-1,4
 128 835 128 835 128 879 c 0,5,6
 128 924 128 924 144.5 967.5 c 128,-1,7
 161 1011 161 1011 193 1044.5 c 128,-1,8
 225 1078 225 1078 273 1099 c 128,-1,9
 321 1120 321 1120 384 1120 c 256,10,11
 447 1120 447 1120 495 1099 c 128,-1,12
 543 1078 543 1078 575 1044.5 c 128,-1,13
 607 1011 607 1011 623.5 967.5 c 128,-1,14
 640 924 640 924 640 879 c 0,15,16
 640 835 640 835 624 792.5 c 128,-1,17
 608 750 608 750 576.5 719.5 c 128,-1,18
 545 689 545 689 496.5 668 c 128,-1,19
 448 647 448 647 384 647 c 0,0,1
416 0 m 1,20,21
 364 -32 364 -32 312 -32 c 0,22,23
 273 -32 273 -32 239.5 -15 c 128,-1,24
 206 2 206 2 181 30.5 c 128,-1,25
 156 59 156 59 142 97 c 128,-1,26
 128 135 128 135 128 176 c 0,27,28
 128 218 128 218 144.5 261 c 128,-1,29
 161 304 161 304 194.5 335 c 128,-1,30
 228 366 228 366 278.5 387.5 c 128,-1,31
 329 409 329 409 397 409 c 0,32,33
 533 409 533 409 602.5 330.5 c 128,-1,34
 672 252 672 252 672 98 c 0,35,36
 672 -28 672 -28 635 -109.5 c 128,-1,37
 598 -191 598 -191 538.5 -237.5 c 128,-1,38
 479 -284 479 -284 405 -302 c 128,-1,39
 331 -320 331 -320 256 -320 c 2,40,-1
 160 -320 l 1,41,-1
 160 -128 l 1,42,43
 232 -128 232 -128 281 -120.5 c 128,-1,44
 330 -113 330 -113 360 -97.5 c 128,-1,45
 390 -82 390 -82 403 -58 c 128,-1,46
 416 -34 416 -34 416 0 c 1,20,21
EndSplineSet
EndChar

StartChar: less
Encoding: 28 60 26
Width: 896
Flags: W
VStem: 96 192<640 1024>
LayerCount: 2
Fore
SplineSet
96 1024 m 1,0,-1
 800 1280 l 1,1,-1
 800 960 l 1,2,-1
 288 832 l 1,3,-1
 800 704 l 1,4,-1
 800 384 l 1,5,-1
 96 640 l 1,6,-1
 96 1024 l 1,0,-1
EndSplineSet
EndChar

StartChar: equal
Encoding: 29 61 27
Width: 1088
Flags: W
HStem: 263 256<192 896> 672 256<192 896>
VStem: 192 704<263 519 672 928>
LayerCount: 2
Fore
SplineSet
896 519 m 5,0,-1
 896 263 l 5,1,-1
 192 263 l 5,2,-1
 192 519 l 5,3,-1
 896 519 l 5,0,-1
896 928 m 5,4,-1
 896 672 l 5,5,-1
 192 672 l 5,6,-1
 192 928 l 5,7,-1
 896 928 l 5,4,-1
EndSplineSet
EndChar

StartChar: greater
Encoding: 30 62 28
Width: 896
Flags: W
VStem: 601 182<640 1024>
LayerCount: 2
Fore
SplineSet
783 640 m 1,0,-1
 89 384 l 1,1,-1
 89 704 l 1,2,-1
 601 832 l 1,3,-1
 89 960 l 1,4,-1
 89 1280 l 1,5,-1
 783 1024 l 1,6,-1
 783 640 l 1,0,-1
EndSplineSet
EndChar

StartChar: question
Encoding: 31 63 29
Width: 1376
Flags: W
HStem: -32 384<406.165 745.894> 1216 288<559.302 783.463>
VStem: 320 512<45.6074 272.551> 832 416<925.439 1168.57>
LayerCount: 2
Fore
SplineSet
352 800 m 1,0,1
 463 810 463 810 542 825 c 128,-1,2
 621 840 621 840 674.5 859 c 128,-1,3
 728 878 728 878 759 900.5 c 128,-1,4
 790 923 790 923 806.5 948 c 128,-1,5
 823 973 823 973 827.5 1000.5 c 128,-1,6
 832 1028 832 1028 832 1056 c 0,7,8
 832 1092 832 1092 819 1121.5 c 128,-1,9
 806 1151 806 1151 784.5 1172 c 128,-1,10
 763 1193 763 1193 734 1204.5 c 128,-1,11
 705 1216 705 1216 672 1216 c 0,12,13
 642 1216 642 1216 614 1206 c 128,-1,14
 586 1196 586 1196 563.5 1176 c 128,-1,15
 541 1156 541 1156 527 1126 c 128,-1,16
 513 1096 513 1096 512 1056 c 1,17,-1
 160 1056 l 1,18,19
 160 1152 160 1152 195 1234 c 128,-1,20
 230 1316 230 1316 298.5 1376 c 128,-1,21
 367 1436 367 1436 468.5 1470 c 128,-1,22
 570 1504 570 1504 704 1504 c 0,23,24
 848 1504 848 1504 951 1470 c 128,-1,25
 1054 1436 1054 1436 1120 1376 c 128,-1,26
 1186 1316 1186 1316 1217 1234 c 128,-1,27
 1248 1152 1248 1152 1248 1056 c 0,28,29
 1248 978 1248 978 1216 903 c 128,-1,30
 1184 828 1184 828 1120.5 766.5 c 128,-1,31
 1057 705 1057 705 961 662.5 c 128,-1,32
 865 620 865 620 736 608 c 1,33,-1
 736 448 l 1,34,-1
 384 448 l 1,35,-1
 352 800 l 1,0,1
576 -32 m 0,36,37
 511 -32 511 -32 462.5 -15.5 c 128,-1,38
 414 1 414 1 382.5 28 c 128,-1,39
 351 55 351 55 335.5 89.5 c 128,-1,40
 320 124 320 124 320 160 c 256,41,42
 320 196 320 196 336.5 230.5 c 128,-1,43
 353 265 353 265 385 292 c 128,-1,44
 417 319 417 319 465 335.5 c 128,-1,45
 513 352 513 352 576 352 c 256,46,47
 639 352 639 352 687 335.5 c 128,-1,48
 735 319 735 319 767 292 c 128,-1,49
 799 265 799 265 815.5 231 c 128,-1,50
 832 197 832 197 832 161 c 0,51,52
 832 124 832 124 816.5 89.5 c 128,-1,53
 801 55 801 55 769.5 28 c 128,-1,54
 738 1 738 1 690 -15.5 c 128,-1,55
 642 -32 642 -32 576 -32 c 0,36,37
EndSplineSet
EndChar

StartChar: at
Encoding: 32 64 30
Width: 2400
Flags: W
HStem: -256 192<984.752 1408> 32 224<1729.71 1884.82> 128 256<1095.18 1327.69> 798 226<995.5 1265.72> 1202 302<911.852 1534.58>
VStem: 96 416<307.547 800.108> 672 352<455.265 725.082> 1376 330<399.82 765.971> 1920 384<388.498 898.431>
LayerCount: 2
Fore
SplineSet
1834 256 m 0,0,1
 1920 256 1920 256 1920 598 c 0,2,3
 1920 738 1920 738 1908 800 c 0,4,5
 1882 931 1882 931 1782 1031 c 128,-1,6
 1682 1131 1682 1131 1495 1167.5 c 0,7,8
 1312.72858295 1203.0770413 1312.72858295 1203.0770413 1259 1202 c 0,9,10
 1114.39950418 1199.23832835 1114.39950418 1199.23832835 1076 1193 c 0,11,12
 927.87527754 1172.72294873 927.87527754 1172.72294873 841 1129 c 0,13,14
 780.902548541 1098.75390625 780.902548541 1098.75390625 697 1019 c 0,15,16
 589.339422605 915.353123465 589.339422605 915.353123465 536 742 c 0,17,18
 512 664 512 664 512 541.5 c 0,19,20
 512 415.2 512 415.2 560 300 c 0,21,22
 610 180 610 180 716 99 c 0,23,24
 929 -64 929 -64 1408 -64 c 1,25,-1
 1440 -224 l 1,26,27
 1355 -256 1355 -256 1148 -256 c 128,-1,28
 941 -256 941 -256 795.5 -224 c 128,-1,29
 650 -192 650 -192 536 -135 c 0,30,31
 315 -24 315 -24 205.5 164 c 128,-1,32
 96 352 96 352 96 560.5 c 128,-1,33
 96 769 96 769 169 940 c 0,34,35
 250.062888736 1129.88704074 250.062888736 1129.88704074 388.5 1237 c 0,36,37
 563.313066905 1370.60615941 563.313066905 1370.60615941 744.5 1441.5 c 0,38,39
 904.234375 1504 904.234375 1504 1247 1504 c 0,40,41
 1694 1504 1694 1504 1974 1326 c 0,42,43
 2180.35638088 1195.04306598 2180.35638088 1195.04306598 2262 954 c 0,44,45
 2304 830 2304 830 2304 695.5 c 128,-1,46
 2304 561 2304 561 2283 470.5 c 128,-1,47
 2262 380 2262 380 2226 309 c 0,48,49
 2158 175 2158 175 2041 103.5 c 128,-1,50
 1924 32 1924 32 1792 32 c 0,51,52
 1592 32 1592 32 1488 166 c 0,53,54
 1454 210 1454 210 1425 269 c 1,55,56
 1374 171 1374 171 1236 138 c 0,57,58
 1194 128 1194 128 1152 128 c 0,59,60
 923 128 923 128 797.5 260.5 c 128,-1,61
 672 393 672 393 672 576 c 256,62,63
 672 755 672 755 785.5 889.5 c 128,-1,64
 899 1024 899 1024 1092 1024 c 128,-1,65
 1285 1024 1285 1024 1376 864 c 1,66,-1
 1408 974 l 1,67,-1
 1620 974 l 1,68,-1
 1706 849 l 1,69,-1
 1706 384 l 2,70,71
 1706 318 1706 318 1732.5 289.5 c 128,-1,72
 1759 261 1759 261 1783 258.5 c 128,-1,73
 1807 256 1807 256 1834 256 c 0,0,1
1376 736 m 1,74,75
 1297 798 1297 798 1232 798 c 128,-1,76
 1167 798 1167 798 1130.5 779 c 128,-1,77
 1094 760 1094 760 1070 728 c 0,78,79
 1024 666 1024 666 1024 576 c 0,80,81
 1024 496 1024 496 1081 440 c 0,82,83
 1139 384 1139 384 1222 384 c 128,-1,84
 1305 384 1305 384 1376 416 c 1,85,-1
 1376 736 l 1,74,75
EndSplineSet
EndChar

StartChar: A
Encoding: 33 65 31
Width: 1504
Flags: W
HStem: 0 21G<64 429.186 900.615 1439> 301 234<531 817> 1394 20G<418.908 1055.5>
DStem2: 64 0 531 535 0.246726 0.969085<116.894 396.307 633.682 871.76>
LayerCount: 2
Fore
SplineSet
1439 0 m 1,0,-1
 905 0 l 1,1,-1
 839 301 l 1,2,-1
 488 301 l 1,3,-1
 425 0 l 1,4,-1
 64 0 l 1,5,-1
 424 1414 l 5,6,-1
 1050 1414 l 5,7,-1
 1439 0 l 1,0,-1
668 1194 m 1,8,-1
 531 535 l 1,9,-1
 817 535 l 1,10,-1
 699 1194 l 1,11,-1
 668 1194 l 1,8,-1
EndSplineSet
EndChar

StartChar: B
Encoding: 34 66 32
Width: 1487
Flags: W
HStem: 0 256<608 915.431> 576 256<608 895.602> 1152 262<608 903.258>
VStem: 160 448<256 576 832 1152> 960 448<300.964 522.928> 960 351<893.167 1099.1>
LayerCount: 2
Fore
SplineSet
160 1414 m 1,0,-1
 636 1414 l 2,1,2
 698 1414 698 1414 772.5 1407 c 128,-1,3
 847 1400 847 1400 922 1387 c 128,-1,4
 997 1374 997 1374 1067 1350.5 c 128,-1,5
 1137 1327 1137 1327 1191.5 1288 c 128,-1,6
 1246 1249 1246 1249 1278.5 1192 c 128,-1,7
 1311 1135 1311 1135 1311 1056 c 0,8,9
 1311 1009 1311 1009 1300 962.5 c 128,-1,10
 1289 916 1289 916 1260.5 877 c 128,-1,11
 1232 838 1232 838 1182.5 809 c 128,-1,12
 1133 780 1133 780 1056 768 c 1,13,14
 1140 763 1140 763 1205.5 729.5 c 128,-1,15
 1271 696 1271 696 1316 646 c 128,-1,16
 1361 596 1361 596 1384.5 535.5 c 128,-1,17
 1408 475 1408 475 1408 416 c 0,18,19
 1408 337 1408 337 1376 262.5 c 128,-1,20
 1344 188 1344 188 1268.5 129.5 c 128,-1,21
 1193 71 1193 71 1069 35.5 c 128,-1,22
 945 0 945 0 761 0 c 2,23,-1
 160 0 l 1,24,-1
 160 1414 l 1,0,-1
608 256 m 1,25,-1
 789 256 l 2,26,27
 875 256 875 256 917.5 300.5 c 128,-1,28
 960 345 960 345 960 416 c 0,29,30
 960 458 960 458 945.5 488 c 128,-1,31
 931 518 931 518 892 537.5 c 128,-1,32
 853 557 853 557 784.5 566.5 c 128,-1,33
 716 576 716 576 608 576 c 1,34,-1
 608 256 l 1,25,-1
748 832 m 2,35,36
 795 832 795 832 834 845.5 c 128,-1,37
 873 859 873 859 901 881 c 128,-1,38
 929 903 929 903 944.5 932 c 128,-1,39
 960 961 960 961 960 992 c 0,40,41
 960 1040 960 1040 941 1071 c 128,-1,42
 922 1102 922 1102 880 1120 c 128,-1,43
 838 1138 838 1138 771 1145 c 128,-1,44
 704 1152 704 1152 608 1152 c 1,45,-1
 608 832 l 1,46,-1
 748 832 l 2,35,36
EndSplineSet
EndChar

StartChar: C
Encoding: 35 67 33
Width: 1344
Flags: MW
HStem: -32 320<715.947 1130.73> 288 768<896 1248> 384 736<864 1248> 1120 321<689.858 1190.33>
VStem: 96 448<475.747 959.116>
LayerCount: 2
Fore
SplineSet
863 -32 m 0,0,1
 707 -32 707 -32 568 18.5 c 128,-1,2
 429 69 429 69 324 164.5 c 128,-1,3
 219 260 219 260 157.5 396.5 c 128,-1,4
 96 533 96 533 96 704 c 0,5,6
 96 884 96 884 151.5 1021.5 c 128,-1,7
 207 1159 207 1159 308 1252.5 c 128,-1,8
 409 1346 409 1346 550.5 1393.5 c 128,-1,9
 692 1441 692 1441 864 1441 c 0,10,11
 909 1441 909 1441 968.5 1436 c 128,-1,12
 1028 1431 1028 1431 1089.5 1422.5 c 128,-1,13
 1151 1414 1151 1414 1209.5 1402 c 128,-1,14
 1268 1390 1268 1390 1312 1376 c 1,15,-1
 1248 1056 l 1,16,17
 1208 1072 1208 1072 1156 1084 c 128,-1,18
 1104 1096 1104 1096 1050.5 1104 c 128,-1,19
 997 1112 997 1112 947.5 1116 c 128,-1,20
 898 1120 898 1120 864 1120 c 0,21,22
 774 1120 774 1120 712.5 1089.5 c 128,-1,23
 651 1059 651 1059 613.5 1003.5 c 128,-1,24
 576 948 576 948 560 871.5 c 128,-1,25
 544 795 544 795 544 704 c 0,26,27
 544 607 544 607 568 530 c 128,-1,28
 592 453 592 453 637 399 c 128,-1,29
 682 345 682 345 747.5 316.5 c 128,-1,30
 813 288 813 288 896 288 c 0,31,32
 971 288 971 288 1064 312 c 128,-1,33
 1157 336 1157 336 1248 384 c 1,34,-1
 1310 64 l 1,35,36
 1198 10 1198 10 1085 -11 c 128,-1,37
 972 -32 972 -32 863 -32 c 0,0,1
EndSplineSet
EndChar

StartChar: D
Encoding: 36 68 34
Width: 1504
Flags: W
HStem: 0 320<608 856.033> 1120 294<608 847.65>
VStem: 160 448<320 1120> 989 419<466.772 967.082>
LayerCount: 2
Fore
SplineSet
160 0 m 1,0,-1
 160 1414 l 5,1,-1
 652 1414 l 6,2,3
 827 1414 827 1414 967.5 1369.5 c 128,-1,4
 1108 1325 1108 1325 1205.5 1240 c 128,-1,5
 1303 1155 1303 1155 1355.5 1025 c 128,-1,6
 1408 895 1408 895 1408 719 c 0,7,8
 1408 518 1408 518 1348.5 380.5 c 128,-1,9
 1289 243 1289 243 1186 158.5 c 128,-1,10
 1083 74 1083 74 944.5 37 c 128,-1,11
 806 0 806 0 648 0 c 2,12,-1
 160 0 l 1,0,-1
608 320 m 1,13,-1
 638 320 l 2,14,15
 716 320 716 320 781 334.5 c 128,-1,16
 846 349 846 349 892 392 c 128,-1,17
 938 435 938 435 963.5 513.5 c 128,-1,18
 989 592 989 592 989 719 c 0,19,20
 989 835 989 835 966 912.5 c 128,-1,21
 943 990 943 990 899.5 1036 c 128,-1,22
 856 1082 856 1082 792 1101 c 128,-1,23
 728 1120 728 1120 647 1120 c 2,24,-1
 608 1120 l 1,25,-1
 608 320 l 1,13,-1
EndSplineSet
EndChar

StartChar: E
Encoding: 37 69 35
Width: 1248
Flags: MW
HStem: 0 288<608 1152> 617 256<608 1088> 873 279<1088 1152> 1152 262<608 1152>
VStem: 160 448<288 617 873 1152>
LayerCount: 2
Fore
SplineSet
160 1414 m 1,0,-1
 1152 1414 l 1,1,-1
 1152 1152 l 5,2,-1
 608 1152 l 1,3,-1
 608 873 l 1,4,-1
 1088 873 l 5,5,-1
 1088 617 l 1,6,-1
 608 617 l 1,7,-1
 608 288 l 1,8,-1
 1152 288 l 1,9,-1
 1152 0 l 1,10,-1
 160 0 l 1,11,-1
 160 1414 l 1,0,-1
EndSplineSet
EndChar

StartChar: F
Encoding: 38 70 36
Width: 1152
Flags: W
HStem: 0 21G<160 608> 512 288<608 1024> 1152 262<608 1088>
VStem: 160 448<0 512 800 1152>
LayerCount: 2
Fore
SplineSet
160 1414 m 5,0,-1
 1088 1414 l 5,1,-1
 1088 1152 l 1,2,-1
 608 1152 l 1,3,-1
 608 800 l 1,4,-1
 1024 800 l 1,5,-1
 1024 512 l 1,6,-1
 608 512 l 1,7,-1
 608 0 l 1,8,-1
 160 0 l 1,9,-1
 160 1414 l 5,0,-1
EndSplineSet
EndChar

StartChar: G
Encoding: 39 71 37
Width: 1504
Flags: MW
HStem: -32 320<706.619 1023.17> 544 256<800 1024> 800 320<800 992> 1120 320<764.344 1286.97>
VStem: 96 448<464.501 909.894> 1024 384<288 544>
LayerCount: 2
Fore
SplineSet
864 -32 m 0,0,1
 699 -32 699 -32 558.5 22.5 c 128,-1,2
 418 77 418 77 315 175.5 c 128,-1,3
 212 274 212 274 151 412 c 128,-1,4
 90 550 90 550 90 717 c 0,5,6
 90 880 90 880 156 1013.5 c 128,-1,7
 222 1147 222 1147 336 1241.5 c 128,-1,8
 450 1336 450 1336 609 1388 c 128,-1,9
 768 1440 768 1440 960 1440 c 0,10,11
 1063 1440 1063 1440 1178.5 1425 c 128,-1,12
 1294 1410 1294 1410 1408 1376 c 1,13,-1
 1344 1056 l 1,14,15
 1241 1093 1241 1093 1156 1106.5 c 128,-1,16
 1071 1120 1071 1120 992 1120 c 4,17,18
 887 1120 887 1120 803.5 1091 c 128,-1,19
 720 1062 720 1062 659.5 1009 c 128,-1,20
 599 956 599 956 568.5 881 c 128,-1,21
 538 806 538 806 538 715 c 0,22,23
 538 615 538 615 558 535.5 c 128,-1,24
 578 456 578 456 624 401 c 128,-1,25
 670 346 670 346 736.5 317 c 128,-1,26
 803 288 803 288 896 288 c 2,27,-1
 1024 288 l 1,28,-1
 1024 581 l 1,29,-1
 800 551 l 1,30,-1
 800 800 l 5,31,-1
 1408 800 l 1,32,-1
 1408 124 l 1,33,34
 1334 80 1334 80 1265 50 c 128,-1,35
 1196 20 1196 20 1129 2 c 128,-1,36
 1062 -16 1062 -16 996.5 -24 c 128,-1,37
 931 -32 931 -32 864 -32 c 0,0,1
EndSplineSet
EndChar

StartChar: H
Encoding: 40 72 38
Width: 1632
Flags: W
HStem: 0 21G<160 608 1024 1472> 576 288<608 1024> 1394 20G<160 608 1024 1472>
VStem: 160 448<0 576 864 1414> 1024 448<0 576 864 1414>
LayerCount: 2
Fore
SplineSet
160 1414 m 1,0,-1
 608 1414 l 1,1,-1
 608 864 l 1,2,-1
 1024 864 l 1,3,-1
 1024 1414 l 5,4,-1
 1472 1414 l 5,5,-1
 1472 0 l 1,6,-1
 1024 0 l 1,7,-1
 1024 576 l 1,8,-1
 608 576 l 1,9,-1
 608 0 l 1,10,-1
 160 0 l 1,11,-1
 160 1414 l 1,0,-1
EndSplineSet
EndChar

StartChar: I
Encoding: 41 73 39
Width: 768
Flags: W
HStem: 0 21G<141 589> 1394 20G<141 589>
VStem: 141 448<0 1414>
LayerCount: 2
Fore
SplineSet
141 1414 m 5,0,-1
 589 1414 l 5,1,-1
 589 0 l 1,2,-1
 141 0 l 1,3,-1
 141 1414 l 5,0,-1
EndSplineSet
EndChar

StartChar: J
Encoding: 42 74 40
Width: 992
Flags: W
HStem: -32 320<67.688 352> 1394 20G<384 832>
VStem: 384 448<317.25 1414>
LayerCount: 2
Fore
SplineSet
352 -32 m 0,0,1
 261 -32 261 -32 176.5 -19 c 128,-1,2
 92 -6 92 -6 32 32 c 1,3,-1
 32 320 l 1,4,5
 99 299 99 299 156.5 293.5 c 128,-1,6
 214 288 214 288 256 288 c 0,7,8
 308 288 308 288 334.5 312.5 c 128,-1,9
 361 337 361 337 372 373.5 c 128,-1,10
 383 410 383 410 383.5 453.5 c 128,-1,11
 384 497 384 497 384 536 c 2,12,-1
 384 1414 l 5,13,-1
 832 1414 l 5,14,-1
 832 429 l 2,15,16
 832 309 832 309 790 222 c 128,-1,17
 748 135 748 135 680.5 78.5 c 128,-1,18
 613 22 613 22 526.5 -5 c 128,-1,19
 440 -32 440 -32 352 -32 c 0,0,1
EndSplineSet
EndChar

StartChar: K
Encoding: 43 75 41
Width: 1508
Flags: W
HStem: 0 21G<160 608 918.526 1440> 1394 20G<160 608 917.527 1440>
VStem: 160 448<0 608 864 1414>
LayerCount: 2
Fore
SplineSet
608 608 m 1,0,-1
 608 0 l 1,1,-1
 160 0 l 1,2,-1
 160 1414 l 1,3,-1
 608 1414 l 1,4,-1
 608 864 l 1,5,-1
 640 864 l 1,6,-1
 928 1414 l 5,7,-1
 1440 1414 l 5,8,-1
 1024 736 l 1,9,-1
 1440 0 l 1,10,-1
 928 0 l 1,11,-1
 640 608 l 1,12,-1
 608 608 l 1,0,-1
EndSplineSet
EndChar

StartChar: L
Encoding: 44 76 42
Width: 1152
Flags: W
HStem: 0 288<608 1088> 1394 20G<160 608>
VStem: 160 448<288 1414>
LayerCount: 2
Fore
SplineSet
160 1414 m 5,0,-1
 608 1414 l 5,1,-1
 608 288 l 1,2,-1
 1088 288 l 1,3,-1
 1088 0 l 1,4,-1
 160 0 l 1,5,-1
 160 1414 l 5,0,-1
EndSplineSet
EndChar

StartChar: M
Encoding: 45 77 43
Width: 1877
Flags: W
HStem: 0 21G<160 480 1248 1706> 1394 20G<160 588.8 1267.2 1706>
VStem: 160 320<0 768> 1248 458<0 768>
LayerCount: 2
Fore
SplineSet
160 1414 m 1,0,-1
 576 1414 l 1,1,-1
 928 864 l 1,2,-1
 1280 1414 l 5,3,-1
 1706 1414 l 5,4,-1
 1706 0 l 1,5,-1
 1248 0 l 1,6,-1
 1248 768 l 1,7,-1
 918 209 l 1,8,-1
 821 209 l 1,9,-1
 480 768 l 1,10,-1
 480 0 l 1,11,-1
 160 0 l 1,12,-1
 160 1414 l 1,0,-1
EndSplineSet
EndChar

StartChar: N
Encoding: 46 78 44
Width: 1536
Flags: W
HStem: 0 21G<84 423 938.904 1397> 1394 20G<84 532.183 1055 1396.01>
VStem: 84 339<0 752> 1056 341<704 1414>
LayerCount: 2
Fore
SplineSet
84 1414 m 5,0,-1
 517 1414 l 5,1,-1
 1056 704 l 1,2,-1
 1055 1414 l 1,3,-1
 1396 1414 l 1,4,-1
 1397 0 l 1,5,-1
 953 0 l 1,6,-1
 423 752 l 1,7,-1
 423 0 l 1,8,-1
 84 0 l 1,9,-1
 84 1414 l 5,0,-1
EndSplineSet
EndChar

StartChar: O
Encoding: 47 79 45
Width: 1514
Flags: HMW
HStem: -32 288<632.162 893.838> 256 928<763 763> 1184 257<640.295 885.527>
VStem: 59 448<419.044 992.351> 1019 448<419.044 992.351>
LayerCount: 2
Fore
SplineSet
750 256 m 256,0,1
 875 256 875 256 940.5 374.5 c 128,-1,2
 1006 493 1006 493 1006 719 c 0,3,4
 1006 823 1006 823 989 908.5 c 128,-1,5
 972 994 972 994 939.5 1055.5 c 128,-1,6
 907 1117 907 1117 859 1150.5 c 128,-1,7
 811 1184 811 1184 750 1184 c 0,8,9
 688 1184 688 1184 640.5 1150.5 c 128,-1,10
 593 1117 593 1117 560.5 1055.5 c 128,-1,11
 528 994 528 994 511 908.5 c 128,-1,12
 494 823 494 823 494 719 c 0,13,14
 494 493 494 493 559.5 374.5 c 128,-1,15
 625 256 625 256 750 256 c 256,0,1
750 -32 m 256,16,17
 619 -32 619 -32 515.5 -2.5 c 128,-1,18
 412 27 412 27 334 79.5 c 128,-1,19
 256 132 256 132 201 203.5 c 128,-1,20
 146 275 146 275 111.5 358.5 c 128,-1,21
 77 442 77 442 61.5 534.5 c 128,-1,22
 46 627 46 627 46 721 c 0,23,24
 46 812 46 812 65 900.5 c 128,-1,25
 84 989 84 989 122 1069 c 128,-1,26
 160 1149 160 1149 218 1217.5 c 128,-1,27
 276 1286 276 1286 354.5 1335.5 c 128,-1,28
 433 1385 433 1385 531.5 1413 c 128,-1,29
 630 1441 630 1441 750 1441 c 256,30,31
 870 1441 870 1441 968.5 1413 c 128,-1,32
 1067 1385 1067 1385 1145.5 1335.5 c 128,-1,33
 1224 1286 1224 1286 1282 1217.5 c 128,-1,34
 1340 1149 1340 1149 1378 1069 c 128,-1,35
 1416 989 1416 989 1435 900.5 c 128,-1,36
 1454 812 1454 812 1454 721 c 0,37,38
 1454 627 1454 627 1438.5 534.5 c 128,-1,39
 1423 442 1423 442 1388.5 358.5 c 128,-1,40
 1354 275 1354 275 1299 203.5 c 128,-1,41
 1244 132 1244 132 1166 79.5 c 128,-1,42
 1088 27 1088 27 984.5 -2.5 c 128,-1,43
 881 -32 881 -32 750 -32 c 256,16,17
EndSplineSet
EndChar

StartChar: P
Encoding: 48 80 46
Width: 1440
Flags: W
HStem: 0 21G<160 608> 480 224<608 911.486> 1152 262<608 916.984>
VStem: 160 448<0 487 704 1152> 992 384<782.384 1078.62>
LayerCount: 2
Fore
SplineSet
160 1414 m 5,0,-1
 706 1414 l 6,1,2
 841 1414 841 1414 943 1393.5 c 128,-1,3
 1045 1373 1045 1373 1119.5 1341.5 c 128,-1,4
 1194 1310 1194 1310 1243.5 1265.5 c 128,-1,5
 1293 1221 1293 1221 1322.5 1168 c 128,-1,6
 1352 1115 1352 1115 1364 1054 c 128,-1,7
 1376 993 1376 993 1376 928 c 0,8,9
 1376 846 1376 846 1347.5 765.5 c 128,-1,10
 1319 685 1319 685 1249.5 621.5 c 128,-1,11
 1180 558 1180 558 1062.5 519 c 128,-1,12
 945 480 945 480 768 480 c 0,13,14
 750 480 750 480 723 480.5 c 128,-1,15
 696 481 696 481 670 483 c 0,16,17
 640 485 640 485 608 487 c 1,18,-1
 608 0 l 1,19,-1
 160 0 l 1,20,-1
 160 1414 l 5,0,-1
608 704 m 1,21,-1
 736 704 l 2,22,23
 808 704 808 704 857 721.5 c 128,-1,24
 906 739 906 739 936 769 c 128,-1,25
 966 799 966 799 979 840 c 128,-1,26
 992 881 992 881 992 928 c 0,27,28
 992 994 992 994 973 1037 c 128,-1,29
 954 1080 954 1080 919.5 1105.5 c 128,-1,30
 885 1131 885 1131 838 1141.5 c 128,-1,31
 791 1152 791 1152 736 1152 c 2,32,-1
 608 1152 l 1,33,-1
 608 704 l 1,21,-1
EndSplineSet
EndChar

StartChar: Q
Encoding: 49 81 47
Width: 1600
Flags: W
HStem: -416 322.5<1049.3 1298> 1184 256<662.444 909.198>
VStem: 82 448<422.455 994.245> 1042 448<418.875 1006.37>
LayerCount: 2
Fore
SplineSet
1298 -416 m 1,0,1
 1155 -416 1155 -416 1052.5 -398.5 c 128,-1,2
 950 -381 950 -381 877.5 -337.5 c 128,-1,3
 805 -294 805 -294 757.5 -220 c 128,-1,4
 710 -146 710 -146 677 -32 c 1,5,6
 570 -19 570 -19 484.5 17 c 128,-1,7
 399 53 399 53 332.5 107.5 c 128,-1,8
 266 162 266 162 219 231 c 128,-1,9
 172 300 172 300 141.5 379.5 c 128,-1,10
 111 459 111 459 96.5 545 c 128,-1,11
 82 631 82 631 82 719 c 0,12,13
 82 810 82 810 100.5 899 c 128,-1,14
 119 988 119 988 156.5 1068 c 128,-1,15
 194 1148 194 1148 251.5 1216 c 128,-1,16
 309 1284 309 1284 387.5 1334 c 128,-1,17
 466 1384 466 1384 565 1412 c 128,-1,18
 664 1440 664 1440 786 1440 c 0,19,20
 920 1440 920 1440 1024 1412 c 128,-1,21
 1128 1384 1128 1384 1206.5 1334 c 128,-1,22
 1285 1284 1285 1284 1339 1216 c 128,-1,23
 1393 1148 1393 1148 1426.5 1068 c 128,-1,24
 1460 988 1460 988 1475 899 c 128,-1,25
 1490 810 1490 810 1490 719 c 0,26,27
 1490 604 1490 604 1466 491.5 c 128,-1,28
 1442 379 1442 379 1387 282 c 128,-1,29
 1332 185 1332 185 1241.5 108.5 c 128,-1,30
 1151 32 1151 32 1019 -11 c 1,31,32
 1030 -40 1030 -40 1060 -56.5 c 128,-1,33
 1090 -73 1090 -73 1132 -82 c 128,-1,34
 1174 -91 1174 -91 1225.5 -93.5 c 128,-1,35
 1277 -96 1277 -96 1330 -96 c 1,36,-1
 1298 -416 l 1,0,1
786 256 m 260,37,38
 911 256 911 256 976.5 374.5 c 128,-1,39
 1042 493 1042 493 1042 719 c 0,40,41
 1042 823 1042 823 1025 908.5 c 128,-1,42
 1008 994 1008 994 975.5 1055.5 c 128,-1,43
 943 1117 943 1117 895 1150.5 c 128,-1,44
 847 1184 847 1184 786 1184 c 4,45,46
 724 1184 724 1184 676.5 1150.5 c 128,-1,47
 629 1117 629 1117 596.5 1055.5 c 128,-1,48
 564 994 564 994 547 908.5 c 128,-1,49
 530 823 530 823 530 719 c 0,50,51
 530 493 530 493 595.5 374.5 c 128,-1,52
 661 256 661 256 786 256 c 260,37,38
EndSplineSet
EndChar

StartChar: R
Encoding: 50 82 48
Width: 1504
Flags: MW
HStem: 0 21G<160 608 879.5 1408> 480 224<608 743.943> 704 448<608 608> 1152 262<608 878.875>
VStem: 160 448<0 480 704 1152> 608 352<928 1152> 960 448<794.545 1077.04>
LayerCount: 2
Fore
SplineSet
160 1414 m 1,0,-1
 716 1414 l 2,1,2
 890 1414 890 1414 1019.5 1373 c 128,-1,3
 1149 1332 1149 1332 1235.5 1269 c 128,-1,4
 1322 1206 1322 1206 1365 1125.5 c 128,-1,5
 1408 1045 1408 1045 1408 960 c 0,6,7
 1408 895 1408 895 1395 831.5 c 128,-1,8
 1382 768 1382 768 1349 712 c 128,-1,9
 1316 656 1316 656 1258.5 610 c 128,-1,10
 1201 564 1201 564 1112 536 c 1,11,12
 1119 513 1119 513 1136 477.5 c 128,-1,13
 1153 442 1153 442 1175 399.5 c 128,-1,14
 1197 357 1197 357 1223 311 c 128,-1,15
 1249 265 1249 265 1275 221 c 0,16,17
 1336 116 1336 116 1408 0 c 1,18,-1
 896 0 l 1,19,20
 863 74 863 74 832 155 c 0,21,22
 819 189 819 189 805 228.5 c 128,-1,23
 791 268 791 268 778.5 309.5 c 128,-1,24
 766 351 766 351 755 394.5 c 128,-1,25
 744 438 744 438 736 480 c 1,26,-1
 608 480 l 1,27,-1
 608 0 l 1,28,-1
 160 0 l 1,29,-1
 160 1414 l 1,0,-1
684 704 m 2,30,31
 760 704 760 704 812.5 724 c 128,-1,32
 865 744 865 744 898 776 c 128,-1,33
 931 808 931 808 945.5 848 c 128,-1,34
 960 888 960 888 960 928 c 0,35,36
 960 998 960 998 938 1042 c 128,-1,37
 916 1086 916 1086 878 1110.5 c 128,-1,38
 840 1135 840 1135 790 1143.5 c 128,-1,39
 740 1152 740 1152 683 1152 c 2,40,-1
 608 1152 l 5,41,-1
 608 704 l 5,42,-1
 684 704 l 2,30,31
EndSplineSet
EndChar

StartChar: T
Encoding: 52 84 49
Width: 1248
Flags: HW
HStem: 0 21G<416 864> 1088 326<96 416 864 1191>
VStem: 416 448<0 1088>
LayerCount: 2
Fore
SplineSet
416 0 m 1,0,-1
 416 1088 l 1,1,-1
 96 1088 l 1,2,-1
 96 1414 l 1,3,-1
 1191 1414 l 1,4,-1
 1191 1088 l 1,5,-1
 864 1088 l 1,6,-1
 864 0 l 1,7,-1
 416 0 l 1,0,-1
EndSplineSet
EndChar

StartChar: U
Encoding: 53 85 50
Width: 1504
Flags: MW
HStem: -32 1446<768 1366> -32 288<697.855 940.32> 256 1158<608 816> 1394 20G<128 608 1024 1366>
VStem: 128 480<364.527 1414> 1024 342<354.997 1414>
LayerCount: 2
Fore
SplineSet
768 -32 m 0,0,1
 619 -32 619 -32 500.5 12 c 128,-1,2
 382 56 382 56 299 144 c 128,-1,3
 216 232 216 232 172 364.5 c 128,-1,4
 128 497 128 497 128 674 c 2,5,-1
 128 1414 l 1,6,-1
 608 1414 l 1,7,-1
 608 672 l 2,8,9
 608 573 608 573 618 496 c 128,-1,10
 628 419 628 419 652 365.5 c 128,-1,11
 676 312 676 312 716 284 c 128,-1,12
 756 256 756 256 816 256 c 0,13,14
 882 256 882 256 922.5 284 c 128,-1,15
 963 312 963 312 985.5 365.5 c 128,-1,16
 1008 419 1008 419 1016 496 c 128,-1,17
 1024 573 1024 573 1024 672 c 2,18,-1
 1024 1414 l 1,19,-1
 1366 1414 l 1,20,-1
 1366 674 l 2,21,22
 1366 318 1366 318 1222.5 143 c 128,-1,23
 1079 -32 1079 -32 768 -32 c 0,0,1
EndSplineSet
EndChar

StartChar: V
Encoding: 54 86 51
Width: 1440
Flags: W
HStem: 0 21G<411.021 1030.42> 1394 20G<64 611.905 1051.41 1408>
VStem: 1056 352<1062 1414>
LayerCount: 2
Fore
SplineSet
64 1414 m 1,0,-1
 608 1414 l 1,1,-1
 814 359 l 1,2,-1
 1056 1414 l 1,3,-1
 1408 1414 l 1,4,-1
 1025 0 l 1,5,-1
 416 0 l 1,6,-1
 64 1414 l 1,0,-1
EndSplineSet
EndChar

StartChar: X
Encoding: 56 88 52
Width: 1504
Flags: W
HStem: 0 21G<64 483.081 889.246 1440> 1394 20G<64 616.623 1046.74 1440>
DStem2: 824 913 1088 704 0.444183 0.895936<0 551.914>
LayerCount: 2
Fore
SplineSet
1088 704 m 1,0,-1
 1440 0 l 1,1,-1
 896 0 l 1,2,-1
 716 533 l 1,3,-1
 474 0 l 1,4,-1
 64 0 l 1,5,-1
 416 704 l 1,6,-1
 64 1414 l 1,7,-1
 608 1414 l 1,8,-1
 824 913 l 1,9,-1
 1056 1414 l 5,10,-1
 1440 1414 l 5,11,-1
 1088 704 l 1,0,-1
EndSplineSet
EndChar

StartChar: Y
Encoding: 57 89 53
Width: 1366
Flags: HMW
HStem: 0 21G<512 939> 1394 20G<64 614.626 921.538 1344>
VStem: 512 427<0 486> 608 320<1414 1414>
LayerCount: 2
Fore
SplineSet
493 0 m 5,0,-1
 493 486 l 5,1,-1
 45 1414 l 5,2,-1
 589 1414 l 5,3,-1
 751 925 l 5,4,-1
 909 1414 l 5,5,-1
 1325 1414 l 5,6,-1
 920 499 l 5,7,-1
 920 0 l 5,8,-1
 493 0 l 5,0,-1
EndSplineSet
EndChar

StartChar: Z
Encoding: 58 90 54
Width: 1088
Flags: W
HStem: 0 320<576 979> 1088 326<110 579>
VStem: 110 882<0 317 1088 1414>
LayerCount: 2
Fore
SplineSet
992 1414 m 5,0,-1
 992 1088 l 1,1,-1
 576 320 l 1,2,-1
 979 320 l 1,3,-1
 979 0 l 1,4,-1
 96 0 l 1,5,-1
 96 317 l 1,6,-1
 579 1088 l 1,7,-1
 110 1088 l 1,8,-1
 110 1414 l 5,9,-1
 992 1414 l 5,0,-1
EndSplineSet
EndChar

StartChar: bracketleft
Encoding: 59 91 55
Width: 905
Flags: W
HStem: 0 325<553 813> 1291 325<553 813>
VStem: 92 721<0 325 1291 1616> 92 461<325 1291>
LayerCount: 2
Fore
SplineSet
92 1616 m 1,0,-1
 813 1616 l 1,1,-1
 813 1291 l 1,2,-1
 553 1291 l 1,3,-1
 553 325 l 1,4,-1
 813 325 l 1,5,-1
 813 0 l 1,6,-1
 92 0 l 1,7,-1
 92 1616 l 1,0,-1
EndSplineSet
EndChar

StartChar: backslash
Encoding: 60 92 56
Width: 900
Flags: W
HStem: 0 21G<396.362 853> 1406 20G<0 456.638>
VStem: 0 451<975 1426> 402 451<0 451>
DStem2: 451 1426 0 1426 0.271332 -0.962486<0 1359.21>
LayerCount: 2
Fore
SplineSet
451 1426 m 1,0,-1
 853 0 l 1,1,-1
 402 0 l 1,2,-1
 0 1426 l 1,3,-1
 451 1426 l 1,0,-1
EndSplineSet
EndChar

StartChar: bracketright
Encoding: 61 93 57
Width: 905
Flags: W
HStem: 0 325<92 351> 1291 325<92 351>
VStem: 92 721<0 325 1291 1616> 351 462<325 1291>
LayerCount: 2
Fore
SplineSet
813 0 m 1,0,-1
 92 0 l 1,1,-1
 92 325 l 1,2,-1
 351 325 l 1,3,-1
 351 1291 l 1,4,-1
 92 1291 l 1,5,-1
 92 1616 l 1,6,-1
 813 1616 l 1,7,-1
 813 0 l 1,0,-1
EndSplineSet
EndChar

StartChar: asciicircum
Encoding: 62 94 58
Width: 1200
Flags: MW
VStem: 400 49<512 1200> 400 200<1000 1200>
LayerCount: 2
Fore
SplineSet
100 512 m 1,0,-1
 400 1200 l 5,1,-1
 800 1200 l 1,2,-1
 1100 512 l 1,3,-1
 756 512 l 1,4,-1
 600 1000 l 1,5,-1
 449 512 l 5,6,-1
 100 512 l 1,0,-1
EndSplineSet
EndChar

StartChar: underscore
Encoding: 63 95 59
Width: 1000
Flags: W
HStem: -300 300<0 1000>
LayerCount: 2
Fore
SplineSet
1000 0 m 1,0,-1
 1000 -300 l 1,1,-1
 0 -300 l 1,2,-1
 0 0 l 1,3,-1
 1000 0 l 1,0,-1
EndSplineSet
EndChar

StartChar: grave
Encoding: 64 96 60
Width: 608
Flags: W
HStem: 1219 634<288 480>
VStem: 32 544
LayerCount: 2
Fore
SplineSet
288 1219 m 1,0,-1
 32 1853 l 1,1,-1
 480 1853 l 1,2,-1
 576 1219 l 1,3,-1
 288 1219 l 1,0,-1
EndSplineSet
EndChar

StartChar: a
Encoding: 65 97 61
Width: 1387
Flags: W
HStem: -32 238<388.5 620.409> 0 21G<800 1216> 467 167<566.992 800> 832 290<287.417 757.822>
VStem: 96 384<222.547 393.827> 800 416<0 179 274.923 467 626 789.895>
LayerCount: 2
Fore
SplineSet
420 -32 m 0,0,1
 357 -32 357 -32 298.5 -14 c 128,-1,2
 240 4 240 4 195 41 c 128,-1,3
 150 78 150 78 123 133.5 c 128,-1,4
 96 189 96 189 96 264 c 0,5,6
 96 344 96 344 121.5 402.5 c 128,-1,7
 147 461 147 461 189.5 502.5 c 128,-1,8
 232 544 232 544 288 569.5 c 128,-1,9
 344 595 344 595 405 609.5 c 128,-1,10
 466 624 466 624 528 629 c 128,-1,11
 590 634 590 634 646 634 c 0,12,13
 678 634 678 634 705.5 632.5 c 128,-1,14
 733 631 733 631 753.5 629.5 c 128,-1,15
 774 628 774 628 786.5 627 c 128,-1,16
 799 626 799 626 800 626 c 1,17,-1
 800 672 l 2,18,19
 800 720 800 720 785 751 c 128,-1,20
 770 782 770 782 744 800 c 128,-1,21
 718 818 718 818 683 825 c 128,-1,22
 648 832 648 832 608 832 c 0,23,24
 531 832 531 832 461.5 822 c 128,-1,25
 392 812 392 812 339 800 c 0,26,27
 277 786 277 786 224 768 c 1,28,-1
 160 1056 l 1,29,30
 239 1074 239 1074 329 1088 c 0,31,32
 406 1100 406 1100 504.5 1111 c 128,-1,33
 603 1122 603 1122 711 1122 c 0,34,35
 812 1122 812 1122 903.5 1097.5 c 128,-1,36
 995 1073 995 1073 1064.5 1019 c 128,-1,37
 1134 965 1134 965 1175 876 c 128,-1,38
 1216 787 1216 787 1216 655 c 2,39,-1
 1216 0 l 1,40,-1
 800 0 l 1,41,-1
 800 179 l 1,42,43
 778 130 778 130 737 91 c 128,-1,44
 696 52 696 52 644.5 24.5 c 128,-1,45
 593 -3 593 -3 535 -17.5 c 128,-1,46
 477 -32 477 -32 420 -32 c 0,0,1
589 206 m 0,47,48
 617 206 617 206 646 216 c 128,-1,49
 675 226 675 226 703 241.5 c 128,-1,50
 731 257 731 257 756 275.5 c 128,-1,51
 781 294 781 294 800 310 c 1,52,-1
 800 467 l 1,53,-1
 767 467 l 2,54,55
 719 467 719 467 668.5 457 c 128,-1,56
 618 447 618 447 576 427 c 128,-1,57
 534 407 534 407 507 378 c 128,-1,58
 480 349 480 349 480 311 c 0,59,60
 480 281 480 281 490 261 c 128,-1,61
 500 241 500 241 515.5 228.5 c 128,-1,62
 531 216 531 216 550.5 211 c 128,-1,63
 570 206 570 206 589 206 c 0,47,48
EndSplineSet
EndChar

StartChar: b
Encoding: 66 98 62
Width: 1546
Flags: W
HStem: -32 298<759.446 1004> 0 21G<160 576> 843 279<756.754 921.762> 1516 20G<160 576>
VStem: 160 416<0 178 352.607 756.803 931 1536> 992 448<355.864 766.688>
LayerCount: 2
Fore
SplineSet
956 -32 m 0,0,1
 899 -32 899 -32 843 -17.5 c 128,-1,2
 787 -3 787 -3 737 24 c 128,-1,3
 687 51 687 51 645.5 90 c 128,-1,4
 604 129 604 129 576 178 c 1,5,-1
 576 0 l 1,6,-1
 160 0 l 1,7,-1
 160 1536 l 1,8,-1
 576 1536 l 1,9,-1
 576 931 l 1,10,11
 601 974 601 974 643.5 1009 c 128,-1,12
 686 1044 686 1044 738.5 1069 c 128,-1,13
 791 1094 791 1094 850.5 1108 c 128,-1,14
 910 1122 910 1122 970 1122 c 4,15,16
 1028 1122 1028 1122 1086 1108 c 128,-1,17
 1144 1094 1144 1094 1196 1066 c 128,-1,18
 1248 1038 1248 1038 1292.5 994 c 128,-1,19
 1337 950 1337 950 1370 887 c 128,-1,20
 1403 824 1403 824 1421.5 741.5 c 128,-1,21
 1440 659 1440 659 1440 555 c 0,22,23
 1440 402 1440 402 1400.5 291 c 128,-1,24
 1361 180 1361 180 1294 108.5 c 128,-1,25
 1227 37 1227 37 1139.5 2.5 c 128,-1,26
 1052 -32 1052 -32 956 -32 c 0,0,1
768 266 m 0,27,28
 800 266 800 266 839 274 c 128,-1,29
 878 282 878 282 912 311.5 c 128,-1,30
 946 341 946 341 969 398.5 c 128,-1,31
 992 456 992 456 992 555 c 0,32,33
 992 626 992 626 981.5 675 c 128,-1,34
 971 724 971 724 953.5 756 c 128,-1,35
 936 788 936 788 913.5 805.5 c 128,-1,36
 891 823 891 823 866.5 831.5 c 128,-1,37
 842 840 842 840 817.5 841.5 c 128,-1,38
 793 843 793 843 772 843 c 0,39,40
 734 843 734 843 698.5 827.5 c 128,-1,41
 663 812 663 812 636 778.5 c 128,-1,42
 609 745 609 745 592.5 691 c 128,-1,43
 576 637 576 637 576 559 c 0,44,45
 576 478 576 478 592 422 c 128,-1,46
 608 366 608 366 634.5 331.5 c 128,-1,47
 661 297 661 297 695.5 281.5 c 128,-1,48
 730 266 730 266 768 266 c 0,27,28
EndSplineSet
EndChar

StartChar: c
Encoding: 67 99 63
Width: 1182
Flags: MW
HStem: -32 311<637.915 990.315> 279 550<787 796> 352 416<1054 1054> 829 293<644.297 1018.75>
VStem: 94 448<378.112 725.525>
LayerCount: 2
Fore
SplineSet
700 -32 m 0,0,1
 575 -32 575 -32 465 4.5 c 128,-1,2
 355 41 355 41 272.5 114 c 128,-1,3
 190 187 190 187 142 297.5 c 128,-1,4
 94 408 94 408 94 557 c 0,5,6
 94 669 94 669 134 771 c 128,-1,7
 174 873 174 873 250 950.5 c 128,-1,8
 326 1028 326 1028 436.5 1075 c 128,-1,9
 547 1122 547 1122 688 1122 c 0,10,11
 785 1122 785 1122 887 1106 c 128,-1,12
 989 1090 989 1090 1086 1056 c 1,13,-1
 1054 768 l 1,14,15
 1000 802 1000 802 931 815.5 c 128,-1,16
 862 829 862 829 796 829 c 0,17,18
 740 829 740 829 693.5 811 c 128,-1,19
 647 793 647 793 613 758.5 c 128,-1,20
 579 724 579 724 560.5 673 c 128,-1,21
 542 622 542 622 542 555 c 0,22,23
 542 420 542 420 608.5 349.5 c 128,-1,24
 675 279 675 279 787 279 c 0,25,26
 859 279 859 279 923 298.5 c 128,-1,27
 987 318 987 318 1054 352 c 1,28,-1
 1118 64 l 1,29,30
 1074 41 1074 41 1023 23.5 c 128,-1,31
 972 6 972 6 918 -6.5 c 128,-1,32
 864 -19 864 -19 808.5 -25.5 c 128,-1,33
 753 -32 753 -32 700 -32 c 0,0,1
EndSplineSet
EndChar

StartChar: d
Encoding: 68 100 64
Width: 1588
Flags: W
HStem: -32 298<552 791.5> 0 21G<969 1417> 843 279<529.5 782.94> 1516 20G<969 1417>
VStem: 105 448<355.881 762.887> 969 448<0 209 348.363 758.035 921 1536>
LayerCount: 2
Fore
SplineSet
582 -32 m 256,0,1
 522 -32 522 -32 463 -17 c 128,-1,2
 404 -2 404 -2 351 29 c 128,-1,3
 298 60 298 60 253 108 c 128,-1,4
 208 156 208 156 175 221 c 128,-1,5
 142 286 142 286 123.5 369.5 c 128,-1,6
 105 453 105 453 105 555 c 0,7,8
 105 711 105 711 146 819 c 128,-1,9
 187 927 187 927 253.5 994 c 128,-1,10
 320 1061 320 1061 403.5 1091.5 c 128,-1,11
 487 1122 487 1122 572 1122 c 4,12,13
 635 1122 635 1122 695 1107 c 128,-1,14
 755 1092 755 1092 807.5 1066 c 128,-1,15
 860 1040 860 1040 901.5 1003.5 c 128,-1,16
 943 967 943 967 969 921 c 1,17,-1
 969 1536 l 1,18,-1
 1417 1536 l 1,19,-1
 1417 0 l 1,20,-1
 969 0 l 1,21,-1
 969 209 l 1,22,23
 942 153 942 153 900.5 108.5 c 128,-1,24
 859 64 859 64 808 33 c 128,-1,25
 757 2 757 2 699.5 -15 c 128,-1,26
 642 -32 642 -32 582 -32 c 256,0,1
772 266 m 0,27,28
 811 266 811 266 847 281 c 128,-1,29
 883 296 883 296 910 328.5 c 128,-1,30
 937 361 937 361 953 413.5 c 128,-1,31
 969 466 969 466 969 541 c 2,32,-1
 969 559 l 2,33,34
 969 637 969 637 953 691 c 128,-1,35
 937 745 937 745 910 778.5 c 128,-1,36
 883 812 883 812 847 827.5 c 128,-1,37
 811 843 811 843 771 843 c 0,38,39
 753 843 753 843 729.5 841.5 c 128,-1,40
 706 840 706 840 681.5 831.5 c 128,-1,41
 657 823 657 823 634 805.5 c 128,-1,42
 611 788 611 788 593 756 c 128,-1,43
 575 724 575 724 564 675 c 128,-1,44
 553 626 553 626 553 555 c 0,45,46
 553 489 553 489 564 442 c 128,-1,47
 575 395 575 395 593 363 c 128,-1,48
 611 331 611 331 634.5 311.5 c 128,-1,49
 658 292 658 292 682.5 282 c 128,-1,50
 707 272 707 272 730 269 c 128,-1,51
 753 266 753 266 772 266 c 0,27,28
EndSplineSet
EndChar

StartChar: e
Encoding: 69 101 65
Width: 1309
Flags: W
HStem: -32 281.117<616.585 1046.54> 487 144<539 743.498> 896 226<619.015 851.226>
VStem: 95 444<325.783 487 631 779.539> 887 296<692.366 860.419>
DStem2: 926.352 259.504 945 -10 0.958232 0.285993<-173.463 153.346>
LayerCount: 2
Fore
SplineSet
1151 332 m 0,0,-1
 1151 43 l 1,1,2
 1058 12 1058 12 945 -10 c 128,-1,3
 832 -32 832 -32 711 -32 c 0,4,5
 588 -32 588 -32 476 2.5 c 128,-1,6
 364 37 364 37 279.5 109.5 c 128,-1,7
 195 182 195 182 145 293 c 128,-1,8
 95 404 95 404 95 557 c 0,9,10
 95 653 95 653 121.5 732 c 128,-1,11
 148 811 148 811 194 873.5 c 128,-1,12
 240 936 240 936 301.5 982.5 c 128,-1,13
 363 1029 363 1029 433 1059.5 c 128,-1,14
 503 1090 503 1090 578 1106 c 128,-1,15
 653 1122 653 1122 725 1122 c 0,16,17
 835 1122 835 1122 920 1093 c 128,-1,18
 1005 1064 1005 1064 1063.5 1019.5 c 128,-1,19
 1122 975 1122 975 1152.5 919 c 128,-1,20
 1183 863 1183 863 1183 807 c 0,21,22
 1183 710 1183 710 1143 643 c 128,-1,23
 1103 576 1103 576 1039.5 544 c 128,-1,24
 976 512 976 512 899.5 492 c 128,-1,25
 823 472 823 472 745 472 c 0,26,27
 697 472 697 472 639 476.5 c 128,-1,28
 581 481 581 481 539 487 c 1,29,30
 539 450 539 450 566 364 c 0,31,32
 580.642857143 315.887755102 580.642857143 315.887755102 616 294 c 0,33,34
 660.206677924 266.633961285 660.206677924 266.633961285 686 262 c 0,35,36
 763.698806636 249.136426866 763.698806636 249.136426866 789.049804688 249.1171875 c 0,37,38
 857.029631755 249.049359415 857.029631755 249.049359415 926.352340292 259.503744649 c 128,-1,39
 995.675048828 269.958129883 995.675048828 269.958129883 1151 332 c 0,0,-1
539 631 m 1,40,41
 562 632 562 632 596.5 634 c 128,-1,42
 631 636 631 636 670 641 c 128,-1,43
 709 646 709 646 747.5 655 c 128,-1,44
 786 664 786 664 817 678 c 128,-1,45
 848 692 848 692 867.5 713 c 128,-1,46
 887 734 887 734 887 764 c 0,47,48
 887 822 887 822 848 859 c 128,-1,49
 809 896 809 896 744 896 c 0,50,51
 712 896 712 896 677 885.5 c 128,-1,52
 642 875 642 875 612.5 846 c 128,-1,53
 583 817 583 817 562.5 765.5 c 128,-1,54
 542 714 542 714 539 631 c 1,40,41
EndSplineSet
EndChar

StartChar: f
Encoding: 70 102 66
Width: 1022
Flags: MW
HStem: 0 21G<224 640> 832 247<53 222.5 640 928> 1079 201<789 958.5> 1280 288<672.879 941.256>
VStem: 224 416<0 832 1079 1105>
LayerCount: 2
Fore
SplineSet
640 0 m 1,0,-1
 224 0 l 1,1,-1
 224 832 l 1,2,-1
 53 832 l 1,3,-1
 51.5 1079 l 1,4,-1
 222.5 1079 l 1,5,-1
 224 1119 l 2,6,7
 229.197909284 1257.61091425 229.197909284 1257.61091425 262.5 1332 c 0,8,9
 301 1418 301 1418 366 1470.5 c 128,-1,10
 431 1523 431 1523 515 1545.5 c 128,-1,11
 599 1568 599 1568 691 1568 c 0,12,13
 779 1568 779 1568 854 1549 c 128,-1,14
 929 1530 929 1530 992 1504 c 1,15,-1
 960 1247 l 1,16,17
 931 1254 931 1254 907.5 1260 c 128,-1,18
 884 1266 884 1266 863.5 1270.5 c 128,-1,19
 843 1275 843 1275 825 1277.5 c 128,-1,20
 807 1280 807 1280 789 1280 c 0,21,22
 752 1280 752 1280 724 1271 c 128,-1,23
 696 1262 696 1262 677.5 1242 c 128,-1,24
 659 1222 659 1222 649.5 1188 c 0,25,26
 643.5625 1166.75 643.5625 1166.75 640 1105 c 2,27,-1
 638.5 1079 l 1,28,-1
 958.5 1079 l 1,29,30
 944.5 1013 944.5 1013 936.25 954.5 c 128,-1,31
 928 896 928 896 928 832 c 1,32,-1
 640 832 l 1,33,-1
 640 0 l 1,0,-1
EndSplineSet
EndChar

StartChar: h
Encoding: 72 104 67
Width: 1473
Flags: W
HStem: 0 21G<160 608 928 1376> 843 279<771 1044.5> 1516 20G<160 608>
VStem: 160 448<0 770.514 931 1536> 928 448<0 779.162>
LayerCount: 2
Fore
SplineSet
160 1536 m 1,0,-1
 608 1536 l 1,1,-1
 608 931 l 1,2,3
 637 975 637 975 681 1010 c 128,-1,4
 725 1045 725 1045 777.5 1069.5 c 128,-1,5
 830 1094 830 1094 889 1108 c 128,-1,6
 948 1122 948 1122 1007 1122 c 4,7,8
 1082 1122 1082 1122 1149 1097.5 c 128,-1,9
 1216 1073 1216 1073 1266.5 1020 c 128,-1,10
 1317 967 1317 967 1346.5 882.5 c 128,-1,11
 1376 798 1376 798 1376 677 c 2,12,-1
 1376 0 l 1,13,-1
 928 0 l 1,14,-1
 928 570 l 2,15,16
 928 645 928 645 915.5 697 c 128,-1,17
 903 749 903 749 883 781.5 c 128,-1,18
 863 814 863 814 837.5 828.5 c 128,-1,19
 812 843 812 843 786 843 c 0,20,21
 756 843 756 843 726.5 829.5 c 128,-1,22
 697 816 697 816 673 793 c 128,-1,23
 649 770 649 770 631.5 739 c 128,-1,24
 614 708 614 708 608 673 c 1,25,-1
 608 0 l 1,26,-1
 160 0 l 1,27,-1
 160 1536 l 1,0,-1
EndSplineSet
EndChar

StartChar: i
Encoding: 73 105 68
Width: 736
Flags: W
HStem: 0 21G<171 587> 1059 20G<171 587> 1301 323<188.159 576.84>
VStem: 108 549<1371.66 1559.79> 171 416<0 1079>
LayerCount: 2
Fore
SplineSet
171 1079 m 1,0,-1
 587 1079 l 1,1,-1
 587 0 l 1,2,-1
 171 0 l 1,3,-1
 171 1079 l 1,0,-1
381 1301 m 4,4,5
 324 1301 324 1301 274 1313 c 132,-1,6
 224 1325 224 1325 187.5 1346 c 132,-1,7
 151 1367 151 1367 129.5 1397 c 132,-1,8
 108 1427 108 1427 108 1463 c 4,9,10
 108 1503 108 1503 129 1533.5 c 132,-1,11
 150 1564 150 1564 187 1584 c 132,-1,12
 224 1604 224 1604 274 1614 c 132,-1,13
 324 1624 324 1624 382 1624 c 260,14,15
 440 1624 440 1624 490.5 1614 c 132,-1,16
 541 1604 541 1604 578 1584 c 132,-1,17
 615 1564 615 1564 636 1533.5 c 132,-1,18
 657 1503 657 1503 657 1463 c 4,19,20
 657 1427 657 1427 635.5 1397 c 132,-1,21
 614 1367 614 1367 577 1346 c 132,-1,22
 540 1325 540 1325 489.5 1313 c 132,-1,23
 439 1301 439 1301 381 1301 c 4,4,5
EndSplineSet
EndChar

StartChar: j
Encoding: 74 106 69
Width: 848
Flags: W
HStem: -416 288<1.97119 225.427> 1059 20G<256 704> 1318 323<285.159 673.84>
VStem: 205 549<1388.66 1576.79> 256 448<-97.4146 1079>
LayerCount: 2
Fore
SplineSet
288 -416 m 0,0,1
 209 -416 209 -416 136 -411.5 c 128,-1,2
 63 -407 63 -407 0 -384 c 1,3,-1
 0 -97 l 1,4,5
 24 -106 24 -106 41.5 -112 c 128,-1,6
 59 -118 59 -118 73.5 -121.5 c 128,-1,7
 88 -125 88 -125 100.5 -126.5 c 128,-1,8
 113 -128 113 -128 128 -128 c 0,9,10
 170 -128 170 -128 195.5 -111.5 c 128,-1,11
 221 -95 221 -95 234.5 -68 c 128,-1,12
 248 -41 248 -41 252 -6 c 128,-1,13
 256 29 256 29 256 67 c 2,14,-1
 256 1079 l 1,15,-1
 704 1079 l 1,16,-1
 704 44 l 2,17,18
 704 -88 704 -88 670.5 -176.5 c 128,-1,19
 637 -265 637 -265 580 -318 c 128,-1,20
 523 -371 523 -371 447.5 -393.5 c 128,-1,21
 372 -416 372 -416 288 -416 c 0,0,1
478 1318 m 0,22,23
 421 1318 421 1318 371 1330 c 128,-1,24
 321 1342 321 1342 284.5 1363 c 128,-1,25
 248 1384 248 1384 226.5 1414 c 128,-1,26
 205 1444 205 1444 205 1480 c 0,27,28
 205 1520 205 1520 226 1550.5 c 128,-1,29
 247 1581 247 1581 284 1601 c 128,-1,30
 321 1621 321 1621 371 1631 c 128,-1,31
 421 1641 421 1641 479 1641 c 256,32,33
 537 1641 537 1641 587.5 1631 c 128,-1,34
 638 1621 638 1621 675 1601 c 128,-1,35
 712 1581 712 1581 733 1550.5 c 128,-1,36
 754 1520 754 1520 754 1480 c 0,37,38
 754 1444 754 1444 732.5 1414 c 128,-1,39
 711 1384 711 1384 674 1363 c 128,-1,40
 637 1342 637 1342 586.5 1330 c 128,-1,41
 536 1318 536 1318 478 1318 c 0,22,23
EndSplineSet
EndChar

StartChar: l
Encoding: 76 108 70
Width: 832
Flags: MW
HStem: 0 21G<192 640> 1516 20G<192 640>
VStem: 192 448<1536 1536>
LayerCount: 2
Fore
SplineSet
192 1536 m 5,0,-1
 640 1536 l 5,1,-1
 640 0 l 1,2,-1
 192 0 l 1,3,-1
 192 1536 l 5,0,-1
EndSplineSet
EndChar

StartChar: m
Encoding: 77 109 71
Width: 2304
Flags: W
HStem: 0 21G<169.963 608 959.929 1376 1727.93 2135> 838.003 284<781.5 1010.5 1531.05 1784>
VStem: 170 438<0 773.642 877.75 1079> 960 416<0 757.131> 1728 407<0 763.071>
LayerCount: 2
Fore
SplineSet
168 1079.00292969 m 1,0,-1
 613 1079.00292969 l 1,1,2
 596 1022.00292969 596 1022.00292969 589.5 977.002929688 c 128,-1,3
 583 932.002929688 583 932.002929688 583 876.002929688 c 1,4,5
 609 925.002929688 609 925.002929688 653.5 968.502929688 c 128,-1,6
 698 1012.00292969 698 1012.00292969 752.5 1044.50292969 c 128,-1,7
 807 1077.00292969 807 1077.00292969 867.5 1099.50292969 c 128,-1,8
 928 1122.00292969 928 1122.00292969 986 1122.00292969 c 0,9,10
 1035 1122.00292969 1035 1122.00292969 1083 1106.00292969 c 128,-1,11
 1131 1090.00292969 1131 1090.00292969 1173.5 1063.00292969 c 128,-1,12
 1216 1036.00292969 1216 1036.00292969 1252 993.502929688 c 128,-1,13
 1288 951.002929688 1288 951.002929688 1314 890.002929688 c 1,14,15
 1344 942.002929688 1344 942.002929688 1390 985.002929688 c 128,-1,16
 1436 1028.00292969 1436 1028.00292969 1493 1058.50292969 c 128,-1,17
 1550 1089.00292969 1550 1089.00292969 1613.5 1105.50292969 c 128,-1,18
 1677 1122.00292969 1677 1122.00292969 1742 1122.00292969 c 0,19,20
 1826 1122.00292969 1826 1122.00292969 1904 1097.50292969 c 128,-1,21
 1982 1073.00292969 1982 1073.00292969 2042 1019.00292969 c 128,-1,22
 2102 965.002929688 2102 965.002929688 2117.5 879.502929688 c 0,23,24
 2132.63446593 796.00568099 2132.63446593 796.00568099 2133 673.002929688 c 2,25,-1
 2135 0 l 1,26,-1
 1728 0 l 1,27,-1
 1726 564.002929688 l 2,28,29
 1725.7374571 638.040413035 1725.7374571 638.040413035 1713 688.502929688 c 0,30,31
 1700 740.002929688 1700 740.002929688 1678 773.002929688 c 128,-1,32
 1656 806.002929688 1656 806.002929688 1626.5 821.002929688 c 128,-1,33
 1597 836.002929688 1597 836.002929688 1565 836.002929688 c 0,34,35
 1535 836.002929688 1535 836.002929688 1501 821.002929688 c 128,-1,36
 1467 806.002929688 1467 806.002929688 1439 779.002929688 c 128,-1,37
 1411 752.002929688 1411 752.002929688 1392.5 714.002929688 c 0,38,39
 1373.85830465 675.708019324 1373.85830465 675.708019324 1374 631.002929688 c 2,40,-1
 1376 0 l 1,41,-1
 960 0 l 1,42,-1
 958 564.002929688 l 2,43,44
 957.730913863 639.885614454 957.730913863 639.885614454 942.5 691.002929688 c 0,45,46
 927 743.002929688 927 743.002929688 903.5 776.002929688 c 128,-1,47
 880 809.002929688 880 809.002929688 851.5 823.502929688 c 128,-1,48
 823 838.002929688 823 838.002929688 798 838.002929688 c 0,49,50
 765 838.002929688 765 838.002929688 730.5 824.502929688 c 128,-1,51
 696 811.002929688 696 811.002929688 668.5 788.002929688 c 128,-1,52
 641 765.002929688 641 765.002929688 623.5 734.002929688 c 128,-1,53
 605.895775791 702.81396817 605.895775791 702.81396817 606 668.002929688 c 2,54,-1
 608 0 l 1,55,-1
 170 0 l 1,56,-1
 168 1079.00292969 l 1,0,-1
EndSplineSet
EndChar

StartChar: n
Encoding: 78 110 72
Width: 1568
Flags: W
HStem: 0 21G<169 604 992 1440> 843 279<830.409 1093>
VStem: 169 435<0 756.701 882.747 1079> 992 448<0 773.598>
LayerCount: 2
Fore
SplineSet
169 1079 m 1,0,-1
 616 1079 l 1,1,2
 598 1023 598 1023 592 980 c 128,-1,3
 586 937 586 937 586 881 c 1,4,5
 620 936 620 936 671 980.5 c 128,-1,6
 722 1025 722 1025 783.5 1056 c 128,-1,7
 845 1087 845 1087 914.5 1104.5 c 128,-1,8
 984 1122 984 1122 1054 1122 c 0,9,10
 1132 1122 1132 1122 1202 1097.5 c 128,-1,11
 1272 1073 1272 1073 1325 1020.5 c 128,-1,12
 1378 968 1378 968 1409 883.5 c 128,-1,13
 1440 799 1440 799 1440 678 c 2,14,-1
 1440 0 l 1,15,-1
 992 0 l 1,16,-1
 992 570 l 2,17,18
 992 645 992 645 978.5 697 c 128,-1,19
 965 749 965 749 943 781.5 c 128,-1,20
 921 814 921 814 893 828.5 c 128,-1,21
 865 843 865 843 836 843 c 0,22,23
 798 843 798 843 761 829.5 c 128,-1,24
 724 816 724 816 690.5 793 c 128,-1,25
 657 770 657 770 634.5 739 c 128,-1,26
 612 708 612 708 604 673 c 1,27,-1
 604 0 l 1,28,-1
 169 0 l 1,29,-1
 169 1079 l 1,0,-1
EndSplineSet
EndChar

StartChar: o
Encoding: 79 111 73
Width: 1472
Flags: MW
HStem: -32 300<589.577 820.026> 268 561<705 705> 829 293<588.935 821.065>
VStem: 65 448<352.749 745.239> 513 384<555 555> 897 448<354.927 745.239>
LayerCount: 2
Fore
SplineSet
705 -32 m 256,0,1
 583 -32 583 -32 488.5 -9 c 128,-1,2
 394 14 394 14 323 54.5 c 128,-1,3
 252 95 252 95 202.5 151 c 128,-1,4
 153 207 153 207 122.5 272.5 c 128,-1,5
 92 338 92 338 78.5 410.5 c 128,-1,6
 65 483 65 483 65 557 c 0,7,8
 65 628 65 628 78.5 698 c 128,-1,9
 92 768 92 768 122.5 830.5 c 128,-1,10
 153 893 153 893 202 946 c 128,-1,11
 251 999 251 999 322 1037.5 c 128,-1,12
 393 1076 393 1076 488 1099 c 128,-1,13
 583 1122 583 1122 705 1122 c 256,14,15
 827 1122 827 1122 922 1099 c 128,-1,16
 1017 1076 1017 1076 1088 1037.5 c 128,-1,17
 1159 999 1159 999 1208 946 c 128,-1,18
 1257 893 1257 893 1287.5 830.5 c 128,-1,19
 1318 768 1318 768 1331.5 698 c 128,-1,20
 1345 628 1345 628 1345 557 c 0,21,22
 1345 483 1345 483 1331.5 410.5 c 128,-1,23
 1318 338 1318 338 1287.5 272.5 c 128,-1,24
 1257 207 1257 207 1207.5 151 c 128,-1,25
 1158 95 1158 95 1087 54.5 c 128,-1,26
 1016 14 1016 14 921.5 -9 c 128,-1,27
 827 -32 827 -32 705 -32 c 256,0,1
705 268 m 256,28,29
 759 268 759 268 795.5 292.5 c 128,-1,30
 832 317 832 317 854.5 357.5 c 128,-1,31
 877 398 877 398 887 449.5 c 128,-1,32
 897 501 897 501 897 555 c 4,33,34
 897 606 897 606 887 655 c 128,-1,35
 877 704 877 704 854.5 743 c 128,-1,36
 832 782 832 782 795.5 805.5 c 128,-1,37
 759 829 759 829 705 829 c 256,38,39
 651 829 651 829 614.5 805.5 c 128,-1,40
 578 782 578 782 555.5 743 c 128,-1,41
 533 704 533 704 523 655 c 128,-1,42
 513 606 513 606 513 555 c 4,43,44
 513 501 513 501 522.5 449.5 c 128,-1,45
 532 398 532 398 554.5 357.5 c 128,-1,46
 577 317 577 317 614 292.5 c 128,-1,47
 651 268 651 268 705 268 c 256,28,29
EndSplineSet
EndChar

StartChar: p
Encoding: 80 112 74
Width: 1548
Flags: W
HStem: -32 298<759.477 1082.5> 843 279<779 1032> 1068 20G<160 616>
VStem: 160 448<-432 138 346.137 759.906 882.594 1088> 992 448<337.571 763.993>
LayerCount: 2
Fore
SplineSet
160 1088 m 1,0,-1
 616 1088 l 1,1,2
 599 1035 599 1035 592.5 983.5 c 128,-1,3
 586 932 586 932 586 881 c 1,4,5
 615 935 615 935 659.5 979 c 128,-1,6
 704 1023 704 1023 758 1054.5 c 128,-1,7
 812 1086 812 1086 871 1104 c 128,-1,8
 930 1122 930 1122 988 1122 c 4,9,10
 1076 1122 1076 1122 1157.5 1089 c 128,-1,11
 1239 1056 1239 1056 1302 988 c 128,-1,12
 1365 920 1365 920 1402.5 812.5 c 128,-1,13
 1440 705 1440 705 1440 555 c 0,14,15
 1440 447 1440 447 1421 361.5 c 128,-1,16
 1402 276 1402 276 1368.5 210.5 c 128,-1,17
 1335 145 1335 145 1290 99 c 128,-1,18
 1245 53 1245 53 1192.5 24 c 128,-1,19
 1140 -5 1140 -5 1082.5 -18.5 c 128,-1,20
 1025 -32 1025 -32 968 -32 c 0,21,22
 909 -32 909 -32 853.5 -19 c 128,-1,23
 798 -6 798 -6 750.5 17 c 128,-1,24
 703 40 703 40 666 71 c 128,-1,25
 629 102 629 102 608 138 c 1,26,-1
 608 -432 l 1,27,-1
 160 -432 l 1,28,-1
 160 1088 l 1,0,-1
794 266 m 0,29,30
 811 266 811 266 832.5 267.5 c 128,-1,31
 854 269 854 269 876 277.5 c 128,-1,32
 898 286 898 286 919 303.5 c 128,-1,33
 940 321 940 321 956 353.5 c 128,-1,34
 972 386 972 386 982 435 c 128,-1,35
 992 484 992 484 992 555 c 0,36,37
 992 654 992 654 971.5 711.5 c 128,-1,38
 951 769 951 769 921 798 c 128,-1,39
 891 827 891 827 857.5 835 c 128,-1,40
 824 843 824 843 798 843 c 0,41,42
 760 843 760 843 725.5 828 c 128,-1,43
 691 813 691 813 665 778.5 c 128,-1,44
 639 744 639 744 623.5 688 c 128,-1,45
 608 632 608 632 608 550 c 0,46,47
 608 472 608 472 623 418 c 128,-1,48
 638 364 638 364 663.5 330.5 c 128,-1,49
 689 297 689 297 722.5 281.5 c 128,-1,50
 756 266 756 266 794 266 c 0,29,30
EndSplineSet
EndChar

StartChar: q
Encoding: 81 113 75
Width: 1559
Flags: W
HStem: -32 298<599.523 792.482> 843 279<518 766.764> 1068 20G<940 1388>
VStem: 109 415<348.231 752.233> 940 448<-432 138 344.955 763.031 931 1088>
LayerCount: 2
Fore
SplineSet
940 -432 m 1,0,-1
 940 138 l 1,1,2
 919 100 919 100 882 68.5 c 128,-1,3
 845 37 845 37 797 14.5 c 128,-1,4
 749 -8 749 -8 693 -20 c 128,-1,5
 637 -32 637 -32 579 -32 c 0,6,7
 493 -32 493 -32 409 -2 c 128,-1,8
 325 28 325 28 258.5 96.5 c 128,-1,9
 192 165 192 165 150.5 277.5 c 128,-1,10
 109 390 109 390 109 555 c 0,11,12
 109 705 109 705 146.5 812.5 c 128,-1,13
 184 920 184 920 247 988 c 128,-1,14
 310 1056 310 1056 392 1089 c 128,-1,15
 474 1122 474 1122 562 1122 c 4,16,17
 620 1122 620 1122 675.5 1108.5 c 128,-1,18
 731 1095 731 1095 780.5 1071 c 128,-1,19
 830 1047 830 1047 871 1012 c 128,-1,20
 912 977 912 977 940 931 c 1,21,-1
 940 1088 l 1,22,-1
 1388 1088 l 1,23,-1
 1388 -432 l 1,24,-1
 940 -432 l 1,0,-1
755 266 m 0,25,26
 793 266 793 266 826.5 281.5 c 128,-1,27
 860 297 860 297 885.5 330.5 c 128,-1,28
 911 364 911 364 925.5 418 c 128,-1,29
 940 472 940 472 940 550 c 2,30,-1
 940 569 l 2,31,32
 940 644 940 644 924.5 696 c 128,-1,33
 909 748 909 748 883 780.5 c 128,-1,34
 857 813 857 813 822.5 828 c 128,-1,35
 788 843 788 843 751 843 c 0,36,37
 721 843 721 843 681.5 835 c 128,-1,38
 642 827 642 827 607 798 c 128,-1,39
 572 769 572 769 548 711.5 c 128,-1,40
 524 654 524 654 524 555 c 0,41,42
 524 484 524 484 535.5 435 c 128,-1,43
 547 386 547 386 565.5 353.5 c 128,-1,44
 584 321 584 321 608.5 303.5 c 128,-1,45
 633 286 633 286 658.5 277.5 c 128,-1,46
 684 269 684 269 709 267.5 c 128,-1,47
 734 266 734 266 755 266 c 0,25,26
EndSplineSet
EndChar

StartChar: r
Encoding: 82 114 76
Width: 1088
Flags: MW
HStem: 0 568<169 608> 0 21G<169 608> 568 251<576 608> 704 418<785.979 960.723> 1059 20G<169 580>
VStem: 169 439<0 649.405> 169 407<819 1079>
LayerCount: 2
Fore
SplineSet
169 1079 m 1,0,-1
 580 1079 l 1,1,2
 576 1028 576 1028 576 956.5 c 128,-1,3
 576 885 576 885 576 819 c 5,4,5
 578.205607477 819.551401869 578.205607477 819.551401869 652 932 c 0,6,7
 694 996 694 996 728 1030 c 0,8,9
 767.491178278 1071.81418877 767.491178278 1071.81418877 818 1094 c 0,10,11
 884.314744055 1122 884.314744055 1122 927 1122 c 0,12,13
 957 1122 957 1122 990 1112 c 128,-1,14
 1023 1102 1023 1102 1057 1088 c 1,15,-1
 992 640 l 1,16,17
 969 656 969 656 943.5 668 c 128,-1,18
 918 680 918 680 892.5 688 c 128,-1,19
 867 696 867 696 843 700 c 128,-1,20
 819 704 819 704 800 704 c 0,21,22
 754 704 754 704 720 691.5 c 128,-1,23
 686 679 686 679 663 659 c 128,-1,24
 640 639 640 639 626.5 615 c 128,-1,25
 613 591 613 591 608 568 c 5,26,-1
 608 0 l 1,27,-1
 169 0 l 1,28,-1
 169 1079 l 1,0,-1
EndSplineSet
EndChar

StartChar: s
Encoding: 83 115 77
Width: 1170
Flags: MW
HStem: -32 372<192 605> -32 297<281.975 687.283> 789 333<589 980> 866 256<589 906.769>
LayerCount: 2
Fore
SplineSet
605 -32 m 0,0,1
 496 -32 496 -32 390.5 -13.5 c 128,-1,2
 285 5 285 5 192 47 c 1,3,-1
 192 340 l 1,4,5
 232 323 232 323 280.5 309 c 128,-1,6
 329 295 329 295 379.5 285 c 128,-1,7
 430 275 430 275 480 270 c 128,-1,8
 530 265 530 265 574 265 c 0,9,10
 641 265 641 265 672.5 276 c 128,-1,11
 704 287 704 287 704 321 c 0,12,13
 704 341 704 341 680.5 357.5 c 128,-1,14
 657 374 657 374 619 390 c 128,-1,15
 581 406 581 406 532 423.5 c 128,-1,16
 483 441 483 441 432 464 c 128,-1,17
 381 487 381 487 332 517.5 c 128,-1,18
 283 548 283 548 245 589.5 c 128,-1,19
 207 631 207 631 183.5 685.5 c 128,-1,20
 160 740 160 740 160 811 c 0,21,22
 160 872 160 872 188.5 928 c 128,-1,23
 217 984 217 984 271.5 1027 c 128,-1,24
 326 1070 326 1070 406 1096 c 128,-1,25
 486 1122 486 1122 589 1122 c 0,26,27
 676 1122 676 1122 747 1112 c 128,-1,28
 818 1102 818 1102 871 1090 c 128,-1,29
 924 1078 924 1078 959 1065.5 c 128,-1,30
 994 1053 994 1053 1009 1046 c 1,31,-1
 980 789 l 1,32,33
 949 805 949 805 912.5 819 c 128,-1,34
 876 833 876 833 838.5 843.5 c 128,-1,35
 801 854 801 854 765.5 860 c 128,-1,36
 730 866 730 866 700 866 c 0,37,38
 631 866 631 866 603.5 851 c 128,-1,39
 576 836 576 836 576 800 c 0,40,41
 576 780 576 780 590 765 c 128,-1,42
 604 750 604 750 628 737 c 128,-1,43
 652 724 652 724 684.5 712 c 128,-1,44
 717 700 717 700 755 686 c 0,45,46
 802 668 802 668 855 639 c 128,-1,47
 908 610 908 610 952.5 565 c 128,-1,48
 997 520 997 520 1026.5 455.5 c 128,-1,49
 1056 391 1056 391 1056 302 c 0,50,51
 1056 237 1056 237 1029 177 c 128,-1,52
 1002 117 1002 117 946 70.5 c 128,-1,53
 890 24 890 24 805 -4 c 128,-1,54
 720 -32 720 -32 605 -32 c 0,0,1
EndSplineSet
EndChar

StartChar: t
Encoding: 84 116 78
Width: 1075
Flags: W
HStem: -32 306<630.578 963.484> 23 282<815.357 971.22> 832 247<640 928> 1388 20G<461.602 640>
VStem: 224 416<310.75 832>
LayerCount: 2
Fore
SplineSet
677 -32 m 0,0,1
 585 -32 585 -32 503 -9 c 128,-1,2
 421 14 421 14 359 68 c 128,-1,3
 297 122 297 122 260.5 211 c 128,-1,4
 224 300 224 300 224 432 c 2,5,-1
 224 832 l 1,6,-1
 9 832 l 1,7,-1
 9 896 l 1,8,-1
 480 1408 l 1,9,-1
 640 1408 l 1,10,-1
 640 1079 l 5,11,-1
 960 1079 l 5,12,13
 947 1011 947 1011 937.5 955 c 128,-1,14
 928 899 928 899 928 832 c 1,15,-1
 640 832 l 1,16,-1
 640 456 l 2,17,18
 640 420 640 420 645.5 387 c 128,-1,19
 651 354 651 354 668 329 c 128,-1,20
 685 304 685 304 717 289 c 128,-1,21
 749 274 749 274 802 274 c 0,22,23
 836 274 836 274 877 281 c 128,-1,24
 918 288 918 288 970 305 c 1,25,-1
 994 23 l 1,26,27
 931 0 931 0 849 -16 c 128,-1,28
 767 -32 767 -32 677 -32 c 0,0,1
EndSplineSet
EndChar

StartChar: u
Encoding: 85 117 79
Width: 1547
Flags: W
HStem: -32 299<465 737> 0 21G<921 1376>
VStem: 128 448<327.017 1079> 928 448<0 226.258 348.002 1079>
LayerCount: 2
Fore
SplineSet
1376 0 m 1,0,-1
 921 0 l 1,1,2
 932 34 932 34 941.5 87.5 c 128,-1,3
 951 141 951 141 951 229 c 1,4,5
 919 171 919 171 870 123 c 128,-1,6
 821 75 821 75 761.5 40.5 c 128,-1,7
 702 6 702 6 635.5 -13 c 128,-1,8
 569 -32 569 -32 502 -32 c 0,9,10
 428 -32 428 -32 360.5 -6 c 128,-1,11
 293 20 293 20 241 76 c 128,-1,12
 189 132 189 132 158.5 220 c 128,-1,13
 128 308 128 308 128 432 c 2,14,-1
 128 1079 l 5,15,-1
 576 1079 l 5,16,-1
 576 540 l 2,17,18
 576 465 576 465 587.5 413 c 128,-1,19
 599 361 599 361 619 328.5 c 128,-1,20
 639 296 639 296 665 281.5 c 128,-1,21
 691 267 691 267 720 267 c 0,22,23
 754 267 754 267 788.5 280.5 c 128,-1,24
 823 294 823 294 851.5 317 c 128,-1,25
 880 340 880 340 900.5 371 c 128,-1,26
 921 402 921 402 928 437 c 1,27,-1
 928 1079 l 1,28,-1
 1376 1079 l 1,29,-1
 1376 0 l 1,0,-1
EndSplineSet
EndChar

StartChar: v
Encoding: 86 118 80
Width: 1376
Flags: W
HStem: 0 21G<413.401 973.395>
LayerCount: 2
Fore
SplineSet
64 1079 m 1,0,-1
 549 1079 l 1,1,-1
 736 271 l 1,2,-1
 945 1079 l 1,3,-1
 1312 1079 l 1,4,-1
 967 0 l 1,5,-1
 420 0 l 1,6,-1
 64 1079 l 1,0,-1
EndSplineSet
EndChar

StartChar: w
Encoding: 87 119 81
Width: 2016
Flags: W
HStem: 0 261<323 907>
VStem: 64 460<619 1079>
DStem2: 685 261 907 0 0.193117 0.981176<0 495.978> 1316 1079 1033 698 0.214907 -0.976634<311.279 837.57>
LayerCount: 2
Fore
SplineSet
64 1079 m 1,0,-1
 524 1079 l 1,1,-1
 685 261 l 1,2,-1
 846 1079 l 1,3,-1
 1316 1079 l 1,4,-1
 1496 261 l 1,5,-1
 1610 1079 l 1,6,-1
 1952 1079 l 1,7,-1
 1728 0 l 1,8,-1
 1172 0 l 1,9,-1
 1033 698 l 1,10,-1
 907 0 l 1,11,-1
 323 0 l 1,12,-1
 64 1079 l 1,0,-1
EndSplineSet
EndChar

StartChar: braceleft
Encoding: 91 123 82
Width: 900
Flags: W
VStem: 250 450<224.733 545.752 962.811 1300.27>
LayerCount: 2
Fore
SplineSet
250 1055 m 0,0,1
 250 1172 250 1172 286 1277.5 c 128,-1,2
 322 1383 322 1383 392 1462.5 c 128,-1,3
 462 1542 462 1542 564.5 1589 c 128,-1,4
 667 1636 667 1636 800 1636 c 1,5,-1
 800 1409 l 1,6,7
 762 1409 762 1409 742 1386 c 128,-1,8
 722 1363 722 1363 712.5 1326 c 128,-1,9
 703 1289 703 1289 701.5 1241.5 c 128,-1,10
 700 1194 700 1194 700 1145 c 0,11,12
 700 1089 700 1089 682 1028.5 c 128,-1,13
 664 968 664 968 627 915 c 128,-1,14
 590 862 590 862 533.5 821 c 128,-1,15
 477 780 477 780 400 762 c 1,16,17
 477 743 477 743 533.5 699 c 128,-1,18
 590 655 590 655 627 597.5 c 128,-1,19
 664 540 664 540 682 475 c 128,-1,20
 700 410 700 410 700 350 c 0,21,22
 700 306 700 306 702 264 c 128,-1,23
 704 222 704 222 713 189 c 128,-1,24
 722 156 722 156 742 136 c 128,-1,25
 762 116 762 116 800 116 c 1,26,-1
 800 -111 l 1,27,28
 667 -111 667 -111 564.5 -64 c 128,-1,29
 462 -17 462 -17 392 62.5 c 128,-1,30
 322 142 322 142 286 247.5 c 128,-1,31
 250 353 250 353 250 470 c 0,32,33
 250 507 250 507 238 533 c 128,-1,34
 226 559 226 559 205.5 574.5 c 128,-1,35
 185 590 185 590 158 597 c 128,-1,36
 131 604 131 604 100 604 c 1,37,-1
 100 921 l 1,38,39
 131 921 131 921 158 928 c 128,-1,40
 185 935 185 935 205.5 950.5 c 128,-1,41
 226 966 226 966 238 991.5 c 128,-1,42
 250 1017 250 1017 250 1055 c 0,0,1
EndSplineSet
EndChar

StartChar: bar
Encoding: 92 124 83
Width: 800
Flags: W
VStem: 200 400<-100 1600>
LayerCount: 2
Fore
SplineSet
200 1600 m 1,0,-1
 600 1600 l 1,1,-1
 600 -100 l 1,2,-1
 200 -100 l 1,3,-1
 200 1600 l 1,0,-1
EndSplineSet
EndChar

StartChar: braceright
Encoding: 93 125 84
Width: 900
Flags: W
VStem: 198.5 451.5<224.733 543.851 964.744 1300.27>
LayerCount: 2
Fore
SplineSet
650 1055 m 0,0,1
 650 1017 650 1017 662 991.5 c 128,-1,2
 674 966 674 966 694.5 950.5 c 128,-1,3
 715 935 715 935 742 928 c 128,-1,4
 769 921 769 921 800 921 c 1,5,-1
 800 604 l 1,6,7
 769 604 769 604 742 597 c 128,-1,8
 715 590 715 590 694.5 574.5 c 128,-1,9
 674 559 674 559 662 533 c 128,-1,10
 650 507 650 507 650 470 c 0,11,12
 650 353 650 353 614 247.5 c 128,-1,13
 578 142 578 142 508 62.5 c 128,-1,14
 438 -17 438 -17 335.5 -64 c 128,-1,15
 233 -111 233 -111 100 -111 c 1,16,-1
 100 116 l 1,17,18
 137 116 137 116 157.5 136 c 128,-1,19
 178 156 178 156 187.5 189 c 128,-1,20
 197 222 197 222 198.5 264 c 128,-1,21
 200 306 200 306 200 350 c 0,22,23
 200 410 200 410 218 475 c 128,-1,24
 236 540 236 540 273 597.5 c 128,-1,25
 310 655 310 655 366.5 699 c 128,-1,26
 423 743 423 743 500 762 c 1,27,28
 423 780 423 780 366.5 821 c 128,-1,29
 310 862 310 862 273 915 c 128,-1,30
 236 968 236 968 218 1028.5 c 128,-1,31
 200 1089 200 1089 200 1145 c 0,32,33
 200 1194 200 1194 198.5 1241.5 c 128,-1,34
 197 1289 197 1289 187.5 1326 c 128,-1,35
 178 1363 178 1363 157.5 1386 c 128,-1,36
 137 1409 137 1409 100 1409 c 1,37,-1
 100 1636 l 1,38,39
 233 1636 233 1636 335.5 1589 c 128,-1,40
 438 1542 438 1542 508 1462.5 c 128,-1,41
 578 1383 578 1383 614 1277.5 c 128,-1,42
 650 1172 650 1172 650 1055 c 0,0,1
EndSplineSet
EndChar

StartChar: asciitilde
Encoding: 94 126 85
Width: 1400
Flags: W
HStem: 836 333<814.863 1069.53> 1027 333<346.347 579.131>
LayerCount: 2
Fore
SplineSet
885 836 m 0,0,1
 846 836 846 836 808.5 850 c 128,-1,2
 771 864 771 864 733.5 885.5 c 128,-1,3
 696 907 696 907 659.5 931.5 c 128,-1,4
 623 956 623 956 587 977.5 c 128,-1,5
 551 999 551 999 515.5 1013 c 128,-1,6
 480 1027 480 1027 445 1027 c 0,7,8
 388 1027 388 1027 345 994.5 c 128,-1,9
 302 962 302 962 285 893 c 1,10,-1
 55 976 l 1,11,12
 91 1075 91 1075 140 1147 c 128,-1,13
 189 1219 189 1219 248 1266.5 c 128,-1,14
 307 1314 307 1314 373.5 1337 c 128,-1,15
 440 1360 440 1360 509 1360 c 0,16,17
 547 1360 547 1360 585 1346 c 128,-1,18
 623 1332 623 1332 660.5 1310.5 c 128,-1,19
 698 1289 698 1289 734.5 1264.5 c 128,-1,20
 771 1240 771 1240 807 1218.5 c 128,-1,21
 843 1197 843 1197 878 1183 c 128,-1,22
 913 1169 913 1169 948 1169 c 0,23,24
 1004 1169 1004 1169 1045 1193.5 c 128,-1,25
 1086 1218 1086 1218 1103 1272 c 1,26,-1
 1334 1189 l 1,27,28
 1299 1098 1299 1098 1250 1031.5 c 128,-1,29
 1201 965 1201 965 1143 921.5 c 128,-1,30
 1085 878 1085 878 1019.5 857 c 128,-1,31
 954 836 954 836 885 836 c 0,0,1
EndSplineSet
EndChar

StartChar: AE
Encoding: 132 198 87
Width: 1824
Flags: W
HStem: 0 288<1248 1760> 288 256<576 832> 576 288<1248 1696> 1120 288<800 832 1248 1728>
VStem: 832 416<544 576 864 1120>
DStem2: 0 0 352 0 0.404088 0.91472<142.239 457.402 730.362 1114.56>
LayerCount: 2
Fore
SplineSet
1760 0 m 1,0,-1
 832 0 l 1,1,-1
 832 288 l 1,2,-1
 480 288 l 1,3,-1
 352 0 l 1,4,-1
 0 0 l 1,5,-1
 622 1408 l 1,6,-1
 1728 1408 l 1,7,-1
 1728 1120 l 1,8,-1
 1248 1120 l 1,9,-1
 1248 864 l 1,10,-1
 1696 864 l 1,11,-1
 1696 576 l 1,12,-1
 1248 576 l 1,13,-1
 1248 288 l 1,14,-1
 1760 288 l 1,15,-1
 1760 0 l 1,0,-1
800 1120 m 1,16,-1
 576 544 l 1,17,-1
 832 544 l 1,18,-1
 832 1120 l 1,19,-1
 800 1120 l 1,16,-1
EndSplineSet
EndChar

StartChar: Oslash
Encoding: 150 216 89
Width: 1600
Flags: W
HStem: -37 305<714.557 924.418> 1161 303<675.159 905>
VStem: 91 442<489.098 975.291> 1067 442<454.356 907.484>
DStem2: 255 -100 455 -200 0.467888 0.883788<5.19875 226.435 665.18 1261.32 1713 1923.54>
LayerCount: 2
Fore
SplineSet
800 1464 m 0,0,1
 873 1464 873 1464 937.5 1452.5 c 128,-1,2
 1002 1441 1002 1441 1060 1421 c 1,3,-1
 1155 1600 l 1,4,-1
 1355 1500 l 1,5,-1
 1254 1310 l 1,6,7
 1318 1256 1318 1256 1366 1188.5 c 128,-1,8
 1414 1121 1414 1121 1445.5 1044.5 c 128,-1,9
 1477 968 1477 968 1493 884.5 c 128,-1,10
 1509 801 1509 801 1509 717 c 0,11,12
 1509 623 1509 623 1493 530.5 c 128,-1,13
 1477 438 1477 438 1442 354 c 128,-1,14
 1407 270 1407 270 1351.5 198.5 c 128,-1,15
 1296 127 1296 127 1217 74.5 c 128,-1,16
 1138 22 1138 22 1034.5 -7.5 c 128,-1,17
 931 -37 931 -37 800 -37 c 0,18,19
 666 -37 666 -37 558 -5 c 1,20,-1
 455 -200 l 1,21,-1
 255 -100 l 1,22,-1
 357 93 l 1,23,24
 285 146 285 146 234.5 216.5 c 128,-1,25
 184 287 184 287 152 368 c 128,-1,26
 120 449 120 449 105.5 538 c 128,-1,27
 91 627 91 627 91 717 c 0,28,29
 91 810 91 810 110.5 902 c 128,-1,30
 130 994 130 994 168.5 1077 c 128,-1,31
 207 1160 207 1160 266 1231 c 128,-1,32
 325 1302 325 1302 403.5 1353.5 c 128,-1,33
 482 1405 482 1405 581 1434.5 c 128,-1,34
 680 1464 680 1464 800 1464 c 0,0,1
800 1161 m 0,35,36
 733 1161 733 1161 683 1123 c 128,-1,37
 633 1085 633 1085 599.5 1022.5 c 128,-1,38
 566 960 566 960 549.5 880 c 128,-1,39
 533 800 533 800 533 715 c 0,40,41
 533 655 533 655 541 597.5 c 128,-1,42
 549 540 549 540 566 488 c 1,43,-1
 906 1130 l 1,44,45
 883 1144 883 1144 856.5 1152.5 c 128,-1,46
 830 1161 830 1161 800 1161 c 0,35,36
800 268 m 0,47,48
 867 268 867 268 917 306.5 c 128,-1,49
 967 345 967 345 1000.5 407.5 c 128,-1,50
 1034 470 1034 470 1050.5 550.5 c 128,-1,51
 1067 631 1067 631 1067 715 c 0,52,53
 1067 818 1067 818 1043 910 c 1,54,-1
 713 288 l 1,55,56
 753 268 753 268 800 268 c 0,47,48
EndSplineSet
EndChar

StartChar: ae
Encoding: 164 230 100
Width: 2088
Flags: W
HStem: -45 251<520.986 866.399> -41 314<1341.06 1773.69> 437 197<571.763 858> 439 172<1278 1438.63 1442.69 1528.32> 810 335<424.135 810.094> 897 246<1354.23 1587.35>
VStem: 167 334<225.554 379.022> 1618 308<682.623 866.899>
LayerCount: 2
Fore
SplineSet
1462 -41 m 0,0,1
 1350 -41 1350 -41 1248 -11.5 c 128,-1,2
 1146 18 1146 18 1065 81 c 1,3,4
 1018 51 1018 51 961.5 27.5 c 128,-1,5
 905 4 905 4 844 -12 c 128,-1,6
 783 -28 783 -28 718.5 -36.5 c 128,-1,7
 654 -45 654 -45 591 -45 c 0,8,9
 510 -45 510 -45 433.5 -27.5 c 128,-1,10
 357 -10 357 -10 297.5 27 c 128,-1,11
 238 64 238 64 202.5 120 c 128,-1,12
 167 176 167 176 167 254 c 0,13,14
 167 336 167 336 191.5 396.5 c 128,-1,15
 216 457 216 457 257 499 c 128,-1,16
 298 541 298 541 352 567.5 c 128,-1,17
 406 594 406 594 464.5 608.5 c 128,-1,18
 523 623 523 623 583 628.5 c 128,-1,19
 643 634 643 634 697 634 c 0,20,21
 731 634 731 634 760 632.5 c 128,-1,22
 789 631 789 631 810.5 629.5 c 128,-1,23
 832 628 832 628 844.5 627 c 128,-1,24
 857 626 857 626 858 626 c 1,25,-1
 858 648 l 2,26,27
 858 693 858 693 842.5 724 c 128,-1,28
 827 755 827 755 801 774 c 128,-1,29
 775 793 775 793 739 801.5 c 128,-1,30
 703 810 703 810 663 810 c 0,31,32
 598 810 598 810 523.5 797.5 c 128,-1,33
 449 785 449 785 381 767 c 128,-1,34
 313 749 313 749 259 729 c 128,-1,35
 205 709 205 709 181 694 c 1,36,-1
 181 1002 l 1,37,38
 222 1029 222 1029 285.5 1054.5 c 128,-1,39
 349 1080 349 1080 423.5 1100 c 128,-1,40
 498 1120 498 1120 578 1132.5 c 128,-1,41
 658 1145 658 1145 732 1145 c 0,42,43
 838 1145 838 1145 934 1120.5 c 128,-1,44
 1030 1096 1030 1096 1105 1041 c 1,45,46
 1185 1092 1185 1092 1276 1117.5 c 128,-1,47
 1367 1143 1367 1143 1456 1143 c 0,48,49
 1568 1143 1568 1143 1655.5 1113 c 128,-1,50
 1743 1083 1743 1083 1803 1035 c 128,-1,51
 1863 987 1863 987 1894.5 927 c 128,-1,52
 1926 867 1926 867 1926 807 c 0,53,54
 1926 702 1926 702 1882.5 629.5 c 128,-1,55
 1839 557 1839 557 1769 512 c 128,-1,56
 1699 467 1699 467 1612.5 447 c 128,-1,57
 1526 427 1526 427 1440 427 c 0,58,59
 1396 427 1396 427 1356 430.5 c 128,-1,60
 1316 434 1316 434 1278 439 c 1,61,62
 1279 395 1279 395 1297.5 363.5 c 128,-1,63
 1316 332 1316 332 1348.5 312 c 128,-1,64
 1381 292 1381 292 1425 282.5 c 128,-1,65
 1469 273 1469 273 1521 273 c 0,66,67
 1560 273 1560 273 1605 278 c 128,-1,68
 1650 283 1650 283 1695 292.5 c 128,-1,69
 1740 302 1740 302 1782 315.5 c 128,-1,70
 1824 329 1824 329 1857 347 c 1,71,-1
 1907 53 l 1,72,73
 1806 8 1806 8 1694.5 -16.5 c 128,-1,74
 1583 -41 1583 -41 1462 -41 c 0,0,1
1276 611 m 1,75,76
 1301 612 1301 612 1336.5 615 c 128,-1,77
 1372 618 1372 618 1410 624 c 128,-1,78
 1448 630 1448 630 1485 640.5 c 128,-1,79
 1522 651 1522 651 1551.5 667.5 c 128,-1,80
 1581 684 1581 684 1599.5 707.5 c 128,-1,81
 1618 731 1618 731 1618 764 c 0,82,83
 1618 793 1618 793 1608.5 817.5 c 128,-1,84
 1599 842 1599 842 1581.5 859.5 c 128,-1,85
 1564 877 1564 877 1539.5 887 c 128,-1,86
 1515 897 1515 897 1485 897 c 256,87,88
 1455 897 1455 897 1422.5 889 c 128,-1,89
 1390 881 1390 881 1360.5 858.5 c 128,-1,90
 1331 836 1331 836 1308 797 c 128,-1,91
 1285 758 1285 758 1274 697 c 1,92,93
 1275 686 1275 686 1275.5 676 c 128,-1,94
 1276 666 1276 666 1276 655 c 2,95,-1
 1276 611 l 1,75,76
620 206 m 0,96,97
 675 206 675 206 728 215.5 c 128,-1,98
 781 225 781 225 822 237 c 128,-1,99
 863 249 863 249 889 259 c 128,-1,100
 915 269 915 269 917 270 c 1,101,102
 912 282 912 282 906.5 295 c 128,-1,103
 901 308 901 308 894 327 c 128,-1,104
 887 346 887 346 878.5 372.5 c 128,-1,105
 870 399 870 399 858 437 c 1,106,-1
 837 437 l 2,107,108
 778 437 778 437 718 429.5 c 128,-1,109
 658 422 658 422 610 407 c 128,-1,110
 562 392 562 392 531.5 369.5 c 128,-1,111
 501 347 501 347 501 317 c 256,112,113
 501 287 501 287 511 266 c 128,-1,114
 521 245 521 245 537.5 231.5 c 128,-1,115
 554 218 554 218 575.5 212 c 128,-1,116
 597 206 597 206 620 206 c 0,96,97
EndSplineSet
EndChar

StartChar: dotlessi
Encoding: 190 305 106
Width: 736
Flags: W
HStem: 0 21G<160 576> 1068 20G<160 576>
VStem: 160 416<0 1088>
LayerCount: 2
Fore
SplineSet
160 1088 m 1,0,-1
 576 1088 l 1,1,-1
 576 0 l 1,2,-1
 160 0 l 1,3,-1
 160 1088 l 1,0,-1
EndSplineSet
EndChar

StartChar: oslash
Encoding: 182 248 117
Width: 1500
Flags: W
HStem: -28 296<700.375 888.661> 849 298<611.168 800.625>
VStem: 107 403<372.676 739.187> 990 403<374.719 735.779>
DStem2: 294 -142 443 -215 0.457417 0.889252<3.23968 211.334 574.709 1079.89 1451.76 1540.31>
LayerCount: 2
Fore
SplineSet
750 1147 m 0,0,1
 805 1147 805 1147 853.5 1142 c 128,-1,2
 902 1137 902 1137 947 1128 c 1,3,-1
 1045 1318 l 1,4,-1
 1207 1232 l 1,5,-1
 1120 1067 l 1,6,7
 1195 1027 1195 1027 1247.5 970.5 c 128,-1,8
 1300 914 1300 914 1332 847.5 c 128,-1,9
 1364 781 1364 781 1378.5 707 c 128,-1,10
 1393 633 1393 633 1393 557 c 0,11,12
 1393 483 1393 483 1379 410.5 c 128,-1,13
 1365 338 1365 338 1334.5 273 c 128,-1,14
 1304 208 1304 208 1254.5 153 c 128,-1,15
 1205 98 1205 98 1133.5 57.5 c 128,-1,16
 1062 17 1062 17 967 -5.5 c 128,-1,17
 872 -28 872 -28 750 -28 c 0,18,19
 694 -28 694 -28 645 -23 c 128,-1,20
 596 -18 596 -18 551 -9 c 1,21,-1
 443 -215 l 1,22,-1
 294 -142 l 1,23,-1
 390 45 l 1,24,25
 312 84 312 84 258 140 c 128,-1,26
 204 196 204 196 170.5 263 c 128,-1,27
 137 330 137 330 122 405 c 128,-1,28
 107 480 107 480 107 557 c 0,29,30
 107 631 107 631 120.5 703.5 c 128,-1,31
 134 776 134 776 165 841.5 c 128,-1,32
 196 907 196 907 245.5 963 c 128,-1,33
 295 1019 295 1019 366 1060 c 128,-1,34
 437 1101 437 1101 532.5 1124 c 128,-1,35
 628 1147 628 1147 750 1147 c 0,0,1
750 849 m 0,36,37
 686 849 686 849 640.5 823.5 c 128,-1,38
 595 798 595 798 566 756.5 c 128,-1,39
 537 715 537 715 523.5 662.5 c 128,-1,40
 510 610 510 610 510 555 c 0,41,42
 510 504 510 504 521 456 c 128,-1,43
 532 408 532 408 557 369 c 1,44,-1
 801 844 l 1,45,46
 789 846 789 846 776.5 847.5 c 128,-1,47
 764 849 764 849 750 849 c 0,36,37
750 268 m 0,48,49
 814 268 814 268 860 292.5 c 128,-1,50
 906 317 906 317 934.5 357.5 c 128,-1,51
 963 398 963 398 976.5 449.5 c 128,-1,52
 990 501 990 501 990 555 c 0,53,54
 990 604 990 604 979.5 651 c 128,-1,55
 969 698 969 698 946 737 c 1,56,-1
 700 272 l 1,57,58
 712 270 712 270 724 269 c 128,-1,59
 736 268 736 268 750 268 c 0,48,49
EndSplineSet
EndChar

StartChar: oe
Encoding: 194 339 118
Width: 2100
Flags: W
HStem: -28 296<637.497 870.171 1469.3 1901.69> 439 172<1394 1566.62 1570.69 1655.84> 849 298<639.768 868.137> 897 246<1482.19 1715.35>
VStem: 107 443<365.19 748.129> 950 444<611 755.989> 1746 308<682.589 866.899>
LayerCount: 2
Fore
SplineSet
762 -28 m 0,0,1
 638 -28 638 -28 541.5 -5 c 128,-1,2
 445 18 445 18 372 58.5 c 128,-1,3
 299 99 299 99 248.5 155 c 128,-1,4
 198 211 198 211 166.5 276 c 128,-1,5
 135 341 135 341 121 412.5 c 128,-1,6
 107 484 107 484 107 557 c 0,7,8
 107 631 107 631 121 703.5 c 128,-1,9
 135 776 135 776 166 841.5 c 128,-1,10
 197 907 197 907 247.5 963 c 128,-1,11
 298 1019 298 1019 370.5 1060 c 128,-1,12
 443 1101 443 1101 540 1124 c 128,-1,13
 637 1147 637 1147 762 1147 c 0,14,15
 900 1147 900 1147 996.5 1106 c 128,-1,16
 1093 1065 1093 1065 1158 997 c 1,17,18
 1250 1071 1250 1071 1362 1107 c 128,-1,19
 1474 1143 1474 1143 1584 1143 c 0,20,21
 1696 1143 1696 1143 1783.5 1113 c 128,-1,22
 1871 1083 1871 1083 1931 1035 c 128,-1,23
 1991 987 1991 987 2022.5 927 c 128,-1,24
 2054 867 2054 867 2054 807 c 0,25,26
 2054 702 2054 702 2010.5 629.5 c 128,-1,27
 1967 557 1967 557 1897 512 c 128,-1,28
 1827 467 1827 467 1740.5 447 c 128,-1,29
 1654 427 1654 427 1568 427 c 0,30,31
 1524 427 1524 427 1478 430.5 c 128,-1,32
 1432 434 1432 434 1394 439 c 1,33,34
 1395 395 1395 395 1415.5 363.5 c 128,-1,35
 1436 332 1436 332 1470.5 312 c 128,-1,36
 1505 292 1505 292 1551 282.5 c 128,-1,37
 1597 273 1597 273 1649 273 c 0,38,39
 1688 273 1688 273 1733 278 c 128,-1,40
 1778 283 1778 283 1823 292.5 c 128,-1,41
 1868 302 1868 302 1910 315.5 c 128,-1,42
 1952 329 1952 329 1985 347 c 1,43,-1
 2035 53 l 1,44,45
 1934 8 1934 8 1822.5 -16.5 c 128,-1,46
 1711 -41 1711 -41 1590 -41 c 0,47,48
 1462 -41 1462 -41 1347.5 -7 c 128,-1,49
 1233 27 1233 27 1145 100 c 1,50,51
 1079 41 1079 41 986 6.5 c 128,-1,52
 893 -28 893 -28 762 -28 c 0,0,1
758 268 m 0,53,54
 810 268 810 268 846.5 292.5 c 128,-1,55
 883 317 883 317 906 357.5 c 128,-1,56
 929 398 929 398 939.5 449.5 c 128,-1,57
 950 501 950 501 950 555 c 0,58,59
 950 610 950 610 939 662.5 c 128,-1,60
 928 715 928 715 905 756.5 c 128,-1,61
 882 798 882 798 845.5 823.5 c 128,-1,62
 809 849 809 849 758 849 c 0,63,64
 704 849 704 849 664.5 823.5 c 128,-1,65
 625 798 625 798 599.5 756.5 c 128,-1,66
 574 715 574 715 562 662.5 c 128,-1,67
 550 610 550 610 550 555 c 0,68,69
 550 501 550 501 562 449.5 c 128,-1,70
 574 398 574 398 599 357.5 c 128,-1,71
 624 317 624 317 663.5 292.5 c 128,-1,72
 703 268 703 268 758 268 c 0,53,54
1394 611 m 1,73,74
 1418 612 1418 612 1453 614.5 c 128,-1,75
 1488 617 1488 617 1527.5 622.5 c 128,-1,76
 1567 628 1567 628 1606 638.5 c 128,-1,77
 1645 649 1645 649 1676 665.5 c 128,-1,78
 1707 682 1707 682 1726.5 706 c 128,-1,79
 1746 730 1746 730 1746 764 c 0,80,81
 1746 793 1746 793 1736.5 817.5 c 128,-1,82
 1727 842 1727 842 1709.5 859.5 c 128,-1,83
 1692 877 1692 877 1667.5 887 c 128,-1,84
 1643 897 1643 897 1613 897 c 0,85,86
 1578 897 1578 897 1540.5 886 c 128,-1,87
 1503 875 1503 875 1471.5 843.5 c 128,-1,88
 1440 812 1440 812 1418.5 756 c 128,-1,89
 1397 700 1397 700 1394 611 c 1,73,74
EndSplineSet
EndChar

StartChar: germandbls
Encoding: 157 223 119
Width: 1551
Flags: W
HStem: -50 250<767 980.889> 0 21G<199.98 661.02> 582 246<783 953.158> 1165 261<709.831 977.429>
VStem: 200 461<0 1115.06> 1020 357<920.566 1120.32> 1094 427<292.279 495.501>
LayerCount: 2
Fore
SplineSet
648 0 m 1,0,-1
 200 0 l 1,1,-1
 199 993 l 2,2,3
 198.909595739 1082.77143074 198.909595739 1082.77143074 225.5 1150 c 0,4,5
 252 1217 252 1217 297.5 1265 c 128,-1,6
 343 1313 343 1313 403.5 1344.5 c 128,-1,7
 464 1376 464 1376 531.5 1394 c 128,-1,8
 599 1412 599 1412 674 1419 c 128,-1,9
 749 1426 749 1426 815 1426 c 4,10,11
 966 1426 966 1426 1074.5 1395.5 c 132,-1,12
 1183 1365 1183 1365 1252.5 1315.5 c 132,-1,13
 1322 1266 1322 1266 1354.5 1203 c 132,-1,14
 1387 1140 1387 1140 1387 1074 c 4,15,16
 1387 1026 1387 1026 1370.5 979.5 c 132,-1,17
 1354 933 1354 933 1323 892 c 132,-1,18
 1292 851 1292 851 1247 817.5 c 132,-1,19
 1202 784 1202 784 1144 762 c 5,20,21
 1237 752 1237 752 1309 719 c 132,-1,22
 1381 686 1381 686 1430.5 637.5 c 132,-1,23
 1480 589 1480 589 1505.5 529 c 132,-1,24
 1531 469 1531 469 1531 405 c 4,25,26
 1531 323 1531 323 1487 242 c 132,-1,27
 1443 161 1443 161 1350.5 96 c 132,-1,28
 1258 31 1258 31 1115.5 -9.5 c 132,-1,29
 973 -50 973 -50 777 -50 c 5,30,-1
 777 200 l 5,31,32
 859 200 859 200 920 216.5 c 132,-1,33
 981 233 981 233 1022 260.5 c 132,-1,34
 1063 288 1063 288 1083.5 323 c 132,-1,35
 1104 358 1104 358 1104 394 c 4,36,37
 1104 429 1104 429 1084.5 463 c 132,-1,38
 1065 497 1065 497 1026 523.5 c 132,-1,39
 987 550 987 550 928.5 566 c 132,-1,40
 870 582 870 582 793 582 c 5,41,-1
 793 828 l 5,42,43
 855 828 855 828 900 842.5 c 132,-1,44
 945 857 945 857 974 880.5 c 132,-1,45
 1003 904 1003 904 1016.5 934 c 132,-1,46
 1030 964 1030 964 1030 995 c 4,47,48
 1030 1073 1030 1073 989 1119 c 132,-1,49
 948 1165 948 1165 867 1165 c 4,50,51
 764 1165 764 1165 706.5392349 1119.03872526 c 128,-1,52
 649.0784698 1073.07745052 649.0784698 1073.07745052 649 995 c 2,53,-1
 648 0 l 1,0,-1
EndSplineSet
EndChar

StartChar: fi
Encoding: 243 64257 125
Width: 1752
Flags: W
HStem: 0 21G<232 656 1200 1600> 832 256<79 232 656 1200> 1243 338<1202 1611> 1280 287<684.469 965.115>
VStem: 232 424<0 832 1088 1251.97> 1132 549<1305.82 1515.88> 1200 400<0 832>
LayerCount: 2
Fore
SplineSet
656 0 m 1,0,-1
 232 0 l 1,1,-1
 232 832 l 1,2,-1
 79 832 l 1,3,-1
 79 1088 l 1,4,-1
 232 1088 l 1,5,-1
 232 1119 l 2,6,7
 232 1246 232 1246 270.5 1331.5 c 128,-1,8
 309 1417 309 1417 374 1469.5 c 128,-1,9
 439 1522 439 1522 523 1544.5 c 128,-1,10
 607 1567 607 1567 699 1567 c 0,11,12
 787 1567 787 1567 866 1549.5 c 128,-1,13
 945 1532 945 1532 1008 1506 c 1,14,-1
 987 1247 l 1,15,16
 928 1261 928 1261 881 1270.5 c 128,-1,17
 834 1280 834 1280 797 1280 c 256,18,19
 760 1280 760 1280 733.5 1271 c 128,-1,20
 707 1262 707 1262 689.5 1242 c 128,-1,21
 672 1222 672 1222 664 1188 c 128,-1,22
 656 1154 656 1154 656 1105 c 2,23,-1
 656 1088 l 1,24,-1
 1600 1088 l 1,25,-1
 1600 0 l 1,26,-1
 1200 0 l 1,27,-1
 1200 832 l 1,28,-1
 656 832 l 1,29,-1
 656 0 l 1,0,-1
1405 1243 m 0,30,31
 1348 1243 1348 1243 1298 1252.5 c 128,-1,32
 1248 1262 1248 1262 1211.5 1281.5 c 128,-1,33
 1175 1301 1175 1301 1153.5 1330.5 c 128,-1,34
 1132 1360 1132 1360 1132 1401 c 0,35,36
 1132 1452 1132 1452 1153 1486.5 c 128,-1,37
 1174 1521 1174 1521 1211 1542 c 128,-1,38
 1248 1563 1248 1563 1298 1572 c 128,-1,39
 1348 1581 1348 1581 1406 1581 c 256,40,41
 1464 1581 1464 1581 1514.5 1572 c 128,-1,42
 1565 1563 1565 1563 1602 1542 c 128,-1,43
 1639 1521 1639 1521 1660 1486.5 c 128,-1,44
 1681 1452 1681 1452 1681 1401 c 0,45,46
 1681 1360 1681 1360 1659.5 1330.5 c 128,-1,47
 1638 1301 1638 1301 1601 1281.5 c 128,-1,48
 1564 1262 1564 1262 1513.5 1252.5 c 128,-1,49
 1463 1243 1463 1243 1405 1243 c 0,30,31
EndSplineSet
EndChar

StartChar: fl
Encoding: 244 64258 126
Width: 1748
Flags: W
HStem: 0 21G<232 656 1200 1600> 832 256<79 232 656 954> 1280 286<684.674 1200>
VStem: 232 424<0 832 1088 1251.97> 1200 400<0 1280>
LayerCount: 2
Fore
SplineSet
1600 1566 m 1,0,-1
 1600 0 l 1,1,-1
 1200 0 l 1,2,-1
 1200 1280 l 1,3,-1
 797 1280 l 2,4,5
 760 1280 760 1280 733.5 1271 c 128,-1,6
 707 1262 707 1262 689.5 1242 c 128,-1,7
 672 1222 672 1222 664 1188 c 128,-1,8
 656 1154 656 1154 656 1105 c 2,9,-1
 656 1088 l 1,10,-1
 979 1088 l 1,11,12
 965 1022 965 1022 959.5 959 c 128,-1,13
 954 896 954 896 954 832 c 1,14,-1
 656 832 l 1,15,-1
 656 0 l 1,16,-1
 232 0 l 1,17,-1
 232 832 l 1,18,-1
 79 832 l 1,19,-1
 79 1088 l 1,20,-1
 232 1088 l 1,21,-1
 232 1119 l 2,22,23
 232 1246 232 1246 270.5 1331.5 c 128,-1,24
 309 1417 309 1417 374 1469.5 c 128,-1,25
 439 1522 439 1522 523 1544 c 128,-1,26
 607 1566 607 1566 699 1566 c 2,27,-1
 1600 1566 l 1,0,-1
EndSplineSet
EndChar

StartChar: ff
Encoding: 242 64256 127
Width: 1779
Flags: W
HStem: 0 21G<224 640 963.8 1379.8> 832 256<53 224 640 963.8 1379.8 1667.8> 1280 288<672.879 912.24 1412.68 1681.06>
VStem: 224 416<0 832 1088 1248.9> 963.8 416<0 832 1088 1248.9>
LayerCount: 2
Fore
SplineSet
789 1280 m 24,0,1
 752 1280 752 1280 724 1271 c 128,-1,2
 696 1262 696 1262 677.5 1242 c 128,-1,3
 659 1222 659 1222 649.5 1188 c 128,-1,4
 640 1154 640 1154 640 1105 c 2,5,-1
 640 1088 l 1,6,-1
 792.799804688 1088 l 1,7,-1
 960 1088 l 1,8,-1
 963.799804688 1088 l 1,9,-1
 963.799804688 1119 l 2,10,11
 963.799804688 1246 963.799804688 1246 1002.29980469 1332 c 128,-1,12
 1040.79980469 1418 1040.79980469 1418 1105.79980469 1470.5 c 128,-1,13
 1170.79980469 1523 1170.79980469 1523 1254.79980469 1545.5 c 128,-1,14
 1338.79980469 1568 1338.79980469 1568 1430.79980469 1568 c 0,15,16
 1518.79980469 1568 1518.79980469 1568 1593.79980469 1549 c 128,-1,17
 1668.79980469 1530 1668.79980469 1530 1731.79980469 1504 c 1,18,-1
 1699.79980469 1247 l 1,19,20
 1670.79980469 1254 1670.79980469 1254 1647.29980469 1260 c 128,-1,21
 1623.79980469 1266 1623.79980469 1266 1603.29980469 1270.5 c 128,-1,22
 1582.79980469 1275 1582.79980469 1275 1564.79980469 1277.5 c 128,-1,23
 1546.79980469 1280 1546.79980469 1280 1528.79980469 1280 c 0,24,25
 1491.79980469 1280 1491.79980469 1280 1463.79980469 1271 c 128,-1,26
 1435.79980469 1262 1435.79980469 1262 1417.29980469 1242 c 128,-1,27
 1398.79980469 1222 1398.79980469 1222 1389.29980469 1188 c 128,-1,28
 1379.79980469 1154 1379.79980469 1154 1379.79980469 1105 c 2,29,-1
 1379.79980469 1088 l 1,30,-1
 1699.79980469 1088 l 1,31,32
 1685.79980469 1022 1685.79980469 1022 1676.79980469 959 c 128,-1,33
 1667.79980469 896 1667.79980469 896 1667.79980469 832 c 1,34,-1
 1379.79980469 832 l 1,35,-1
 1379.79980469 0 l 1,36,-1
 963.799804688 0 l 1,37,-1
 963.799804688 832 l 1,38,-1
 928 832 l 1,39,-1
 792.799804688 832 l 1,40,-1
 640 832 l 1,41,-1
 640 0 l 1,42,-1
 224 0 l 1,43,-1
 224 832 l 1,44,-1
 53 832 l 1,45,-1
 53 1088 l 1,46,-1
 224 1088 l 1,47,-1
 224 1119 l 2,48,49
 224 1246 224 1246 262.5 1332 c 128,-1,50
 301 1418 301 1418 366 1470.5 c 128,-1,51
 431 1523 431 1523 515 1545.5 c 128,-1,52
 599 1568 599 1568 691 1568 c 0,53,54
 779 1568 779 1568 838.5 1549 c 128,-1,55
 898 1530 898 1530 961 1504 c 1,56,-1
 929 1247 l 1,57,58
 837.165101129 1280 837.165101129 1280 789 1280 c 24,0,1
EndSplineSet
EndChar

StartChar: acute
Encoding: 114 180 131
Width: 600
Flags: W
HStem: 1218.8 634<224 416>
VStem: 128 544
LayerCount: 2
Fore
SplineSet
128 1218.79980469 m 1,0,-1
 224 1852.79980469 l 1,1,-1
 672 1852.79980469 l 1,2,-1
 416 1218.79980469 l 1,3,-1
 128 1218.79980469 l 1,0,-1
EndSplineSet
EndChar

StartChar: circumflex
Encoding: 201 710 132
Width: 1100
Flags: W
HStem: 1248 544<300 420.945 678.959 800>
LayerCount: 2
Fore
SplineSet
700 1248 m 1,0,1
 680 1295 680 1295 641.5 1400.70019531 c 128,-1,2
 603 1506.40039062 603 1506.40039062 550 1600.40039062 c 5,3,4
 496 1506.40039062 496 1506.40039062 458 1400.70019531 c 128,-1,5
 420 1295 420 1295 400 1248 c 1,6,-1
 100 1248 l 1,7,-1
 300 1792 l 1,8,-1
 800 1792 l 1,9,-1
 1000 1248 l 1,10,-1
 700 1248 l 1,0,1
EndSplineSet
EndChar

StartChar: caron
Encoding: 202 711 133
Width: 1100
Flags: W
HStem: 1248 544<288 403.723 684.277 800>
LayerCount: 2
Fore
SplineSet
544 1411 m 1,0,1
 609.939076063 1584.29802013 609.939076063 1584.29802013 614 1593 c 0,2,3
 628 1623 628 1623 642 1653.5 c 128,-1,4
 656 1684 656 1684 668 1711 c 128,-1,5
 680 1738 680 1738 689.5 1759 c 128,-1,6
 699 1780 699 1780 704 1792 c 1,7,-1
 993 1792 l 1,8,-1
 800 1248 l 1,9,-1
 288 1248 l 1,10,-1
 95 1792 l 1,11,-1
 384 1792 l 1,12,13
 389 1780 389 1780 398.5 1759 c 128,-1,14
 408 1738 408 1738 420 1711 c 0,15,16
 443.502582062 1658.11919036 443.502582062 1658.11919036 446 1653.5 c 0,17,18
 468.969736757 1611.0154863 468.969736757 1611.0154863 474 1593 c 0,19,20
 516.432128412 1462.47449591 516.432128412 1462.47449591 544 1411 c 1,0,1
EndSplineSet
EndChar

StartChar: tilde
Encoding: 207 732 134
Width: 1436
Flags: W
HStem: 1245 290<721.844 934.971> 1386 290<399.675 599.423>
LayerCount: 2
Fore
SplineSet
851 1245 m 0,0,1
 802 1245 802 1245 751.5 1267 c 128,-1,2
 701 1289 701 1289 650.5 1315.5 c 128,-1,3
 600 1342 600 1342 551.5 1364 c 128,-1,4
 503 1386 503 1386 458 1386 c 0,5,6
 425 1386 425 1386 403 1354 c 128,-1,7
 381 1322 381 1322 375 1250 c 1,8,-1
 140 1300 l 1,9,10
 157 1393 157 1393 188.5 1463 c 128,-1,11
 220 1533 220 1533 261 1580.5 c 128,-1,12
 302 1628 302 1628 350 1652 c 128,-1,13
 398 1676 398 1676 449 1676 c 0,14,15
 502 1676 502 1676 557 1654 c 128,-1,16
 612 1632 612 1632 666.5 1605.5 c 128,-1,17
 721 1579 721 1579 773.5 1557 c 128,-1,18
 826 1535 826 1535 875 1535 c 0,19,20
 909 1535 909 1535 932 1567 c 128,-1,21
 955 1599 955 1599 961 1671 c 1,22,-1
 1196 1621 l 1,23,24
 1176 1528 1176 1528 1141 1458 c 128,-1,25
 1106 1388 1106 1388 1060 1340.5 c 128,-1,26
 1014 1293 1014 1293 960.5 1269 c 128,-1,27
 907 1245 907 1245 851 1245 c 0,0,1
EndSplineSet
EndChar

StartChar: dieresis
Encoding: 103 168 135
Width: 1200
Flags: W
HStem: 1197 403<173.328 443.634 756.328 1026.63>
VStem: 100 417<1270.52 1527.48> 683 417<1270.52 1527.48>
LayerCount: 2
Fore
SplineSet
308 1197 m 0,0,1
 257 1197 257 1197 218 1214.5 c 128,-1,2
 179 1232 179 1232 152.5 1260.5 c 128,-1,3
 126 1289 126 1289 113 1325 c 128,-1,4
 100 1361 100 1361 100 1399 c 256,5,6
 100 1437 100 1437 113 1473 c 128,-1,7
 126 1509 126 1509 152 1537.5 c 128,-1,8
 178 1566 178 1566 217 1583 c 128,-1,9
 256 1600 256 1600 308 1600 c 256,10,11
 360 1600 360 1600 399 1583 c 128,-1,12
 438 1566 438 1566 464 1537.5 c 128,-1,13
 490 1509 490 1509 503.5 1473 c 128,-1,14
 517 1437 517 1437 517 1399 c 256,15,16
 517 1361 517 1361 503.5 1325 c 128,-1,17
 490 1289 490 1289 464 1260.5 c 128,-1,18
 438 1232 438 1232 399 1214.5 c 128,-1,19
 360 1197 360 1197 308 1197 c 0,0,1
891 1197 m 0,20,21
 840 1197 840 1197 801 1214.5 c 128,-1,22
 762 1232 762 1232 735.5 1260.5 c 128,-1,23
 709 1289 709 1289 696 1325 c 128,-1,24
 683 1361 683 1361 683 1399 c 256,25,26
 683 1437 683 1437 696 1473 c 128,-1,27
 709 1509 709 1509 735 1537.5 c 128,-1,28
 761 1566 761 1566 800 1583 c 128,-1,29
 839 1600 839 1600 891 1600 c 256,30,31
 943 1600 943 1600 982 1583 c 128,-1,32
 1021 1566 1021 1566 1047 1537.5 c 128,-1,33
 1073 1509 1073 1509 1086.5 1473 c 128,-1,34
 1100 1437 1100 1437 1100 1399 c 256,35,36
 1100 1361 1100 1361 1086.5 1325 c 128,-1,37
 1073 1289 1073 1289 1047 1260.5 c 128,-1,38
 1021 1232 1021 1232 982 1214.5 c 128,-1,39
 943 1197 943 1197 891 1197 c 0,20,21
EndSplineSet
EndChar

StartChar: macron
Encoding: 109 175 136
Width: 1000
Flags: W
HStem: 1300 245<100 900>
LayerCount: 2
Fore
SplineSet
900 1545 m 1,0,-1
 900 1300 l 1,1,-1
 100 1300 l 1,2,-1
 100 1545 l 1,3,-1
 900 1545 l 1,0,-1
EndSplineSet
EndChar

StartChar: breve
Encoding: 203 728 137
Width: 800
Flags: W
HStem: 1200 226<266.513 532.632>
VStem: 28 212<1455.51 1545> 560 212<1455.51 1545>
LayerCount: 2
Fore
SplineSet
772 1545 m 1,0,1
 772 1454 772 1454 741.5 1388.5 c 128,-1,2
 711 1323 711 1323 659.5 1281 c 128,-1,3
 608 1239 608 1239 540.5 1219.5 c 128,-1,4
 473 1200 473 1200 400 1200 c 0,5,6
 316 1200 316 1200 247.5 1219.5 c 128,-1,7
 179 1239 179 1239 130.5 1281 c 128,-1,8
 82 1323 82 1323 55 1388.5 c 128,-1,9
 28 1454 28 1454 28 1545 c 1,10,-1
 240 1545 l 1,11,12
 240 1511 240 1511 253.5 1488 c 128,-1,13
 267 1465 267 1465 289.5 1451.5 c 128,-1,14
 312 1438 312 1438 341 1432 c 128,-1,15
 370 1426 370 1426 400 1426 c 256,16,17
 430 1426 430 1426 458.5 1432 c 128,-1,18
 487 1438 487 1438 509.5 1451.5 c 128,-1,19
 532 1465 532 1465 546 1488 c 128,-1,20
 560 1511 560 1511 560 1545 c 1,21,-1
 772 1545 l 1,0,1
EndSplineSet
EndChar

StartChar: ring
Encoding: 205 730 138
Width: 600
Flags: W
HStem: 1216 96<211.86 364.14> 1504 96<211.86 364.14>
VStem: 64 128<1332.64 1483.36> 384 128<1332.64 1483.36>
LayerCount: 2
Fore
SplineSet
192 1408 m 256,0,1
 192 1367 192 1367 217.5 1339.5 c 128,-1,2
 243 1312 243 1312 288 1312 c 256,3,4
 333 1312 333 1312 358.5 1339.5 c 128,-1,5
 384 1367 384 1367 384 1408 c 256,6,7
 384 1449 384 1449 358.5 1476.5 c 128,-1,8
 333 1504 333 1504 288 1504 c 256,9,10
 243 1504 243 1504 217.5 1476.5 c 128,-1,11
 192 1449 192 1449 192 1408 c 256,0,1
64 1408 m 256,12,13
 64 1446 64 1446 78.5 1480.5 c 128,-1,14
 93 1515 93 1515 121.5 1541.5 c 128,-1,15
 150 1568 150 1568 192 1584 c 128,-1,16
 234 1600 234 1600 288 1600 c 256,17,18
 342 1600 342 1600 384 1584 c 128,-1,19
 426 1568 426 1568 454.5 1541.5 c 128,-1,20
 483 1515 483 1515 497.5 1480.5 c 128,-1,21
 512 1446 512 1446 512 1408 c 256,22,23
 512 1370 512 1370 497.5 1335.5 c 128,-1,24
 483 1301 483 1301 454.5 1274.5 c 128,-1,25
 426 1248 426 1248 384 1232 c 128,-1,26
 342 1216 342 1216 288 1216 c 256,27,28
 234 1216 234 1216 192 1232 c 128,-1,29
 150 1248 150 1248 121.5 1274.5 c 128,-1,30
 93 1301 93 1301 78.5 1335.5 c 128,-1,31
 64 1370 64 1370 64 1408 c 256,12,13
EndSplineSet
EndChar

StartChar: hungarumlaut
Encoding: 208 733 139
Width: 1088
Flags: W
HStem: 1248 544<192 352 640 800>
LayerCount: 2
Fore
SplineSet
160 1248 m 1,0,-1
 192 1792 l 1,1,-1
 576 1792 l 1,2,-1
 352 1248 l 1,3,-1
 160 1248 l 1,0,-1
608 1248 m 1,4,-1
 640 1792 l 1,5,-1
 1024 1792 l 1,6,-1
 800 1248 l 1,7,-1
 608 1248 l 1,4,-1
EndSplineSet
EndChar

StartChar: dotaccent
Encoding: 204 729 140
Width: 838
Flags: W
HStem: 0 473<252.614 585.485>
VStem: 141 557<98.2639 365.789>
LayerCount: 2
Fore
SplineSet
418 0 m 0,0,1
 348 0 348 0 296 19.5 c 128,-1,2
 244 39 244 39 209.5 71.5 c 128,-1,3
 175 104 175 104 158 145 c 128,-1,4
 141 186 141 186 141 230 c 0,5,6
 141 275 141 275 159 318.5 c 128,-1,7
 177 362 177 362 212 396.5 c 128,-1,8
 247 431 247 431 299 452 c 128,-1,9
 351 473 351 473 419 473 c 256,10,11
 487 473 487 473 539 452 c 128,-1,12
 591 431 591 431 626.5 396.5 c 128,-1,13
 662 362 662 362 680 319 c 128,-1,14
 698 276 698 276 698 231 c 0,15,16
 698 187 698 187 681 145.5 c 128,-1,17
 664 104 664 104 629 71.5 c 128,-1,18
 594 39 594 39 541.5 19.5 c 128,-1,19
 489 0 489 0 418 0 c 0,0,1
EndSplineSet
EndChar

StartChar: ellipsis
Encoding: 222 8230 141
Width: 2150
Flags: W
HStem: -27 461<241.25 574.625 909.25 1242.62 1563.25 1896.62>
VStem: 132 552<68.4827 329.633> 800 552<68.4827 329.633> 1454 552<68.4827 329.633>
LayerCount: 2
Fore
SplineSet
1729 -27 m 0,0,1
 1660 -27 1660 -27 1608 -8 c 128,-1,2
 1556 11 1556 11 1522 42.5 c 128,-1,3
 1488 74 1488 74 1471 114.5 c 128,-1,4
 1454 155 1454 155 1454 197 c 0,5,6
 1454 241 1454 241 1472 283.5 c 128,-1,7
 1490 326 1490 326 1524.5 359.5 c 128,-1,8
 1559 393 1559 393 1610.5 413.5 c 128,-1,9
 1662 434 1662 434 1730 434 c 0,10,11
 1797 434 1797 434 1849 413.5 c 128,-1,12
 1901 393 1901 393 1935.5 359.5 c 128,-1,13
 1970 326 1970 326 1988 283.5 c 128,-1,14
 2006 241 2006 241 2006 198 c 256,15,16
 2006 155 2006 155 1989 114.5 c 128,-1,17
 1972 74 1972 74 1937.5 42.5 c 128,-1,18
 1903 11 1903 11 1851 -8 c 128,-1,19
 1799 -27 1799 -27 1729 -27 c 0,0,1
407 -27 m 0,20,21
 338 -27 338 -27 286 -8 c 128,-1,22
 234 11 234 11 200 42.5 c 128,-1,23
 166 74 166 74 149 114.5 c 128,-1,24
 132 155 132 155 132 197 c 0,25,26
 132 241 132 241 150 283.5 c 128,-1,27
 168 326 168 326 202.5 359.5 c 128,-1,28
 237 393 237 393 288.5 413.5 c 128,-1,29
 340 434 340 434 408 434 c 0,30,31
 475 434 475 434 527 413.5 c 128,-1,32
 579 393 579 393 613.5 359.5 c 128,-1,33
 648 326 648 326 666 283.5 c 128,-1,34
 684 241 684 241 684 198 c 256,35,36
 684 155 684 155 667 114.5 c 128,-1,37
 650 74 650 74 615.5 42.5 c 128,-1,38
 581 11 581 11 529 -8 c 128,-1,39
 477 -27 477 -27 407 -27 c 0,20,21
1075 -27 m 0,40,41
 1006 -27 1006 -27 954 -8 c 128,-1,42
 902 11 902 11 868 42.5 c 128,-1,43
 834 74 834 74 817 114.5 c 128,-1,44
 800 155 800 155 800 197 c 0,45,46
 800 241 800 241 818 283.5 c 128,-1,47
 836 326 836 326 870.5 359.5 c 128,-1,48
 905 393 905 393 956.5 413.5 c 128,-1,49
 1008 434 1008 434 1076 434 c 0,50,51
 1143 434 1143 434 1195 413.5 c 128,-1,52
 1247 393 1247 393 1281.5 359.5 c 128,-1,53
 1316 326 1316 326 1334 283.5 c 128,-1,54
 1352 241 1352 241 1352 198 c 256,55,56
 1352 155 1352 155 1335 114.5 c 128,-1,57
 1318 74 1318 74 1283.5 42.5 c 128,-1,58
 1249 11 1249 11 1197 -8 c 128,-1,59
 1145 -27 1145 -27 1075 -27 c 0,40,41
EndSplineSet
EndChar

StartChar: exclamdown
Encoding: 96 161 142
Width: 807
Flags: W
HStem: 1074 384<247.336 585.611>
VStem: 160 513<1154.96 1379.44> 256 320<713.296 914>
LayerCount: 2
Fore
SplineSet
192 18 m 1,0,-1
 256 914 l 1,1,-1
 576 914 l 1,2,-1
 640 18 l 1,3,-1
 192 18 l 1,0,-1
416 1458 m 0,4,5
 482 1458 482 1458 530 1441 c 128,-1,6
 578 1424 578 1424 610 1397 c 0,7,8
 644 1368 644 1368 658 1336 c 0,9,10
 673 1301 673 1301 673 1266 c 0,11,12
 673 1233 673 1233 656 1196 c 0,13,14
 639 1160 639 1160 608 1134 c 0,15,16
 577 1109 577 1109 527 1091 c 0,17,18
 479 1074 479 1074 416 1074 c 256,19,20
 356 1074 356 1074 305 1091 c 0,21,22
 259 1106 259 1106 225 1135 c 0,23,24
 192 1163 192 1163 176 1197 c 128,-1,25
 160 1231 160 1231 160 1267 c 0,26,27
 160 1302 160 1302 176 1336 c 0,28,29
 191 1370 191 1370 222.5 1397 c 128,-1,30
 254 1424 254 1424 302.5 1441 c 128,-1,31
 351 1458 351 1458 416 1458 c 0,4,5
EndSplineSet
EndChar

StartChar: questiondown
Encoding: 125 191 143
Width: 1376
Flags: W
HStem: -32 288<592.537 816.698> 1120 384<630.106 969.835>
VStem: 128 416<303.428 546.561> 544 512<1199.45 1426.39>
LayerCount: 2
Fore
SplineSet
1024 672 m 1,0,1
 913 662 913 662 834 647 c 128,-1,2
 755 632 755 632 701.5 613 c 128,-1,3
 648 594 648 594 617 571.5 c 128,-1,4
 586 549 586 549 569.5 524 c 128,-1,5
 553 499 553 499 548.5 471.5 c 128,-1,6
 544 444 544 444 544 416 c 0,7,8
 544 380 544 380 557 350.5 c 128,-1,9
 570 321 570 321 591.5 300 c 128,-1,10
 613 279 613 279 642 267.5 c 128,-1,11
 671 256 671 256 704 256 c 0,12,13
 734 256 734 256 762 266 c 128,-1,14
 790 276 790 276 812.5 296 c 128,-1,15
 835 316 835 316 849 346 c 128,-1,16
 863 376 863 376 864 416 c 1,17,-1
 1216 416 l 1,18,19
 1216 320 1216 320 1181 238 c 128,-1,20
 1146 156 1146 156 1077.5 96 c 128,-1,21
 1009 36 1009 36 907.5 2 c 128,-1,22
 806 -32 806 -32 672 -32 c 0,23,24
 528 -32 528 -32 425 2 c 128,-1,25
 322 36 322 36 256 96 c 128,-1,26
 190 156 190 156 159 238 c 128,-1,27
 128 320 128 320 128 416 c 0,28,29
 128 494 128 494 160 569 c 128,-1,30
 192 644 192 644 255.5 705.5 c 128,-1,31
 319 767 319 767 415 809.5 c 128,-1,32
 511 852 511 852 640 864 c 1,33,-1
 640 1024 l 1,34,-1
 992 1024 l 1,35,-1
 1024 672 l 1,0,1
800 1504 m 0,36,37
 865 1504 865 1504 913.5 1487.5 c 128,-1,38
 962 1471 962 1471 993.5 1444 c 128,-1,39
 1025 1417 1025 1417 1040.5 1382.5 c 128,-1,40
 1056 1348 1056 1348 1056 1312 c 256,41,42
 1056 1276 1056 1276 1039.5 1241.5 c 128,-1,43
 1023 1207 1023 1207 991 1180 c 128,-1,44
 959 1153 959 1153 911 1136.5 c 128,-1,45
 863 1120 863 1120 800 1120 c 256,46,47
 737 1120 737 1120 689 1136.5 c 128,-1,48
 641 1153 641 1153 609 1180 c 128,-1,49
 577 1207 577 1207 560.5 1241 c 128,-1,50
 544 1275 544 1275 544 1311 c 0,51,52
 544 1348 544 1348 559.5 1382.5 c 128,-1,53
 575 1417 575 1417 606.5 1444 c 128,-1,54
 638 1471 638 1471 686 1487.5 c 128,-1,55
 734 1504 734 1504 800 1504 c 0,36,37
EndSplineSet
EndChar

StartChar: quoteleft
Encoding: 213 8216 144
Width: 704
Flags: W
HStem: 704 192<386.431 608> 992 448<354.26 533.108>
LayerCount: 2
Fore
SplineSet
352 1024 m 1,0,1
 352 990 352 990 365 966 c 128,-1,2
 378 942 378 942 408 926.5 c 128,-1,3
 438 911 438 911 487 903.5 c 128,-1,4
 536 896 536 896 608 896 c 1,5,-1
 608 704 l 1,6,-1
 512 704 l 2,7,8
 437 704 437 704 363 722 c 128,-1,9
 289 740 289 740 229.5 786.5 c 128,-1,10
 170 833 170 833 133 914.5 c 128,-1,11
 96 996 96 996 96 1122 c 0,12,13
 96 1276 96 1276 165.5 1358 c 128,-1,14
 235 1440 235 1440 371 1440 c 0,15,16
 439 1440 439 1440 489.5 1418.5 c 128,-1,17
 540 1397 540 1397 573.5 1362.5 c 128,-1,18
 607 1328 607 1328 623.5 1285 c 128,-1,19
 640 1242 640 1242 640 1200 c 0,20,21
 640 1159 640 1159 626 1121 c 128,-1,22
 612 1083 612 1083 587 1054.5 c 128,-1,23
 562 1026 562 1026 528.5 1009 c 128,-1,24
 495 992 495 992 456 992 c 0,25,26
 404 992 404 992 352 1024 c 1,0,1
EndSplineSet
EndChar

StartChar: quoteright
Encoding: 214 8217 145
Width: 704
Flags: W
HStem: 704 448<202.892 381.74> 1248 192<128 349.569>
LayerCount: 2
Fore
SplineSet
384 1120 m 1,0,1
 384 1154 384 1154 371 1178 c 128,-1,2
 358 1202 358 1202 328 1217.5 c 128,-1,3
 298 1233 298 1233 249 1240.5 c 128,-1,4
 200 1248 200 1248 128 1248 c 1,5,-1
 128 1440 l 1,6,-1
 224 1440 l 2,7,8
 299 1440 299 1440 373 1422 c 128,-1,9
 447 1404 447 1404 506.5 1357.5 c 128,-1,10
 566 1311 566 1311 603 1229.5 c 128,-1,11
 640 1148 640 1148 640 1022 c 0,12,13
 640 868 640 868 570.5 786 c 128,-1,14
 501 704 501 704 365 704 c 0,15,16
 297 704 297 704 246.5 725.5 c 128,-1,17
 196 747 196 747 162.5 781.5 c 128,-1,18
 129 816 129 816 112.5 859 c 128,-1,19
 96 902 96 902 96 944 c 0,20,21
 96 985 96 985 110 1023 c 128,-1,22
 124 1061 124 1061 149 1089.5 c 128,-1,23
 174 1118 174 1118 207.5 1135 c 128,-1,24
 241 1152 241 1152 280 1152 c 0,25,26
 332 1152 332 1152 384 1120 c 1,0,1
EndSplineSet
EndChar

StartChar: quotedblleft
Encoding: 216 8220 146
Width: 1312
Flags: W
HStem: 704 192<386.431 608 994.431 1216> 992 448<354.26 533.108 962.26 1141.11>
LayerCount: 2
Fore
SplineSet
960 1024 m 1,0,1
 960 990 960 990 973 966 c 128,-1,2
 986 942 986 942 1016 926.5 c 128,-1,3
 1046 911 1046 911 1095 903.5 c 128,-1,4
 1144 896 1144 896 1216 896 c 1,5,-1
 1216 704 l 1,6,-1
 1120 704 l 2,7,8
 1045 704 1045 704 971 722 c 128,-1,9
 897 740 897 740 837.5 786.5 c 128,-1,10
 778 833 778 833 741 914.5 c 128,-1,11
 704 996 704 996 704 1122 c 0,12,13
 704 1276 704 1276 773.5 1358 c 128,-1,14
 843 1440 843 1440 979 1440 c 0,15,16
 1047 1440 1047 1440 1097.5 1418.5 c 128,-1,17
 1148 1397 1148 1397 1181.5 1362.5 c 128,-1,18
 1215 1328 1215 1328 1231.5 1285 c 128,-1,19
 1248 1242 1248 1242 1248 1200 c 0,20,21
 1248 1159 1248 1159 1234 1121 c 128,-1,22
 1220 1083 1220 1083 1195 1054.5 c 128,-1,23
 1170 1026 1170 1026 1136.5 1009 c 128,-1,24
 1103 992 1103 992 1064 992 c 0,25,26
 1012 992 1012 992 960 1024 c 1,0,1
352 1024 m 1,27,28
 352 990 352 990 365 966 c 128,-1,29
 378 942 378 942 408 926.5 c 128,-1,30
 438 911 438 911 487 903.5 c 128,-1,31
 536 896 536 896 608 896 c 1,32,-1
 608 704 l 1,33,-1
 512 704 l 2,34,35
 437 704 437 704 363 722 c 128,-1,36
 289 740 289 740 229.5 786.5 c 128,-1,37
 170 833 170 833 133 914.5 c 128,-1,38
 96 996 96 996 96 1122 c 0,39,40
 96 1276 96 1276 165.5 1358 c 128,-1,41
 235 1440 235 1440 371 1440 c 0,42,43
 439 1440 439 1440 489.5 1418.5 c 128,-1,44
 540 1397 540 1397 573.5 1362.5 c 128,-1,45
 607 1328 607 1328 623.5 1285 c 128,-1,46
 640 1242 640 1242 640 1200 c 0,47,48
 640 1159 640 1159 626 1121 c 128,-1,49
 612 1083 612 1083 587 1054.5 c 128,-1,50
 562 1026 562 1026 528.5 1009 c 128,-1,51
 495 992 495 992 456 992 c 0,52,53
 404 992 404 992 352 1024 c 1,27,28
EndSplineSet
EndChar

StartChar: quotedblright
Encoding: 217 8221 147
Width: 1312
Flags: W
HStem: 704 448<170.892 349.74 810.892 989.74> 1248 192<96 317.569 736 957.569>
LayerCount: 2
Fore
SplineSet
992 1120 m 1,0,1
 992 1154 992 1154 979 1178 c 128,-1,2
 966 1202 966 1202 936 1217.5 c 128,-1,3
 906 1233 906 1233 857 1240.5 c 128,-1,4
 808 1248 808 1248 736 1248 c 1,5,-1
 736 1440 l 1,6,-1
 832 1440 l 2,7,8
 907 1440 907 1440 981 1422 c 128,-1,9
 1055 1404 1055 1404 1114.5 1357.5 c 128,-1,10
 1174 1311 1174 1311 1211 1229.5 c 128,-1,11
 1248 1148 1248 1148 1248 1022 c 0,12,13
 1248 868 1248 868 1178.5 786 c 128,-1,14
 1109 704 1109 704 973 704 c 0,15,16
 905 704 905 704 854.5 725.5 c 128,-1,17
 804 747 804 747 770.5 781.5 c 128,-1,18
 737 816 737 816 720.5 859 c 128,-1,19
 704 902 704 902 704 944 c 0,20,21
 704 985 704 985 718 1023 c 128,-1,22
 732 1061 732 1061 757 1089.5 c 128,-1,23
 782 1118 782 1118 815.5 1135 c 128,-1,24
 849 1152 849 1152 888 1152 c 0,25,26
 940 1152 940 1152 992 1120 c 1,0,1
352 1120 m 1,27,28
 352 1154 352 1154 339 1178 c 128,-1,29
 326 1202 326 1202 296 1217.5 c 128,-1,30
 266 1233 266 1233 217 1240.5 c 128,-1,31
 168 1248 168 1248 96 1248 c 1,32,-1
 96 1440 l 1,33,-1
 192 1440 l 2,34,35
 267 1440 267 1440 341 1422 c 128,-1,36
 415 1404 415 1404 474.5 1357.5 c 128,-1,37
 534 1311 534 1311 571 1229.5 c 128,-1,38
 608 1148 608 1148 608 1022 c 0,39,40
 608 868 608 868 538.5 786 c 128,-1,41
 469 704 469 704 333 704 c 0,42,43
 265 704 265 704 214.5 725.5 c 128,-1,44
 164 747 164 747 130.5 781.5 c 128,-1,45
 97 816 97 816 80.5 859 c 128,-1,46
 64 902 64 902 64 944 c 0,47,48
 64 985 64 985 78 1023 c 128,-1,49
 92 1061 92 1061 117 1089.5 c 128,-1,50
 142 1118 142 1118 175.5 1135 c 128,-1,51
 209 1152 209 1152 248 1152 c 0,52,53
 300 1152 300 1152 352 1120 c 1,27,28
EndSplineSet
EndChar

StartChar: quotesinglbase
Encoding: 215 8218 148
Width: 600
Flags: W
HStem: -528 626<200 400>
VStem: 200 200<-528 -378.428>
LayerCount: 2
Fore
SplineSet
140 98 m 1,0,-1
 460 98 l 1,1,-1
 400 -528 l 1,2,-1
 200 -528 l 1,3,-1
 140 98 l 1,0,-1
EndSplineSet
EndChar

StartChar: quotedblbase
Encoding: 218 8222 149
Width: 1000
Flags: W
HStem: -526 626<200 400 616 816>
VStem: 200 200<-526 -376.428> 616 200<-526 -376.428>
LayerCount: 2
Fore
SplineSet
556 100 m 1,0,-1
 876 100 l 1,1,-1
 816 -526 l 1,2,-1
 616 -526 l 1,3,-1
 556 100 l 1,0,-1
140 100 m 1,4,-1
 460 100 l 1,5,-1
 400 -526 l 1,6,-1
 200 -526 l 1,7,-1
 140 100 l 1,4,-1
EndSplineSet
EndChar

StartChar: guilsinglleft
Encoding: 224 8249 150
Width: 800
Flags: W
VStem: 100 272<600 900>
LayerCount: 2
Fore
SplineSet
700 200 m 1,0,-1
 100 600 l 1,1,-1
 100 900 l 1,2,-1
 700 1300 l 1,3,-1
 700 900 l 1,4,-1
 372 750 l 1,5,-1
 700 600 l 1,6,-1
 700 200 l 1,0,-1
EndSplineSet
EndChar

StartChar: guilsinglright
Encoding: 225 8250 151
Width: 800
Flags: W
VStem: 428 272<600 900>
LayerCount: 2
Fore
SplineSet
100 600 m 1,0,-1
 428 750 l 1,1,-1
 100 900 l 1,2,-1
 100 1300 l 1,3,-1
 700 900 l 1,4,-1
 700 600 l 1,5,-1
 100 200 l 1,6,-1
 100 600 l 1,0,-1
EndSplineSet
EndChar

StartChar: guillemotleft
Encoding: 106 171 152
Width: 1120
Flags: W
LayerCount: 2
Fore
SplineSet
544 200 m 1,0,-1
 96 600 l 1,1,-1
 96 900 l 1,2,-1
 544 1300 l 1,3,-1
 544 900 l 1,4,-1
 368 750 l 1,5,-1
 544 600 l 1,6,-1
 544 200 l 1,0,-1
1056 200 m 1,7,-1
 608 600 l 1,8,-1
 608 900 l 1,9,-1
 1056 1300 l 1,10,-1
 1056 900 l 1,11,-1
 880 750 l 1,12,-1
 1056 600 l 1,13,-1
 1056 200 l 1,7,-1
EndSplineSet
EndChar

StartChar: guillemotright
Encoding: 121 187 153
Width: 1120
Flags: W
LayerCount: 2
Fore
SplineSet
608 600 m 1,0,-1
 784 750 l 1,1,-1
 608 900 l 1,2,-1
 608 1300 l 1,3,-1
 1056 900 l 1,4,-1
 1056 600 l 1,5,-1
 608 200 l 1,6,-1
 608 600 l 1,0,-1
96 600 m 1,7,-1
 272 750 l 1,8,-1
 96 900 l 1,9,-1
 96 1300 l 1,10,-1
 544 900 l 1,11,-1
 544 600 l 1,12,-1
 96 200 l 1,13,-1
 96 600 l 1,7,-1
EndSplineSet
EndChar

StartChar: endash
Encoding: 211 8211 154
Width: 1000
Flags: W
HStem: 512 320<96 896>
LayerCount: 2
Fore
SplineSet
896 832 m 1,0,-1
 896 512 l 1,1,-1
 96 512 l 1,2,-1
 96 832 l 1,3,-1
 896 832 l 1,0,-1
EndSplineSet
EndChar

StartChar: emdash
Encoding: 212 8212 155
Width: 992
Flags: W
HStem: 512 320<0 992>
LayerCount: 2
Fore
SplineSet
992 832 m 1,0,-1
 992 512 l 1,1,-1
 0 512 l 1,2,-1
 0 832 l 1,3,-1
 992 832 l 1,0,-1
EndSplineSet
EndChar

StartChar: periodcentered
Encoding: 117 183 156
Width: 815
Flags: W
HStem: 502 461<241.25 574.625>
VStem: 132 552<597.483 858.633>
LayerCount: 2
Fore
SplineSet
407 502 m 0,0,1
 338 502 338 502 286 521 c 128,-1,2
 234 540 234 540 200 571.5 c 128,-1,3
 166 603 166 603 149 643.5 c 128,-1,4
 132 684 132 684 132 726 c 0,5,6
 132 770 132 770 150 812.5 c 128,-1,7
 168 855 168 855 202.5 888.5 c 128,-1,8
 237 922 237 922 288.5 942.5 c 128,-1,9
 340 963 340 963 408 963 c 0,10,11
 475 963 475 963 527 942.5 c 128,-1,12
 579 922 579 922 613.5 888.5 c 128,-1,13
 648 855 648 855 666 812.5 c 128,-1,14
 684 770 684 770 684 727 c 256,15,16
 684 684 684 684 667 643.5 c 128,-1,17
 650 603 650 603 615.5 571.5 c 128,-1,18
 581 540 581 540 529 521 c 128,-1,19
 477 502 477 502 407 502 c 0,0,1
EndSplineSet
EndChar

StartChar: bullet
Encoding: 221 8226 157
Width: 800
Flags: W
HStem: 300 599<238.383 560.617>
VStem: 106 587<431.109 762.773>
LayerCount: 2
Fore
SplineSet
400 300 m 0,0,1
 326 300 326 300 271 325.5 c 128,-1,2
 216 351 216 351 179 392.5 c 128,-1,3
 142 434 142 434 124 487 c 128,-1,4
 106 540 106 540 106 596 c 0,5,6
 106 653 106 653 124.5 707 c 128,-1,7
 143 761 143 761 180 804 c 128,-1,8
 217 847 217 847 272 873 c 128,-1,9
 327 899 327 899 400 899 c 256,10,11
 473 899 473 899 527.5 873 c 128,-1,12
 582 847 582 847 619 804.5 c 128,-1,13
 656 762 656 762 674.5 707.5 c 128,-1,14
 693 653 693 653 693 597 c 256,15,16
 693 541 693 541 675 487.5 c 128,-1,17
 657 434 657 434 620 392.5 c 128,-1,18
 583 351 583 351 528 325.5 c 128,-1,19
 473 300 473 300 400 300 c 0,0,1
EndSplineSet
EndChar

StartChar: dagger
Encoding: 219 8224 158
Width: 800
Flags: W
HStem: 0 21G<200 600> 832 256<0 200 600 800> 1388 20G<200 600>
VStem: 200 400<0 832 1088 1408>
LayerCount: 2
Fore
SplineSet
0 832 m 1,0,-1
 0 1088 l 1,1,-1
 200 1088 l 1,2,-1
 200 1408 l 1,3,-1
 600 1408 l 1,4,-1
 600 1088 l 1,5,-1
 800 1088 l 1,6,-1
 800 832 l 1,7,-1
 600 832 l 1,8,-1
 600 0 l 1,9,-1
 200 0 l 1,10,-1
 200 832 l 1,11,-1
 0 832 l 1,0,-1
EndSplineSet
EndChar

StartChar: daggerdbl
Encoding: 220 8225 159
Width: 800
Flags: W
HStem: 0 21G<200 600> 320 256<0 200 600 800> 832 256<0 200 600 800> 1388 20G<200 600>
VStem: 200 400<0 320 576 832 1088 1408>
LayerCount: 2
Fore
SplineSet
0 320 m 1,0,-1
 0 576 l 1,1,-1
 200 576 l 1,2,-1
 200 832 l 1,3,-1
 0 832 l 1,4,-1
 0 1088 l 1,5,-1
 200 1088 l 1,6,-1
 200 1408 l 1,7,-1
 600 1408 l 1,8,-1
 600 1088 l 1,9,-1
 800 1088 l 1,10,-1
 800 832 l 1,11,-1
 600 832 l 1,12,-1
 600 576 l 1,13,-1
 800 576 l 1,14,-1
 800 320 l 1,15,-1
 600 320 l 1,16,-1
 600 0 l 1,17,-1
 200 0 l 1,18,-1
 200 320 l 1,19,-1
 0 320 l 1,0,-1
EndSplineSet
EndChar

StartChar: section
Encoding: 102 167 160
Width: 1100
Flags: W
HStem: 27.1455 258.775<186.13 363.753> 1215.76 261.412<505.646 887.467>
VStem: 131.885 294.14<673.014 845.154> 716.653 296.873<621.429 746.218>
LayerCount: 2
Fore
SplineSet
241.041015625 931.194335938 m 1,0,1
 142.067664815 1020.91216265 142.067664815 1020.91216265 142.067664815 1164.09634499 c 0,2,3
 142.067664815 1308.1180968 142.067664815 1308.1180968 280.381835938 1394.95898438 c 0,4,5
 411.321360473 1477.16968222 411.321360473 1477.16968222 595.942729323 1477.16968222 c 128,-1,6
 780.564098173 1477.16968222 780.564098173 1477.16968222 950.633789062 1411.0703125 c 1,7,-1
 940.267578125 1162.28613281 l 1,8,9
 837.921071628 1215.7581611 837.921071628 1215.7581611 668.128092804 1215.7581611 c 128,-1,10
 498.335113979 1215.7581611 498.335113979 1215.7581611 498.335113979 1148.50950369 c 0,11,12
 498.335113979 1118.75146704 498.335113979 1118.75146704 579.268554688 1085.74804688 c 0,13,14
 616.173828125 1070.69921875 616.173828125 1070.69921875 663.029296875 1054.234375 c 128,-1,15
 709.883789062 1037.76855469 709.883789062 1037.76855469 759.0703125 1017.203125 c 128,-1,16
 808.256835938 996.637695312 808.256835938 996.637695312 854.716796875 970.681640625 c 0,17,18
 1013.52652247 881.955155992 1013.52652247 881.955155992 1013.52652247 740.239082002 c 0,19,20
 1013.52652247 620.350828751 1013.52652247 620.350828751 911.000976562 531.958007812 c 1,21,22
 1025.06525256 442.123822766 1025.06525256 442.123822766 1025.06525256 299.53164551 c 0,23,24
 1025.06525256 147.473543214 1025.06525256 147.473543214 894.765625 58.22265625 c 0,25,26
 665.640441242 -98.7144812345 665.640441242 -98.7144812345 175.34765625 27.1455078125 c 1,27,-1
 186.129882812 285.920898438 l 1,28,29
 395.911786458 227.246523064 395.911786458 227.246523064 490.679705499 227.246523064 c 128,-1,30
 585.44762454 227.246523064 585.44762454 227.246523064 620.502132583 244.802460751 c 0,31,32
 656.956621208 263.059534276 656.956621208 263.059534276 656.956621208 291.944709544 c 128,-1,33
 656.956621208 320.829884813 656.956621208 320.829884813 618.268349667 340.718165063 c 128,-1,34
 579.580078125 360.606445312 579.580078125 360.606445312 519.923828125 382.108398438 c 128,-1,35
 460.267578125 403.611328125 460.267578125 403.611328125 391.306640625 430.004882812 c 0,36,37
 235.796315438 489.523654179 235.796315438 489.523654179 166.709960938 588.4921875 c 0,38,39
 131.884956447 638.378891661 131.884956447 638.378891661 131.884956447 707.648776782 c 0,40,41
 131.884956447 836.713199238 131.884956447 836.713199238 241.041015625 931.194335938 c 1,0,1
693.481445312 620.08984375 m 1,42,43
 716.653446898 652.827380676 716.653446898 652.827380676 716.653446898 683.297603867 c 128,-1,44
 716.653446898 713.767827057 716.653446898 713.767827057 695.721254699 730.873171341 c 128,-1,45
 674.7890625 747.978515625 674.7890625 747.978515625 638.029296875 766.525390625 c 128,-1,46
 601.26953125 785.071289062 601.26953125 785.071289062 553.041015625 804.596679688 c 128,-1,47
 504.811523438 824.12109375 504.811523438 824.12109375 451.69140625 846.3515625 c 1,48,49
 426.024659746 802.705876723 426.024659746 802.705876723 426.024659746 758.278891877 c 0,50,51
 426.024659746 719.570286129 426.024659746 719.570286129 591.486328125 658.369140625 c 0,52,53
 640.27734375 640.322265625 640.27734375 640.322265625 693.481445312 620.08984375 c 1,42,43
EndSplineSet
EndChar

StartChar: paragraph
Encoding: 116 182 161
Width: 1400
Flags: W
HStem: 0 21G<500 800 1000 1300> 1100 326<800 1000>
VStem: 83 717<868.125 1099.42> 500 300<0 700> 1000 300<0 1100>
LayerCount: 2
Fore
SplineSet
1300 0 m 1,0,-1
 1000 0 l 1,1,-1
 1000 1100 l 1,2,-1
 800 1100 l 1,3,-1
 800 0 l 1,4,-1
 500 0 l 1,5,-1
 500 700 l 1,6,7
 377 700 377 700 296 731.5 c 128,-1,8
 215 763 215 763 168 814 c 128,-1,9
 121 865 121 865 102 928.5 c 128,-1,10
 83 992 83 992 83 1055 c 0,11,12
 83 1131 83 1131 105.5 1199 c 128,-1,13
 128 1267 128 1267 186 1317 c 128,-1,14
 244 1367 244 1367 345 1396.5 c 128,-1,15
 446 1426 446 1426 604 1426 c 2,16,-1
 1300 1426 l 1,17,-1
 1300 0 l 1,0,-1
EndSplineSet
EndChar

StartChar: copyright
Encoding: 104 169 162
Width: 1800
Flags: W
HStem: -141 229<606.766 1193.23> 238 248<857.265 1165.13> 915 247<861.327 1161.48> 1312 229<606.859 1193.14>
VStem: 0 299<392.907 1008.56> 476 317<550.64 846.595> 1501 299<391.44 1008.56>
LayerCount: 2
Fore
SplineSet
299 700 m 256,0,1
 299 622 299 622 307.5 546.5 c 128,-1,2
 316 471 316 471 339.5 403 c 128,-1,3
 363 335 363 335 405 277.5 c 128,-1,4
 447 220 447 220 514 177.5 c 128,-1,5
 581 135 581 135 675.5 111.5 c 128,-1,6
 770 88 770 88 900 88 c 256,7,8
 1030 88 1030 88 1124.5 111.5 c 128,-1,9
 1219 135 1219 135 1286 177.5 c 128,-1,10
 1353 220 1353 220 1395 277.5 c 128,-1,11
 1437 335 1437 335 1460.5 403 c 128,-1,12
 1484 471 1484 471 1492.5 546.5 c 128,-1,13
 1501 622 1501 622 1501 700 c 256,14,15
 1501 778 1501 778 1492.5 853.5 c 128,-1,16
 1484 929 1484 929 1460.5 997 c 128,-1,17
 1437 1065 1437 1065 1395 1122.5 c 128,-1,18
 1353 1180 1353 1180 1286 1222.5 c 128,-1,19
 1219 1265 1219 1265 1124 1288.5 c 128,-1,20
 1029 1312 1029 1312 900 1312 c 256,21,22
 771 1312 771 1312 676 1288.5 c 128,-1,23
 581 1265 581 1265 514 1222.5 c 128,-1,24
 447 1180 447 1180 405 1122.5 c 128,-1,25
 363 1065 363 1065 339.5 997 c 128,-1,26
 316 929 316 929 307.5 853.5 c 128,-1,27
 299 778 299 778 299 700 c 256,0,1
0 700 m 0,28,29
 0 803 0 803 16.5 906 c 128,-1,30
 33 1009 33 1009 72.5 1102 c 128,-1,31
 112 1195 112 1195 178 1275.5 c 128,-1,32
 244 1356 244 1356 344 1415 c 128,-1,33
 444 1474 444 1474 581.5 1507.5 c 128,-1,34
 719 1541 719 1541 900 1541 c 256,35,36
 1081 1541 1081 1541 1218.5 1507.5 c 128,-1,37
 1356 1474 1356 1474 1456 1415 c 128,-1,38
 1556 1356 1556 1356 1622 1275.5 c 128,-1,39
 1688 1195 1688 1195 1727.5 1102 c 128,-1,40
 1767 1009 1767 1009 1783.5 906 c 128,-1,41
 1800 803 1800 803 1800 700 c 256,42,43
 1800 597 1800 597 1783.5 494 c 128,-1,44
 1767 391 1767 391 1727.5 298 c 128,-1,45
 1688 205 1688 205 1622 124.5 c 128,-1,46
 1556 44 1556 44 1456 -15 c 128,-1,47
 1356 -74 1356 -74 1218.5 -107.5 c 128,-1,48
 1081 -141 1081 -141 900 -141 c 256,49,50
 719 -141 719 -141 581.5 -107.5 c 128,-1,51
 444 -74 444 -74 344 -15 c 128,-1,52
 244 44 244 44 178 124.5 c 128,-1,53
 112 205 112 205 72.5 298 c 128,-1,54
 33 391 33 391 16.5 493.5 c 128,-1,55
 0 596 0 596 0 700 c 0,28,29
919 238 m 0,56,57
 827 238 827 238 746.5 268 c 128,-1,58
 666 298 666 298 606 357 c 128,-1,59
 546 416 546 416 511 505 c 128,-1,60
 476 594 476 594 476 713 c 0,61,62
 476 801 476 801 505 882.5 c 128,-1,63
 534 964 534 964 589.5 1026 c 128,-1,64
 645 1088 645 1088 725.5 1125 c 128,-1,65
 806 1162 806 1162 909 1162 c 0,66,67
 985 1162 985 1162 1061 1146.5 c 128,-1,68
 1137 1131 1137 1131 1213 1096 c 1,69,-1
 1197 864 l 1,70,71
 1155 890 1155 890 1100 902.5 c 128,-1,72
 1045 915 1045 915 994 915 c 0,73,74
 950 915 950 915 913 901 c 128,-1,75
 876 887 876 887 849.5 860 c 128,-1,76
 823 833 823 833 808 793.5 c 128,-1,77
 793 754 793 754 793 702 c 0,78,79
 793 596 793 596 845.5 541 c 128,-1,80
 898 486 898 486 987 486 c 0,81,82
 1098 486 1098 486 1201 538 c 1,83,-1
 1227 310 l 1,84,85
 1158 275 1158 275 1080 256.5 c 128,-1,86
 1002 238 1002 238 919 238 c 0,56,57
EndSplineSet
EndChar

StartChar: registered
Encoding: 108 174 163
Width: 1800
Flags: W
HStem: -141 229<606.766 1193.23> 642 137<845 890.406> 990 170<845 1018.29> 1312 229<606.859 1193.14>
VStem: 0 299<392.907 1008.56> 581 264<268 642 779 990> 1037 263<805.772 970.485> 1501 299<391.44 1008.56>
LayerCount: 2
Fore
SplineSet
581 1160 m 1,0,-1
 891 1160 l 2,1,2
 992 1160 992 1160 1068.5 1139 c 128,-1,3
 1145 1118 1145 1118 1196.5 1082 c 128,-1,4
 1248 1046 1248 1046 1274 998.5 c 128,-1,5
 1300 951 1300 951 1300 899 c 0,6,7
 1300 864 1300 864 1291.5 829.5 c 128,-1,8
 1283 795 1283 795 1261.5 764 c 128,-1,9
 1240 733 1240 733 1203 708 c 128,-1,10
 1166 683 1166 683 1109 668 c 1,11,12
 1116 635 1116 635 1127.5 601 c 128,-1,13
 1139 567 1139 567 1154 533 c 128,-1,14
 1169 499 1169 499 1185.5 467 c 128,-1,15
 1202 435 1202 435 1218 406 c 0,16,17
 1256 338 1256 338 1300 273 c 1,18,-1
 1011 273 l 1,19,20
 987 317 987 317 963 373 c 0,21,22
 943 421 943 421 921 489 c 128,-1,23
 899 557 899 557 882 642 c 1,24,-1
 845 642 l 1,25,-1
 845 268 l 1,26,-1
 581 268 l 1,27,-1
 581 1160 l 1,0,-1
866 779 m 2,28,29
 914 779 914 779 946.5 787.5 c 128,-1,30
 979 796 979 796 999.5 810 c 128,-1,31
 1020 824 1020 824 1028.5 842 c 128,-1,32
 1037 860 1037 860 1037 878 c 0,33,34
 1037 918 1037 918 1023.5 940.5 c 128,-1,35
 1010 963 1010 963 986.5 974 c 128,-1,36
 963 985 963 985 932 987.5 c 128,-1,37
 901 990 901 990 865 990 c 2,38,-1
 845 990 l 1,39,-1
 845 779 l 1,40,-1
 866 779 l 2,28,29
299 700 m 256,41,42
 299 622 299 622 307.5 546.5 c 128,-1,43
 316 471 316 471 339.5 403 c 128,-1,44
 363 335 363 335 405 277.5 c 128,-1,45
 447 220 447 220 514 177.5 c 128,-1,46
 581 135 581 135 675.5 111.5 c 128,-1,47
 770 88 770 88 900 88 c 256,48,49
 1030 88 1030 88 1124.5 111.5 c 128,-1,50
 1219 135 1219 135 1286 177.5 c 128,-1,51
 1353 220 1353 220 1395 277.5 c 128,-1,52
 1437 335 1437 335 1460.5 403 c 128,-1,53
 1484 471 1484 471 1492.5 546.5 c 128,-1,54
 1501 622 1501 622 1501 700 c 256,55,56
 1501 778 1501 778 1492.5 853.5 c 128,-1,57
 1484 929 1484 929 1460.5 997 c 128,-1,58
 1437 1065 1437 1065 1395 1122.5 c 128,-1,59
 1353 1180 1353 1180 1286 1222.5 c 128,-1,60
 1219 1265 1219 1265 1124 1288.5 c 128,-1,61
 1029 1312 1029 1312 900 1312 c 256,62,63
 771 1312 771 1312 676 1288.5 c 128,-1,64
 581 1265 581 1265 514 1222.5 c 128,-1,65
 447 1180 447 1180 405 1122.5 c 128,-1,66
 363 1065 363 1065 339.5 997 c 128,-1,67
 316 929 316 929 307.5 853.5 c 128,-1,68
 299 778 299 778 299 700 c 256,41,42
0 700 m 0,69,70
 0 803 0 803 16.5 906 c 128,-1,71
 33 1009 33 1009 72.5 1102 c 128,-1,72
 112 1195 112 1195 178 1275.5 c 128,-1,73
 244 1356 244 1356 344 1415 c 128,-1,74
 444 1474 444 1474 581.5 1507.5 c 128,-1,75
 719 1541 719 1541 900 1541 c 256,76,77
 1081 1541 1081 1541 1218.5 1507.5 c 128,-1,78
 1356 1474 1356 1474 1456 1415 c 128,-1,79
 1556 1356 1556 1356 1622 1275.5 c 128,-1,80
 1688 1195 1688 1195 1727.5 1102 c 128,-1,81
 1767 1009 1767 1009 1783.5 906 c 128,-1,82
 1800 803 1800 803 1800 700 c 256,83,84
 1800 597 1800 597 1783.5 494 c 128,-1,85
 1767 391 1767 391 1727.5 298 c 128,-1,86
 1688 205 1688 205 1622 124.5 c 128,-1,87
 1556 44 1556 44 1456 -15 c 128,-1,88
 1356 -74 1356 -74 1218.5 -107.5 c 128,-1,89
 1081 -141 1081 -141 900 -141 c 256,90,91
 719 -141 719 -141 581.5 -107.5 c 128,-1,92
 444 -74 444 -74 344 -15 c 128,-1,93
 244 44 244 44 178 124.5 c 128,-1,94
 112 205 112 205 72.5 298 c 128,-1,95
 33 391 33 391 16.5 493.5 c 128,-1,96
 0 596 0 596 0 700 c 0,69,70
EndSplineSet
EndChar

StartChar: trademark
Encoding: 228 8482 164
Width: 2000
Flags: W
HStem: 600 826<300 600 900 1100 1642 1900> 1220 206<100 300 600 800>
VStem: 300 300<600 1220> 900 200<600 986> 1600 300<600 986>
LayerCount: 2
Fore
SplineSet
300 600 m 1,0,-1
 300 1220 l 1,1,-1
 100 1220 l 1,2,-1
 100 1426 l 1,3,-1
 800 1426 l 1,4,-1
 800 1220 l 1,5,-1
 600 1220 l 1,6,-1
 600 600 l 1,7,-1
 300 600 l 1,0,-1
900 1426 m 1,8,-1
 1185 1426 l 1,9,-1
 1407 1054 l 1,10,-1
 1642 1426 l 1,11,-1
 1900 1426 l 1,12,-1
 1900 600 l 1,13,-1
 1600 600 l 1,14,-1
 1600 986 l 1,15,-1
 1394 634 l 1,16,-1
 1330 634 l 1,17,-1
 1100 986 l 1,18,-1
 1100 600 l 1,19,-1
 900 600 l 1,20,-1
 900 1426 l 1,8,-1
EndSplineSet
EndChar

StartChar: ordfeminine
Encoding: 105 170 165
Width: 960
Flags: W
HStem: 330 163<235 481.715> 673 114<398.544 579> 923 197<185.126 562.13>
VStem: 96 264<497.611 632.958> 579 285<352 474 530.309 673 782 902.836>
LayerCount: 2
Fore
SplineSet
318 330 m 0,0,1
 275 330 275 330 235 342 c 128,-1,2
 195 354 195 354 164 380 c 128,-1,3
 133 406 133 406 114.5 444 c 128,-1,4
 96 482 96 482 96 533 c 0,5,6
 96 588 96 588 113.5 628 c 128,-1,7
 131 668 131 668 160 696.5 c 128,-1,8
 189 725 189 725 227.5 742.5 c 128,-1,9
 266 760 266 760 308 770 c 128,-1,10
 350 780 350 780 392 783.5 c 128,-1,11
 434 787 434 787 473 787 c 0,12,13
 495 787 495 787 514 786 c 128,-1,14
 533 785 533 785 547 784 c 128,-1,15
 561 783 561 783 569.5 782.5 c 128,-1,16
 578 782 578 782 579 782 c 1,17,-1
 579 813 l 2,18,19
 579 845 579 845 569 866.5 c 128,-1,20
 559 888 559 888 540.5 900.5 c 128,-1,21
 522 913 522 913 498.5 918 c 128,-1,22
 475 923 475 923 447 923 c 0,23,24
 394 923 394 923 346.5 915.5 c 128,-1,25
 299 908 299 908 262 901 c 1,26,27
 220 891 220 891 184 878 c 1,28,-1
 140 1076 l 1,29,30
 194 1088 194 1088 256 1098 c 0,31,32
 308 1107 308 1107 376 1113.5 c 128,-1,33
 444 1120 444 1120 517 1120 c 0,34,35
 587 1120 587 1120 649.5 1104 c 128,-1,36
 712 1088 712 1088 760 1050.5 c 128,-1,37
 808 1013 808 1013 836 952.5 c 128,-1,38
 864 892 864 892 864 801 c 2,39,-1
 864 352 l 1,40,-1
 579 352 l 1,41,-1
 579 474 l 1,42,43
 564 441 564 441 535.5 414.5 c 128,-1,44
 507 388 507 388 472 369 c 128,-1,45
 437 350 437 350 397 340 c 128,-1,46
 357 330 357 330 318 330 c 0,0,1
434 493 m 0,47,48
 454 493 454 493 473.5 500 c 128,-1,49
 493 507 493 507 512.5 517.5 c 128,-1,50
 532 528 532 528 549 540.5 c 128,-1,51
 566 553 566 553 579 564 c 1,52,-1
 579 673 l 1,53,-1
 556 673 l 2,54,55
 523 673 523 673 488.5 665.5 c 128,-1,56
 454 658 454 658 425.5 644.5 c 128,-1,57
 397 631 397 631 378.5 611 c 128,-1,58
 360 591 360 591 360 565 c 0,59,60
 360 545 360 545 366.5 531 c 128,-1,61
 373 517 373 517 383.5 508.5 c 128,-1,62
 394 500 394 500 407.5 496.5 c 128,-1,63
 421 493 421 493 434 493 c 0,47,48
EndSplineSet
EndChar

StartChar: ordmasculine
Encoding: 120 186 166
Width: 960
Flags: W
HStem: 384 192<380.886 579.114> 928 192<380.755 579.245>
VStem: 96 256<610.184 890.909> 608 256<610.184 890.909>
LayerCount: 2
Fore
SplineSet
480 928 m 256,0,1
 408 928 408 928 380 882 c 128,-1,2
 352 836 352 836 352 751 c 0,3,4
 352 661 352 661 380 618.5 c 128,-1,5
 408 576 408 576 480 576 c 256,6,7
 552 576 552 576 580 618.5 c 128,-1,8
 608 661 608 661 608 751 c 0,9,10
 608 836 608 836 580 882 c 128,-1,11
 552 928 552 928 480 928 c 256,0,1
480 1120 m 256,12,13
 588 1120 588 1120 661.5 1088 c 128,-1,14
 735 1056 735 1056 780 1004.5 c 128,-1,15
 825 953 825 953 844.5 887 c 128,-1,16
 864 821 864 821 864 752 c 0,17,18
 864 682 864 682 844.5 615 c 128,-1,19
 825 548 825 548 780 496.5 c 128,-1,20
 735 445 735 445 661.5 413.5 c 128,-1,21
 588 382 588 382 480 384 c 1,22,23
 372 382 372 382 298.5 413.5 c 128,-1,24
 225 445 225 445 180 496.5 c 128,-1,25
 135 548 135 548 115.5 615 c 128,-1,26
 96 682 96 682 96 752 c 0,27,28
 96 821 96 821 115.5 887 c 128,-1,29
 135 953 135 953 180 1004.5 c 128,-1,30
 225 1056 225 1056 298.5 1088 c 128,-1,31
 372 1120 372 1120 480 1120 c 256,12,13
EndSplineSet
EndChar

StartChar: cent
Encoding: 97 162 167
Width: 1200
Flags: W
HStem: 0 455<634.962 780.553> 990 436<637.812 782>
VStem: 100 446<546.493 893.697> 565 217<0 156.507 1284.97 1426>
LayerCount: 2
Fore
SplineSet
565 156 m 1,0,1
 466 172 466 172 380.5 216.5 c 128,-1,2
 295 261 295 261 233 332 c 128,-1,3
 171 403 171 403 135.5 501.5 c 128,-1,4
 100 600 100 600 100 726 c 0,5,6
 100 826 100 826 131 919.5 c 128,-1,7
 162 1013 162 1013 221.5 1088.5 c 128,-1,8
 281 1164 281 1164 367.5 1217 c 128,-1,9
 454 1270 454 1270 565 1288 c 1,10,-1
 565 1426 l 1,11,-1
 782 1426 l 1,12,-1
 782 1290 l 1,13,14
 857 1282 857 1282 941.5 1264 c 128,-1,15
 1026 1246 1026 1246 1100 1217 c 1,16,-1
 1100 926 l 1,17,18
 1067 942 1067 942 1028 954.5 c 128,-1,19
 989 967 989 967 948 974.5 c 128,-1,20
 907 982 907 982 865 986 c 128,-1,21
 823 990 823 990 784 990 c 0,22,23
 731 990 731 990 687.5 973 c 128,-1,24
 644 956 644 956 612.5 922 c 128,-1,25
 581 888 581 888 563.5 838.5 c 128,-1,26
 546 789 546 789 546 724 c 0,27,28
 546 593 546 593 608 524 c 128,-1,29
 670 455 670 455 775 455 c 0,30,31
 864 455 864 455 943 471 c 128,-1,32
 1022 487 1022 487 1100 520 c 1,33,-1
 1100 234 l 1,34,35
 1028 201 1028 201 945.5 180.5 c 128,-1,36
 863 160 863 160 782 151 c 1,37,-1
 782 0 l 1,38,-1
 565 0 l 1,39,-1
 565 156 l 1,0,1
EndSplineSet
EndChar

StartChar: sterling
Encoding: 98 163 168
Width: 1312
Flags: W
HStem: -32 288<636.04 885.119> 0 257<32 163.509> 576 256<32 194 643 896> 1184 224<706.685 903.594>
VStem: 192 448<285.825 576> 928 256<1024 1159.97>
LayerCount: 2
Fore
SplineSet
211 832 m 1,0,1
 223 936 223 936 243 1019 c 0,2,3
 271 1133 271 1133 315 1208 c 128,-1,4
 359 1283 359 1283 423 1327.5 c 128,-1,5
 487 1372 487 1372 572.5 1390 c 128,-1,6
 658 1408 658 1408 768 1408 c 0,7,8
 895 1408 895 1408 975.5 1382.5 c 128,-1,9
 1056 1357 1056 1357 1102.5 1308 c 128,-1,10
 1149 1259 1149 1259 1166.5 1187.5 c 128,-1,11
 1184 1116 1184 1116 1184 1024 c 1,12,-1
 928 1024 l 1,13,14
 928 1057 928 1057 924 1086 c 128,-1,15
 920 1115 920 1115 906.5 1136.5 c 128,-1,16
 893 1158 893 1158 868 1171 c 128,-1,17
 843 1184 843 1184 800 1184 c 0,18,19
 740 1184 740 1184 707.5 1145 c 128,-1,20
 675 1106 675 1106 660 1016 c 0,21,22
 648 943 648 943 643 832 c 1,23,-1
 896 832 l 1,24,-1
 896 576 l 1,25,-1
 640 576 l 1,26,-1
 640 416 l 2,27,28
 640 384 640 384 638.5 348.5 c 128,-1,29
 637 313 637 313 635 283 c 1,30,31
 655 280 655 280 679 275 c 128,-1,32
 703 270 703 270 726.5 266 c 128,-1,33
 750 262 750 262 769.5 259 c 128,-1,34
 789 256 789 256 800 256 c 0,35,36
 836 256 836 256 855.5 267.5 c 128,-1,37
 875 279 875 279 884 297 c 128,-1,38
 893 315 893 315 894.5 338 c 128,-1,39
 896 361 896 361 896 384 c 1,40,-1
 1216 384 l 1,41,42
 1216 264 1216 264 1182.5 184 c 128,-1,43
 1149 104 1149 104 1094.5 56 c 128,-1,44
 1040 8 1040 8 971 -12 c 128,-1,45
 902 -32 902 -32 832 -32 c 0,46,47
 736 -32 736 -32 670 -21 c 128,-1,48
 604 -10 604 -10 559.5 8 c 128,-1,49
 515 26 515 26 489 49 c 128,-1,50
 463 72 463 72 448 96 c 1,51,52
 379 39 379 39 273 19.5 c 128,-1,53
 167 0 167 0 32 0 c 1,54,-1
 32 257 l 1,55,56
 63 257 63 257 91.5 262.5 c 128,-1,57
 120 268 120 268 142.5 282.5 c 128,-1,58
 165 297 165 297 178.5 321.5 c 128,-1,59
 192 346 192 346 192 384 c 0,60,61
 192 486 192 486 194 576 c 1,62,-1
 32 576 l 1,63,-1
 32 832 l 1,64,-1
 211 832 l 1,0,1
EndSplineSet
EndChar

StartChar: yen
Encoding: 100 165 169
Width: 1400
Flags: W
HStem: 0 21G<500 900> 192 256<100 500 900 1300> 608 256<100 380 1020 1300> 1388 20G<77 555.031 844.969 1323>
VStem: 500 400<0 192 448 608>
LayerCount: 2
Fore
SplineSet
853 1408 m 1,0,-1
 1323 1408 l 1,1,-1
 1020 864 l 1,2,-1
 1300 864 l 1,3,-1
 1300 608 l 1,4,-1
 900 608 l 1,5,-1
 900 448 l 1,6,-1
 1300 448 l 1,7,-1
 1300 192 l 1,8,-1
 900 192 l 1,9,-1
 900 0 l 1,10,-1
 500 0 l 1,11,-1
 500 192 l 1,12,-1
 100 192 l 1,13,-1
 100 448 l 1,14,-1
 500 448 l 1,15,-1
 500 608 l 1,16,-1
 100 608 l 1,17,-1
 100 864 l 1,18,-1
 380 864 l 1,19,-1
 77 1408 l 1,20,-1
 547 1408 l 1,21,-1
 700 1027 l 1,22,-1
 853 1408 l 1,0,-1
EndSplineSet
EndChar

StartChar: florin
Encoding: 200 402 170
Width: 952
Flags: W
HStem: -438 311<-64.3173 212.5> 838 272<53 200 600 884> 1438 311<640.875 894.88>
VStem: 200 400<-83.2393 838 1110 1397.34>
LayerCount: 2
Fore
SplineSet
600 32 m 2,0,1
 600 -101 600 -101 563.5 -191 c 128,-1,2
 527 -281 527 -281 467 -336 c 128,-1,3
 407 -391 407 -391 330 -414.5 c 128,-1,4
 253 -438 253 -438 172 -438 c 0,5,6
 102 -438 102 -438 34.5 -424 c 128,-1,7
 -33 -410 -33 -410 -84 -387 c 1,8,9
 -84 -385 -84 -385 -82.5 -364 c 128,-1,10
 -81 -343 -81 -343 -79 -312.5 c 128,-1,11
 -77 -282 -77 -282 -74 -246.5 c 128,-1,12
 -71 -211 -71 -211 -68.5 -180 c 128,-1,13
 -66 -149 -66 -149 -64.5 -128 c 128,-1,14
 -63 -107 -63 -107 -63 -105 c 1,15,16
 2 -127 2 -127 42 -127 c 0,17,18
 89 -127 89 -127 119.5 -111.5 c 128,-1,19
 150 -96 150 -96 168 -70.5 c 128,-1,20
 186 -45 186 -45 193 -12 c 128,-1,21
 200 21 200 21 200 57 c 2,22,-1
 200 838 l 1,23,-1
 53 838 l 1,24,-1
 53 1110 l 1,25,-1
 200 1110 l 1,26,-1
 200 1301 l 2,27,28
 200 1428 200 1428 236.5 1513.5 c 128,-1,29
 273 1599 273 1599 332 1651.5 c 128,-1,30
 391 1704 391 1704 467 1726.5 c 128,-1,31
 543 1749 543 1749 622 1749 c 2,32,-1
 629 1749 l 2,33,34
 716 1749 716 1749 795.5 1731.5 c 128,-1,35
 875 1714 875 1714 938 1688 c 1,36,37
 938 1686 938 1686 936.5 1665 c 128,-1,38
 935 1644 935 1644 932.5 1613 c 128,-1,39
 930 1582 930 1582 927 1546.5 c 128,-1,40
 924 1511 924 1511 922 1480.5 c 128,-1,41
 920 1450 920 1450 918.5 1429 c 128,-1,42
 917 1408 917 1408 917 1406 c 1,43,44
 866 1421 866 1421 825 1429.5 c 128,-1,45
 784 1438 784 1438 752 1438 c 0,46,47
 698 1438 698 1438 667.5 1417.5 c 128,-1,48
 637 1397 637 1397 622 1363 c 128,-1,49
 607 1329 607 1329 603.5 1285 c 128,-1,50
 600 1241 600 1241 600 1195 c 2,51,-1
 600 1110 l 1,52,-1
 909 1110 l 1,53,54
 901 1069 901 1069 896 1024 c 0,55,56
 891 986 891 986 887.5 937.5 c 128,-1,57
 884 889 884 889 884 838 c 1,58,-1
 600 838 l 1,59,-1
 600 32 l 2,0,1
EndSplineSet
EndChar

StartChar: Euro
Encoding: 227 8364 171
Width: 1452
Flags: W
HStem: -28 303<743.694 927.792> 468 175<52 200 672 889> 738 175<52 200 655 889> 1188 305<744.185 923.496>
VStem: 1007 393<369.783 500 945 1084.24>
LayerCount: 2
Fore
SplineSet
201 913 m 1,0,1
 218 1030 218 1030 261.5 1135 c 128,-1,2
 305 1240 305 1240 381 1319.5 c 128,-1,3
 457 1399 457 1399 568 1446 c 128,-1,4
 679 1493 679 1493 831 1493 c 0,5,6
 965 1493 965 1493 1064.5 1449.5 c 128,-1,7
 1164 1406 1164 1406 1233 1331.5 c 128,-1,8
 1302 1257 1302 1257 1342.5 1157.5 c 128,-1,9
 1383 1058 1383 1058 1400 945 c 1,10,-1
 1008 945 l 1,11,12
 998 998 998 998 981.5 1042.5 c 128,-1,13
 965 1087 965 1087 943 1119.5 c 128,-1,14
 921 1152 921 1152 893 1170 c 128,-1,15
 865 1188 865 1188 831 1188 c 256,16,17
 797 1188 797 1188 768.5 1166.5 c 128,-1,18
 740 1145 740 1145 718 1108 c 128,-1,19
 696 1071 696 1071 680 1020.5 c 128,-1,20
 664 970 664 970 655 913 c 1,21,-1
 889 913 l 1,22,-1
 889 738 l 1,23,-1
 644 738 l 1,24,-1
 644 643 l 1,25,-1
 889 643 l 1,26,-1
 889 468 l 1,27,-1
 672 468 l 1,28,29
 684 426 684 426 699.5 390.5 c 128,-1,30
 715 355 715 355 735 329.5 c 128,-1,31
 755 304 755 304 779 289.5 c 128,-1,32
 803 275 803 275 831 275 c 0,33,34
 898 275 898 275 942 335.5 c 128,-1,35
 986 396 986 396 1007 500 c 1,36,-1
 1400 500 l 1,37,38
 1368 385 1368 385 1326 288 c 128,-1,39
 1284 191 1284 191 1218.5 121 c 128,-1,40
 1153 51 1153 51 1059.5 11.5 c 128,-1,41
 966 -28 966 -28 831 -28 c 0,42,43
 693 -28 693 -28 589 10 c 128,-1,44
 485 48 485 48 410.5 115 c 128,-1,45
 336 182 336 182 289 272.5 c 128,-1,46
 242 363 242 363 218 468 c 1,47,-1
 52 468 l 1,48,-1
 52 643 l 1,49,-1
 200 643 l 1,50,-1
 200 738 l 1,51,-1
 52 738 l 1,52,-1
 52 913 l 1,53,-1
 201 913 l 1,0,1
EndSplineSet
EndChar

StartChar: fraction
Encoding: 226 8260 172
Width: 1000
Flags: W
HStem: 0 21G<26 450.349> 1406 20G<518.001 967>
DStem2: 26 0 443 0 0.344912 0.938635<143.828 1510.6>
LayerCount: 2
Fore
SplineSet
967 1426 m 1,0,-1
 443 0 l 1,1,-1
 26 0 l 1,2,-1
 525 1426 l 1,3,-1
 967 1426 l 1,0,-1
EndSplineSet
EndChar

StartChar: perthousand
Encoding: 223 8240 173
Width: 4001
Flags: W
HStem: -28 237<2205.97 2379.22 3320.97 3494.22> 0 21G<978 1402.35> 299 237<519.971 693.221> 898 230<2207.73 2378.15 3322.73 3493.15> 1225 230<521.73 692.155> 1406 20G<1470 1919>
VStem: 100 341<636.99 1123.49> 772 342<636.99 1124.64> 1786 341<309.99 796.488> 2458 342<309.99 797.638> 2901 341<309.99 796.488> 3573 342<309.99 797.638>
DStem2: 978 0 1395 0 0.344912 0.938635<143.828 1510.6>
LayerCount: 2
Fore
SplineSet
607 299 m 0,0,1
 512 299 512 299 438 322 c 128,-1,2
 364 345 364 345 307.5 385.5 c 128,-1,3
 251 426 251 426 211.5 481.5 c 128,-1,4
 172 537 172 537 147.5 602 c 128,-1,5
 123 667 123 667 111.5 738.5 c 128,-1,6
 100 810 100 810 100 883 c 0,7,8
 100 954 100 954 111 1024.5 c 128,-1,9
 122 1095 122 1095 147 1158.5 c 128,-1,10
 172 1222 172 1222 211 1276.5 c 128,-1,11
 250 1331 250 1331 306.5 1370.5 c 128,-1,12
 363 1410 363 1410 437.5 1432.5 c 128,-1,13
 512 1455 512 1455 607 1455 c 0,14,15
 749 1455 749 1455 846 1406 c 128,-1,16
 943 1357 943 1357 1002.5 1276.5 c 128,-1,17
 1062 1196 1062 1196 1088 1093 c 128,-1,18
 1114 990 1114 990 1114 883 c 0,19,20
 1114 810 1114 810 1102.5 738.5 c 128,-1,21
 1091 667 1091 667 1066.5 602 c 128,-1,22
 1042 537 1042 537 1002.5 481.5 c 128,-1,23
 963 426 963 426 906.5 385.5 c 128,-1,24
 850 345 850 345 775.5 322 c 128,-1,25
 701 299 701 299 607 299 c 0,0,1
607 536 m 0,26,27
 648 536 648 536 679 565.5 c 128,-1,28
 710 595 710 595 730.5 643.5 c 128,-1,29
 751 692 751 692 761.5 754 c 128,-1,30
 772 816 772 816 772 881 c 0,31,32
 772 945 772 945 761.5 1007 c 128,-1,33
 751 1069 751 1069 730.5 1117.5 c 128,-1,34
 710 1166 710 1166 679 1195.5 c 128,-1,35
 648 1225 648 1225 607 1225 c 256,36,37
 566 1225 566 1225 535 1195.5 c 128,-1,38
 504 1166 504 1166 483 1117.5 c 128,-1,39
 462 1069 462 1069 451.5 1007 c 128,-1,40
 441 945 441 945 441 881 c 0,41,42
 441 816 441 816 451.5 754 c 128,-1,43
 462 692 462 692 482.5 643.5 c 128,-1,44
 503 595 503 595 534 565.5 c 128,-1,45
 565 536 565 536 607 536 c 0,26,27
2293 -28 m 0,46,47
 2198 -28 2198 -28 2124 -5 c 128,-1,48
 2050 18 2050 18 1993.5 58.5 c 128,-1,49
 1937 99 1937 99 1897.5 154.5 c 128,-1,50
 1858 210 1858 210 1833.5 275 c 128,-1,51
 1809 340 1809 340 1797.5 411.5 c 128,-1,52
 1786 483 1786 483 1786 556 c 0,53,54
 1786 628 1786 628 1797 698 c 128,-1,55
 1808 768 1808 768 1833 831.5 c 128,-1,56
 1858 895 1858 895 1897 949.5 c 128,-1,57
 1936 1004 1936 1004 1992.5 1043.5 c 128,-1,58
 2049 1083 2049 1083 2123.5 1105.5 c 128,-1,59
 2198 1128 2198 1128 2293 1128 c 0,60,61
 2435 1128 2435 1128 2532 1079 c 128,-1,62
 2629 1030 2629 1030 2688.5 949.5 c 128,-1,63
 2748 869 2748 869 2774 766 c 128,-1,64
 2800 663 2800 663 2800 556 c 0,65,66
 2800 483 2800 483 2788.5 411.5 c 128,-1,67
 2777 340 2777 340 2752.5 275 c 128,-1,68
 2728 210 2728 210 2688.5 154.5 c 128,-1,69
 2649 99 2649 99 2592.5 58.5 c 128,-1,70
 2536 18 2536 18 2461.5 -5 c 128,-1,71
 2387 -28 2387 -28 2293 -28 c 0,46,47
2293 209 m 0,72,73
 2334 209 2334 209 2365 238.5 c 128,-1,74
 2396 268 2396 268 2416.5 316.5 c 128,-1,75
 2437 365 2437 365 2447.5 427 c 128,-1,76
 2458 489 2458 489 2458 554 c 0,77,78
 2458 618 2458 618 2447.5 680 c 128,-1,79
 2437 742 2437 742 2416.5 790.5 c 128,-1,80
 2396 839 2396 839 2365 868.5 c 128,-1,81
 2334 898 2334 898 2293 898 c 256,82,83
 2252 898 2252 898 2221 868.5 c 128,-1,84
 2190 839 2190 839 2169 790.5 c 128,-1,85
 2148 742 2148 742 2137.5 680 c 128,-1,86
 2127 618 2127 618 2127 554 c 0,87,88
 2127 489 2127 489 2137.5 427 c 128,-1,89
 2148 365 2148 365 2168.5 316.5 c 128,-1,90
 2189 268 2189 268 2220 238.5 c 128,-1,91
 2251 209 2251 209 2293 209 c 0,72,73
1919 1426 m 1,92,-1
 1395 0 l 1,93,-1
 978 0 l 1,94,-1
 1477 1426 l 1,95,-1
 1919 1426 l 1,92,-1
3408 -28 m 0,96,97
 3313 -28 3313 -28 3239 -5 c 128,-1,98
 3165 18 3165 18 3108.5 58.5 c 128,-1,99
 3052 99 3052 99 3012.5 154.5 c 128,-1,100
 2973 210 2973 210 2948.5 275 c 128,-1,101
 2924 340 2924 340 2912.5 411.5 c 128,-1,102
 2901 483 2901 483 2901 556 c 0,103,104
 2901 628 2901 628 2912 698 c 128,-1,105
 2923 768 2923 768 2948 831.5 c 128,-1,106
 2973 895 2973 895 3012 949.5 c 128,-1,107
 3051 1004 3051 1004 3107.5 1043.5 c 128,-1,108
 3164 1083 3164 1083 3238.5 1105.5 c 128,-1,109
 3313 1128 3313 1128 3408 1128 c 0,110,111
 3550 1128 3550 1128 3647 1079 c 128,-1,112
 3744 1030 3744 1030 3803.5 949.5 c 128,-1,113
 3863 869 3863 869 3889 766 c 128,-1,114
 3915 663 3915 663 3915 556 c 0,115,116
 3915 483 3915 483 3903.5 411.5 c 128,-1,117
 3892 340 3892 340 3867.5 275 c 128,-1,118
 3843 210 3843 210 3803.5 154.5 c 128,-1,119
 3764 99 3764 99 3707.5 58.5 c 128,-1,120
 3651 18 3651 18 3576.5 -5 c 128,-1,121
 3502 -28 3502 -28 3408 -28 c 0,96,97
3408 209 m 0,122,123
 3449 209 3449 209 3480 238.5 c 128,-1,124
 3511 268 3511 268 3531.5 316.5 c 128,-1,125
 3552 365 3552 365 3562.5 427 c 128,-1,126
 3573 489 3573 489 3573 554 c 0,127,128
 3573 618 3573 618 3562.5 680 c 128,-1,129
 3552 742 3552 742 3531.5 790.5 c 128,-1,130
 3511 839 3511 839 3480 868.5 c 128,-1,131
 3449 898 3449 898 3408 898 c 256,132,133
 3367 898 3367 898 3336 868.5 c 128,-1,134
 3305 839 3305 839 3284 790.5 c 128,-1,135
 3263 742 3263 742 3252.5 680 c 128,-1,136
 3242 618 3242 618 3242 554 c 0,137,138
 3242 489 3242 489 3252.5 427 c 128,-1,139
 3263 365 3263 365 3283.5 316.5 c 128,-1,140
 3304 268 3304 268 3335 238.5 c 128,-1,141
 3366 209 3366 209 3408 209 c 0,122,123
EndSplineSet
EndChar

StartChar: plusminus
Encoding: 111 177 174
Width: 900
Flags: W
HStem: 0 249<100 800> 604 256<100 300 600 800> 1088 20G<300 600>
VStem: 100 700<0 249 604 860> 300 300<360 604 860 1108>
LayerCount: 2
Fore
SplineSet
300 604 m 1,0,-1
 100 604 l 1,1,-1
 100 860 l 1,2,-1
 300 860 l 1,3,-1
 300 1108 l 1,4,-1
 600 1108 l 1,5,-1
 600 860 l 1,6,-1
 800 860 l 1,7,-1
 800 604 l 1,8,-1
 600 604 l 1,9,-1
 600 360 l 1,10,-1
 300 360 l 1,11,-1
 300 604 l 1,0,-1
800 249 m 1,12,-1
 800 0 l 1,13,-1
 100 0 l 1,14,-1
 100 249 l 1,15,-1
 800 249 l 1,12,-1
EndSplineSet
EndChar

StartChar: divide
Encoding: 181 247 175
Width: 896
Flags: W
HStem: 64 320<326.544 569.525> 480 224<64 832> 800 320<326.544 569.525>
VStem: 278 341<112.409 334.898 848.864 1070.9>
CounterMasks: 1 e0
LayerCount: 2
Fore
SplineSet
448 8.400390625 m 4,0,1
 404 8.400390625 404 8.400390625 372 22.400390625 c 132,-1,2
 340 36.400390625 340 36.400390625 319 58.900390625 c 132,-1,3
 298 81.400390625 298 81.400390625 288 110.400390625 c 132,-1,4
 278 139.400390625 278 139.400390625 278 168.400390625 c 4,5,6
 278 198.400390625 278 198.400390625 289 226.900390625 c 132,-1,7
 300 255.400390625 300 255.400390625 321 277.900390625 c 132,-1,8
 342 300.400390625 342 300.400390625 374 314.400390625 c 132,-1,9
 406 328.400390625 406 328.400390625 448 328.400390625 c 260,10,11
 490 328.400390625 490 328.400390625 522 314.400390625 c 132,-1,12
 554 300.400390625 554 300.400390625 575.5 277.900390625 c 132,-1,13
 597 255.400390625 597 255.400390625 608 226.900390625 c 132,-1,14
 619 198.400390625 619 198.400390625 619 168.400390625 c 4,15,16
 619 139.400390625 619 139.400390625 608.5 110.400390625 c 132,-1,17
 598 81.400390625 598 81.400390625 576.5 58.900390625 c 132,-1,18
 555 36.400390625 555 36.400390625 523 22.400390625 c 132,-1,19
 491 8.400390625 491 8.400390625 448 8.400390625 c 4,0,1
448 800 m 0,20,21
 404 800 404 800 372 814 c 128,-1,22
 340 828 340 828 319 851 c 128,-1,23
 298 874 298 874 288 902.5 c 128,-1,24
 278 931 278 931 278 960 c 0,25,26
 278 990 278 990 289 1018.5 c 128,-1,27
 300 1047 300 1047 321 1069.5 c 128,-1,28
 342 1092 342 1092 374 1106 c 128,-1,29
 406 1120 406 1120 448 1120 c 256,30,31
 490 1120 490 1120 522 1106 c 128,-1,32
 554 1092 554 1092 575.5 1069.5 c 128,-1,33
 597 1047 597 1047 608 1018.5 c 128,-1,34
 619 990 619 990 619 960 c 0,35,36
 619 931 619 931 608.5 902.5 c 128,-1,37
 598 874 598 874 576.5 851 c 128,-1,38
 555 828 555 828 523 814 c 128,-1,39
 491 800 491 800 448 800 c 0,20,21
832 704 m 1,40,-1
 832 480 l 1,41,-1
 64 480 l 1,42,-1
 64 704 l 1,43,-1
 832 704 l 1,40,-1
EndSplineSet
EndChar

StartChar: notequal
Encoding: 238 8800 176
Width: 1088
Flags: W
HStem: 0 21G<215.2 461.021> 263 256<107.2 305.372 636.206 948.2> 672 256<107.2 445.6 779.794 948.2> 1100 20G<592.343 847.2>
DStem2: 215.2 0 454 0 0.331251 0.943543<79.1027 278.021 629.157 710.381 1062.63 1183.97>
LayerCount: 2
Fore
SplineSet
948.200195312 928 m 1,0,-1
 948.200195312 672 l 1,1,-1
 689.920117187 672 l 1,2,-1
 636.206161935 519 l 1,3,-1
 948.200195312 519 l 1,4,-1
 948.200195312 263 l 1,5,-1
 546.331831578 263 l 1,6,-1
 454 0 l 1,7,-1
 215.200195312 0 l 1,8,-1
 305.371623884 263 l 1,9,-1
 107.200195312 263 l 1,10,-1
 107.200195312 519 l 1,11,-1
 393.143052455 519 l 1,12,-1
 445.600195312 672 l 1,13,-1
 107.200195312 672 l 1,14,-1
 107.200195312 928 l 1,15,-1
 533.371623884 928 l 1,16,-1
 599.200195312 1120 l 1,17,-1
 847.200195312 1120 l 1,18,-1
 779.794447545 928 l 1,19,-1
 948.200195312 928 l 1,0,-1
EndSplineSet
EndChar

StartChar: approxequal
Encoding: 237 8776 177
Width: 1400
Flags: W
HStem: 257 333<814.863 1069.53> 448 333<346.347 579.131> 836 333<814.863 1069.53> 1027 333<346.347 579.131>
LayerCount: 2
Fore
SplineSet
885 836 m 0,0,1
 846 836 846 836 808.5 850 c 128,-1,2
 771 864 771 864 733.5 885.5 c 128,-1,3
 696 907 696 907 659.5 931.5 c 128,-1,4
 623 956 623 956 587 977.5 c 128,-1,5
 551 999 551 999 515.5 1013 c 128,-1,6
 480 1027 480 1027 445 1027 c 0,7,8
 388 1027 388 1027 345 994.5 c 128,-1,9
 302 962 302 962 285 893 c 1,10,-1
 55 976 l 1,11,12
 91 1075 91 1075 140 1147 c 128,-1,13
 189 1219 189 1219 248 1266.5 c 128,-1,14
 307 1314 307 1314 373.5 1337 c 128,-1,15
 440 1360 440 1360 509 1360 c 0,16,17
 547 1360 547 1360 585 1346 c 128,-1,18
 623 1332 623 1332 660.5 1310.5 c 128,-1,19
 698 1289 698 1289 734.5 1264.5 c 128,-1,20
 771 1240 771 1240 807 1218.5 c 128,-1,21
 843 1197 843 1197 878 1183 c 128,-1,22
 913 1169 913 1169 948 1169 c 0,23,24
 1004 1169 1004 1169 1045 1193.5 c 128,-1,25
 1086 1218 1086 1218 1103 1272 c 1,26,-1
 1334 1189 l 1,27,28
 1299 1098 1299 1098 1250 1031.5 c 128,-1,29
 1201 965 1201 965 1143 921.5 c 128,-1,30
 1085 878 1085 878 1019.5 857 c 128,-1,31
 954 836 954 836 885 836 c 0,0,1
885 257 m 0,32,33
 846 257 846 257 808.5 271 c 128,-1,34
 771 285 771 285 733.5 306.5 c 128,-1,35
 696 328 696 328 659.5 352.5 c 128,-1,36
 623 377 623 377 587 398.5 c 128,-1,37
 551 420 551 420 515.5 434 c 128,-1,38
 480 448 480 448 445 448 c 0,39,40
 388 448 388 448 345 415.5 c 128,-1,41
 302 383 302 383 285 314 c 1,42,-1
 55 397 l 1,43,44
 91 496 91 496 140 568 c 128,-1,45
 189 640 189 640 248 687.5 c 128,-1,46
 307 735 307 735 373.5 758 c 128,-1,47
 440 781 440 781 509 781 c 0,48,49
 547 781 547 781 585 767 c 128,-1,50
 623 753 623 753 660.5 731.5 c 128,-1,51
 698 710 698 710 734.5 685.5 c 128,-1,52
 771 661 771 661 807 639.5 c 128,-1,53
 843 618 843 618 878 604 c 128,-1,54
 913 590 913 590 948 590 c 0,55,56
 1004 590 1004 590 1045 614.5 c 128,-1,57
 1086 639 1086 639 1103 693 c 1,58,-1
 1334 610 l 1,59,60
 1299 519 1299 519 1250 452.5 c 128,-1,61
 1201 386 1201 386 1143 342.5 c 128,-1,62
 1085 299 1085 299 1019.5 278 c 128,-1,63
 954 257 954 257 885 257 c 0,32,33
EndSplineSet
EndChar

StartChar: lessequal
Encoding: 239 8804 178
Width: 896
Flags: W
HStem: -5 263<96 800>
VStem: 96 192<640 1024>
LayerCount: 2
Fore
SplineSet
800 258 m 1,0,-1
 800 -5 l 1,1,-1
 96 -5 l 1,2,-1
 96 258 l 1,3,-1
 800 258 l 1,0,-1
96 1024 m 1,4,-1
 800 1280 l 1,5,-1
 800 960 l 1,6,-1
 288 832 l 1,7,-1
 800 704 l 1,8,-1
 800 384 l 1,9,-1
 96 640 l 1,10,-1
 96 1024 l 1,4,-1
EndSplineSet
EndChar

StartChar: greaterequal
Encoding: 240 8805 179
Width: 896
Flags: W
HStem: 0 258<89 783>
VStem: 601 182<640 1024>
LayerCount: 2
Fore
SplineSet
783 258 m 1,0,-1
 783 0 l 1,1,-1
 89 0 l 1,2,-1
 89 258 l 1,3,-1
 783 258 l 1,0,-1
783 640 m 1,4,-1
 89 384 l 1,5,-1
 89 704 l 1,6,-1
 601 832 l 1,7,-1
 89 960 l 1,8,-1
 89 1280 l 1,9,-1
 783 1024 l 1,10,-1
 783 640 l 1,4,-1
EndSplineSet
EndChar

StartChar: logicalnot
Encoding: 107 172 180
Width: 992
Flags: W
HStem: 529 303<320 896>
VStem: 96 224<288 529>
LayerCount: 2
Fore
SplineSet
896 832 m 1,0,-1
 896 529 l 1,1,-1
 320 529 l 1,2,-1
 320 288 l 1,3,-1
 96 288 l 1,4,-1
 96 832 l 1,5,-1
 896 832 l 1,0,-1
EndSplineSet
EndChar

StartChar: Delta
Encoding: 230 8710 181
Width: 1504
Flags: W
HStem: 0 299.2<549 918> 1388 20G<418.886 1055.53>
LayerCount: 2
Fore
SplineSet
1439 0 m 1,0,-1
 64 0 l 1,1,-1
 424 1408 l 1,2,-1
 1050 1408 l 1,3,-1
 1439 0 l 1,0,-1
715 1194 m 1,4,-1
 549 299.200195312 l 1,5,-1
 918 299.200195312 l 1,6,-1
 746 1194 l 1,7,-1
 715 1194 l 1,4,-1
EndSplineSet
EndChar

StartChar: mu
Encoding: 115 181 183
Width: 1547
Flags: W
HStem: 0 267<630.725 789.525> 1068 20G<128 576 928 1376>
VStem: 128 448<325.493 1088> 128 416<-352 0> 928 448<0 226.258 348.002 1088>
LayerCount: 2
Fore
SplineSet
128 1088 m 1,0,-1
 576 1088 l 1,1,-1
 576 540 l 2,2,3
 576 465 576 465 587.5 413 c 128,-1,4
 599 361 599 361 619 328.5 c 128,-1,5
 639 296 639 296 665 281.5 c 128,-1,6
 691 267 691 267 720 267 c 0,7,8
 754 267 754 267 788.5 280.5 c 128,-1,9
 823 294 823 294 851.5 317 c 128,-1,10
 880 340 880 340 900.5 371 c 128,-1,11
 921 402 921 402 928 437 c 1,12,-1
 928 1088 l 1,13,-1
 1376 1088 l 1,14,-1
 1376 0 l 1,15,-1
 921 0 l 1,16,17
 932 34 932 34 941.5 87.5 c 128,-1,18
 951 141 951 141 951 229 c 1,19,20
 922 181 922 181 895 139.5 c 128,-1,21
 868 98 868 98 826 67 c 128,-1,22
 784 36 784 36 718 18 c 128,-1,23
 652 0 652 0 544 0 c 1,24,-1
 544 -352 l 1,25,-1
 128 -352 l 1,26,-1
 128 1088 l 1,0,-1
EndSplineSet
EndChar

StartChar: pi
Encoding: 210 960 184
Width: 1632
Flags: W
HStem: 0 21G<159.963 544 948 1375> 896.2 288<544 948>
VStem: 160 384<0 896.2> 948 427<0 896.2>
LayerCount: 2
Fore
SplineSet
157.799804688 1184.20019531 m 5,0,-1
 1374.79980469 1184.20019531 l 5,1,-1
 1375 0 l 1,2,-1
 948 0 l 1,3,-1
 948 896.200195312 l 5,4,-1
 544 896.200195312 l 5,5,-1
 544 0 l 1,6,-1
 160 0 l 1,7,-1
 157.799804688 1184.20019531 l 5,0,-1
EndSplineSet
EndChar

StartChar: degree
Encoding: 110 176 185
Width: 800
Flags: W
HStem: 823 160<300.066 499.015> 1266 160<298.811 501.051>
VStem: 90 175<1017.79 1232.75> 534 180<1017.79 1233.02>
LayerCount: 2
Fore
SplineSet
401 823 m 0,0,1
 324 823 324 823 266 849 c 128,-1,2
 208 875 208 875 169 918 c 128,-1,3
 130 961 130 961 110 1015 c 128,-1,4
 90 1069 90 1069 90 1126 c 0,5,6
 90 1182 90 1182 109.5 1236 c 128,-1,7
 129 1290 129 1290 168 1332 c 128,-1,8
 207 1374 207 1374 265 1400 c 128,-1,9
 323 1426 323 1426 401 1426 c 256,10,11
 479 1426 479 1426 537.5 1400 c 128,-1,12
 596 1374 596 1374 635 1332 c 128,-1,13
 674 1290 674 1290 694 1236 c 128,-1,14
 714 1182 714 1182 714 1126 c 0,15,16
 714 1069 714 1069 694 1015 c 128,-1,17
 674 961 674 961 635 918 c 128,-1,18
 596 875 596 875 537.5 849 c 128,-1,19
 479 823 479 823 401 823 c 0,0,1
400 983 m 256,20,21
 432 983 432 983 457 995 c 128,-1,22
 482 1007 482 1007 499 1027.5 c 128,-1,23
 516 1048 516 1048 525 1073.5 c 128,-1,24
 534 1099 534 1099 534 1126 c 256,25,26
 534 1153 534 1153 525.5 1178 c 128,-1,27
 517 1203 517 1203 500 1222.5 c 128,-1,28
 483 1242 483 1242 458 1254 c 128,-1,29
 433 1266 433 1266 400 1266 c 256,30,31
 367 1266 367 1266 342 1254 c 128,-1,32
 317 1242 317 1242 299.5 1222.5 c 128,-1,33
 282 1203 282 1203 273.5 1178 c 128,-1,34
 265 1153 265 1153 265 1126 c 256,35,36
 265 1099 265 1099 274 1073.5 c 128,-1,37
 283 1048 283 1048 300 1027.5 c 128,-1,38
 317 1007 317 1007 342.5 995 c 128,-1,39
 368 983 368 983 400 983 c 256,20,21
EndSplineSet
EndChar

StartChar: infinity
Encoding: 235 8734 186
Width: 1460
Flags: W
HStem: 330.652 190.348<918.733 1137.84> 393.372 189.628<294.209 476.059> 867 181.572<294.467 479.856> 924 188.412<923.149 1138.37>
VStem: 77.5195 185.48<617.277 833.664> 1191 207.78<579.654 870.287>
LayerCount: 2
Fore
SplineSet
680.580078125 857.051757812 m 1,0,1
 764.940429688 992.572265625 764.940429688 992.572265625 852.719726562 1052.4921875 c 128,-1,2
 940.5 1112.41210938 940.5 1112.41210938 1048.79980469 1112.41210938 c 0,3,4
 1199.28027344 1112.41210938 1199.28027344 1112.41210938 1299.03027344 1007.69238281 c 128,-1,5
 1398.78027344 902.971679688 1398.78027344 902.971679688 1398.78027344 721.532226562 c 256,6,7
 1398.78027344 540.091796875 1398.78027344 540.091796875 1299.03027344 435.372070312 c 128,-1,8
 1199.28027344 330.65234375 1199.28027344 330.65234375 1048.79980469 330.65234375 c 0,9,10
 941.639648438 330.65234375 941.639648438 330.65234375 853.860351562 390.01171875 c 128,-1,11
 766.080078125 449.372070312 766.080078125 449.372070312 680.580078125 586.01171875 c 1,12,13
 612.1796875 491.931640625 612.1796875 491.931640625 523.259765625 442.65234375 c 128,-1,14
 434.33984375 393.372070312 434.33984375 393.372070312 353.400390625 393.372070312 c 0,15,16
 238.259765625 393.372070312 238.259765625 393.372070312 157.889648438 481.291992188 c 128,-1,17
 77.51953125 569.211914062 77.51953125 569.211914062 77.51953125 721.532226562 c 256,18,19
 77.51953125 873.8515625 77.51953125 873.8515625 157.889648438 961.211914062 c 128,-1,20
 238.259765625 1048.57226562 238.259765625 1048.57226562 353.400390625 1048.57226562 c 0,21,22
 434.33984375 1048.57226562 434.33984375 1048.57226562 523.259765625 999.291992188 c 128,-1,23
 612.1796875 950.01171875 612.1796875 950.01171875 680.580078125 857.051757812 c 1,0,1
800 724 m 1,24,25
 884 595 884 595 918 566 c 0,26,27
 971 521 971 521 1033 521 c 0,28,29
 1109 521 1109 521 1150 580 c 128,-1,30
 1191 639 1191 639 1191 726 c 0,31,32
 1191 820 1191 820 1146 872 c 128,-1,33
 1101 924 1101 924 1036 924 c 0,34,35
 985 924 985 924 933.5 888 c 128,-1,36
 882 852 882 852 800 724 c 1,24,25
566 726 m 1,37,38
 466 867 466 867 376 867 c 0,39,40
 330 867 330 867 296.5 830 c 128,-1,41
 263 793 263 793 263 727 c 0,42,43
 263 659 263 659 296 621 c 128,-1,44
 329 583 329 583 376 583 c 0,45,46
 415 583 415 583 446 604 c 0,47,48
 500 640 500 640 566 726 c 1,37,38
EndSplineSet
EndChar

StartChar: partialdiff
Encoding: 229 8706 187
Width: 1504
Flags: W
HStem: -32 288<550.425 842.73> 608 256<570.069 895.323> 1120 321<378.713 859.147>
VStem: 151.6 352.179<302.359 542.374> 930.336 420.594<398.264 608 800 1049.02>
LayerCount: 2
Fore
SplineSet
317.059570312 1056 m 1,0,1
 304.147460938 1376 l 1,2,3
 390.055664062 1408 390.055664062 1408 503.540039062 1424.5 c 128,-1,4
 617.024414062 1441 617.024414062 1441 740.024414062 1441 c 0,5,6
 880.024414062 1441 880.024414062 1441 980.9140625 1414 c 128,-1,7
 1081.80371094 1387 1081.80371094 1387 1151.85058594 1337.5 c 128,-1,8
 1221.8984375 1288 1221.8984375 1288 1264.25292969 1218.5 c 128,-1,9
 1306.60644531 1149 1306.60644531 1149 1327.59667969 1065 c 128,-1,10
 1348.5859375 981 1348.5859375 981 1352.859375 885 c 128,-1,11
 1357.1328125 789 1357.1328125 789 1350.9296875 685 c 0,12,13
 1345.14355469 588 1345.14355469 588 1329.21484375 497 c 128,-1,14
 1313.28710938 406 1313.28710938 406 1282.04492188 326.5 c 128,-1,15
 1250.80273438 247 1250.80273438 247 1200.86621094 181 c 128,-1,16
 1150.92871094 115 1150.92871094 115 1076.09570312 67.5 c 128,-1,17
 1001.26269531 20 1001.26269531 20 899.211914062 -6 c 128,-1,18
 797.16015625 -32 797.16015625 -32 661.16015625 -32 c 0,19,20
 553.16015625 -32 553.16015625 -32 472.263671875 -13.5 c 128,-1,21
 391.3671875 5 391.3671875 5 333.806640625 37.5 c 128,-1,22
 276.245117188 70 276.245117188 70 239.369140625 114 c 128,-1,23
 202.494140625 158 202.494140625 158 181.536132812 209 c 128,-1,24
 160.578125 260 160.578125 260 154.418945312 316 c 128,-1,25
 148.258789062 372 148.258789062 372 151.599609375 428 c 0,26,27
 157.921875 534 157.921875 534 199.284179688 615.5 c 128,-1,28
 240.645507812 697 240.645507812 697 305.42578125 752 c 128,-1,29
 370.20703125 807 370.20703125 807 452.90625 835.5 c 128,-1,30
 535.606445312 864 535.606445312 864 625.606445312 864 c 0,31,32
 662.606445312 864 662.606445312 864 702.897460938 860.5 c 128,-1,33
 743.189453125 857 743.189453125 857 784.711914062 849 c 128,-1,34
 826.234375 841 826.234375 841 866.018554688 829 c 128,-1,35
 905.802734375 817 905.802734375 817 941.7890625 800 c 1,36,37
 947.515625 896 947.515625 896 930.213867188 958 c 128,-1,38
 912.912109375 1020 912.912109375 1020 880.059570312 1056 c 128,-1,39
 847.20703125 1092 847.20703125 1092 801.541992188 1106 c 128,-1,40
 755.876953125 1120 755.876953125 1120 704.876953125 1120 c 0,41,42
 628.876953125 1120 628.876953125 1120 565.899414062 1112 c 128,-1,43
 502.922851562 1104 502.922851562 1104 453.795898438 1093.5 c 128,-1,44
 404.669921875 1083 404.669921875 1083 370.043945312 1072.5 c 128,-1,45
 335.416992188 1062 335.416992188 1062 317.059570312 1056 c 1,0,1
930.3359375 608 m 1,46,-1
 707.3359375 608 l 2,47,48
 656.3359375 608 656.3359375 608 618.94140625 593 c 128,-1,49
 581.546875 578 581.546875 578 556.555664062 553 c 128,-1,50
 531.564453125 528 531.564453125 528 518.655273438 496 c 128,-1,51
 505.747070312 464 505.747070312 464 503.778320312 431 c 256,52,53
 501.809570312 398 501.809570312 398 511.430664062 366.5 c 128,-1,54
 521.051757812 335 521.051757812 335 541.090820312 310.5 c 128,-1,55
 561.12890625 286 561.12890625 286 592.734375 271 c 128,-1,56
 624.33984375 256 624.33984375 256 666.33984375 256 c 0,57,58
 729.33984375 256 729.33984375 256 775.936523438 266 c 128,-1,59
 822.532226562 276 822.532226562 276 854.1796875 312 c 128,-1,60
 885.827148438 348 885.827148438 348 904.502929688 418 c 128,-1,61
 923.178710938 488 923.178710938 488 930.3359375 608 c 1,46,-1
EndSplineSet
EndChar

StartChar: integral
Encoding: 236 8747 188
Width: 952
Flags: W
HStem: -438 311<-64.3173 212.5> 1438 311<640.875 894.88>
VStem: 200 400<-83.2393 1397.34>
LayerCount: 2
Fore
SplineSet
200 1301 m 1,0,1
 200 1428 200 1428 236.5 1513.5 c 128,-1,2
 273 1599 273 1599 332 1651.5 c 128,-1,3
 391 1704 391 1704 467 1726.5 c 128,-1,4
 543 1749 543 1749 622 1749 c 2,5,-1
 629 1749 l 2,6,7
 716 1749 716 1749 795.5 1731.5 c 128,-1,8
 875 1714 875 1714 938 1688 c 1,9,10
 938 1686 938 1686 936.5 1665 c 128,-1,11
 935 1644 935 1644 932.5 1613 c 128,-1,12
 930 1582 930 1582 927 1546.5 c 128,-1,13
 924 1511 924 1511 922 1480.5 c 128,-1,14
 920 1450 920 1450 918.5 1429 c 128,-1,15
 917 1408 917 1408 917 1406 c 1,16,17
 866 1421 866 1421 825 1429.5 c 128,-1,18
 784 1438 784 1438 752 1438 c 0,19,20
 698 1438 698 1438 667.5 1417.5 c 128,-1,21
 637 1397 637 1397 622 1363 c 128,-1,22
 607 1329 607 1329 603.5 1285 c 128,-1,23
 600 1241 600 1241 600 1195 c 1,24,-1
 600 32 l 2,25,26
 600 -101 600 -101 563.5 -191 c 128,-1,27
 527 -281 527 -281 467 -336 c 128,-1,28
 407 -391 407 -391 330 -414.5 c 128,-1,29
 253 -438 253 -438 172 -438 c 0,30,31
 102 -438 102 -438 34.5 -424 c 128,-1,32
 -33 -410 -33 -410 -84 -387 c 1,33,34
 -84 -385 -84 -385 -82.5 -364 c 128,-1,35
 -81 -343 -81 -343 -79 -312.5 c 128,-1,36
 -77 -282 -77 -282 -74 -246.5 c 128,-1,37
 -71 -211 -71 -211 -68.5 -180 c 128,-1,38
 -66 -149 -66 -149 -64.5 -128 c 128,-1,39
 -63 -107 -63 -107 -63 -105 c 1,40,41
 2 -127 2 -127 42 -127 c 0,42,43
 89 -127 89 -127 119.5 -111.5 c 128,-1,44
 150 -96 150 -96 168 -70.5 c 128,-1,45
 186 -45 186 -45 193 -12 c 128,-1,46
 200 21 200 21 200 57 c 2,47,-1
 200 1301 l 1,0,1
EndSplineSet
EndChar

StartChar: radical
Encoding: 234 8730 189
Width: 1376
Flags: W
DStem2: 431.4 734 64.4004 734 0.425381 -0.905014<0 507.926>
LayerCount: 2
Fore
SplineSet
1376 1410 m 1,0,-1
 891 1410 l 1,1,-1
 640.400390625 271 l 1,2,-1
 431.400390625 734 l 1,3,-1
 64.400390625 734 l 1,4,-1
 409.400390625 0 l 1,5,-1
 956.400390625 0 l 1,6,-1
 1376 1410 l 1,0,-1
EndSplineSet
EndChar

StartChar: summation
Encoding: 232 8721 190
Width: 1248
Flags: W
HStem: 0 288<608 1152> 1152 256<608 1152>
LayerCount: 2
Fore
SplineSet
607.200195312 728.200195312 m 1,0,-1
 160 1148.20019531 l 1,1,-1
 160 1408 l 1,2,-1
 1152 1408 l 1,3,-1
 1152 1152 l 1,4,-1
 608 1152 l 1,5,-1
 1090.20019531 767.200195312 l 1,6,-1
 1090.20019531 683.200195312 l 1,7,-1
 608 288 l 1,8,-1
 1152 288 l 1,9,-1
 1152 0 l 1,10,-1
 160 0 l 1,11,-1
 160 284.200195312 l 1,12,-1
 607.200195312 728.200195312 l 1,0,-1
EndSplineSet
EndChar

StartChar: product
Encoding: 231 8719 191
Width: 1452
Flags: W
HStem: 0 21G<160 608 856.8 1288.8> 1120 288<608 856.8>
VStem: 160 448<0 1120> 856.8 432<0 1120>
LayerCount: 2
Fore
SplineSet
160 1408 m 9,0,-1
 1288.79980469 1408 l 17,1,-1
 1288.79980469 0 l 1,2,-1
 856.799804688 0 l 1,3,-1
 856.799804688 1120 l 1,4,-1
 608 1120 l 1,5,-1
 608 0 l 1,6,-1
 160 0 l 1,7,-1
 160 1408 l 9,0,-1
EndSplineSet
EndChar

StartChar: lozenge
Encoding: 241 9674 192
Width: 1376
Flags: W
HStem: 0 21G<412.991 973.895>
VStem: 174 440<482 922> 842 367<518.5 885.5>
LayerCount: 2
Fore
SplineSet
614 702 m 1,0,-1
 734 204 l 1,1,-1
 842 702 l 1,2,-1
 734 1200 l 1,3,-1
 614 702 l 1,0,-1
174 702 m 1,4,-1
 420 1404 l 1,5,-1
 967 1404 l 1,6,-1
 1209 702 l 1,7,-1
 967 0 l 1,8,-1
 420 0 l 1,9,-1
 174 702 l 1,4,-1
EndSplineSet
EndChar

StartChar: x
Encoding: 88 120 193
Width: 1408
Flags: W
HStem: 0 21G<123 496.474 871.357 1373>
LayerCount: 2
Fore
SplineSet
1013 562 m 1,0,-1
 1373 0 l 1,1,-1
 883 0 l 1,2,-1
 674 359 l 1,3,-1
 486 0 l 1,4,-1
 123 0 l 1,5,-1
 430 556 l 1,6,-1
 70 1079 l 1,7,-1
 560 1079 l 1,8,-1
 779 750 l 1,9,-1
 960 1079 l 1,10,-1
 1323 1079 l 1,11,-1
 1013 562 l 1,0,-1
EndSplineSet
EndChar

StartChar: y
Encoding: 89 121 194
Width: 1472
Flags: W
HStem: -480 320<326.781 799.7> 32 243<552 776.572>
VStem: 192 384<328.156 1079> 896 416<-66.3657 188 321.658 1079>
DStem2: 436 -140 391 -454 0.98528 -0.170948<-89.0078 180.214>
LayerCount: 2
Fore
SplineSet
896 1079 m 1,0,-1
 1312 1079 l 1,1,-1
 1312 151 l 2,2,3
 1312 -18 1312 -18 1263.5 -137.5 c 128,-1,4
 1215 -257 1215 -257 1133 -333 c 128,-1,5
 1051 -409 1051 -409 943 -444.5 c 128,-1,6
 835 -480 835 -480 715 -480 c 0,7,8
 661 -480 661 -480 605.5 -477.5 c 128,-1,9
 550 -475 550 -475 496 -469 c 128,-1,10
 442 -463 442 -463 391 -454 c 128,-1,11
 340 -445 340 -445 295 -432 c 1,12,-1
 325 -120 l 1,13,14
 382 -131 382 -131 436 -140 c 0,15,16
 459 -144 459 -144 483.5 -147.5 c 128,-1,17
 508 -151 508 -151 531.5 -154 c 128,-1,18
 555 -157 555 -157 576.5 -158.5 c 128,-1,19
 598 -160 598 -160 616 -160 c 0,20,21
 709 -160 709 -160 764.5 -136 c 128,-1,22
 820 -112 820 -112 849.5 -70 c 128,-1,23
 879 -28 879 -28 887.5 29.5 c 128,-1,24
 896 87 896 87 896 155 c 2,25,-1
 896 188 l 1,26,27
 876 150 876 150 842.5 121 c 128,-1,28
 809 92 809 92 767.5 72.5 c 128,-1,29
 726 53 726 53 680.5 42.5 c 128,-1,30
 635 32 635 32 592 32 c 0,31,32
 512 32 512 32 440 56.5 c 128,-1,33
 368 81 368 81 312.5 133.5 c 128,-1,34
 257 186 257 186 224.5 268 c 128,-1,35
 192 350 192 350 192 464 c 2,36,-1
 192 1079 l 1,37,-1
 576 1079 l 1,38,-1
 576 484 l 2,39,40
 576 412 576 412 594.5 370.5 c 128,-1,41
 613 329 613 329 641.5 308 c 128,-1,42
 670 287 670 287 703.5 281 c 128,-1,43
 737 275 737 275 767 275 c 0,44,45
 793 275 793 275 816.5 290.5 c 128,-1,46
 840 306 840 306 857.5 329.5 c 128,-1,47
 875 353 875 353 885.5 381.5 c 128,-1,48
 896 410 896 410 896 436 c 2,49,-1
 896 1079 l 1,0,-1
EndSplineSet
EndChar

StartChar: S
Encoding: 51 83 195
Width: 1324
Flags: W
HStem: -32 320<268.399 702.99> 1152 288<550.711 981.518>
VStem: 727 480<309.057 467.073>
LayerCount: 2
Fore
SplineSet
639 -32 m 0,0,1
 510 -32 510 -32 379 -11 c 128,-1,2
 248 10 248 10 119 64 c 1,3,-1
 119 384 l 1,4,5
 226 331 226 331 344.5 309.5 c 128,-1,6
 463 288 463 288 586 288 c 0,7,8
 667 288 667 288 697 313.5 c 128,-1,9
 727 339 727 339 727 384 c 0,10,11
 727 409 727 409 717.5 428 c 128,-1,12
 708 447 708 447 685 465 c 128,-1,13
 662 483 662 483 624.5 501.5 c 128,-1,14
 587 520 587 520 531 543 c 0,15,16
 488 561 488 561 438 583 c 128,-1,17
 388 605 388 605 339 634.5 c 128,-1,18
 290 664 290 664 244.5 702.5 c 128,-1,19
 199 741 199 741 164 790.5 c 128,-1,20
 129 840 129 840 108 902 c 128,-1,21
 87 964 87 964 87 1042 c 0,22,23
 87 1121 87 1121 117.5 1193.5 c 128,-1,24
 148 1266 148 1266 216.5 1320.5 c 128,-1,25
 285 1375 285 1375 394.5 1407.5 c 128,-1,26
 504 1440 504 1440 663 1440 c 0,27,28
 717 1440 717 1440 785.5 1434.5 c 128,-1,29
 854 1429 854 1429 923.5 1417.5 c 128,-1,30
 993 1406 993 1406 1059 1388 c 128,-1,31
 1125 1370 1125 1370 1175 1344 c 1,32,-1
 1143 1056 l 1,33,34
 1124 1064 1124 1064 1075 1080 c 128,-1,35
 1026 1096 1026 1096 962 1112 c 128,-1,36
 898 1128 898 1128 827 1140 c 128,-1,37
 756 1152 756 1152 695 1152 c 0,38,39
 663 1152 663 1152 634.5 1147.5 c 128,-1,40
 606 1143 606 1143 583.5 1133.5 c 128,-1,41
 561 1124 561 1124 548 1108.5 c 128,-1,42
 535 1093 535 1093 535 1071 c 0,43,44
 535 1048 535 1048 554.5 1027.5 c 128,-1,45
 574 1007 574 1007 608 988 c 128,-1,46
 642 969 642 969 687 949.5 c 128,-1,47
 732 930 732 930 783 908 c 0,48,49
 828 889 828 889 877 863.5 c 128,-1,50
 926 838 926 838 973 806 c 128,-1,51
 1020 774 1020 774 1062.5 734 c 128,-1,52
 1105 694 1105 694 1137 646 c 128,-1,53
 1169 598 1169 598 1188 540.5 c 128,-1,54
 1207 483 1207 483 1207 416 c 0,55,56
 1207 331 1207 331 1177 250.5 c 128,-1,57
 1147 170 1147 170 1080 107 c 128,-1,58
 1013 44 1013 44 904.5 6 c 128,-1,59
 796 -32 796 -32 639 -32 c 0,0,1
EndSplineSet
EndChar

StartChar: W
Encoding: 55 87 196
Width: 1984
Flags: W
HStem: 0 21G<284.379 882.625 1180 1731.17> 1394 20G<32 540.487 850.914 1283.03 1597.39 1952>
VStem: 1600 352<1062 1414>
LayerCount: 2
Fore
SplineSet
1024 800 m 1,0,-1
 879 0 l 1,1,-1
 288 0 l 1,2,-1
 32 1414 l 1,3,-1
 538 1414 l 1,4,-1
 679 280 l 1,5,-1
 854 1414 l 1,6,-1
 1280 1414 l 1,7,-1
 1452 278 l 1,8,-1
 1600 1414 l 5,9,-1
 1952 1414 l 5,10,-1
 1728 0 l 1,11,-1
 1184 0 l 1,12,-1
 1024 800 l 1,0,-1
EndSplineSet
EndChar

StartChar: g
Encoding: 71 103 197
Width: 1539
Flags: W
HStem: -513 305<383.912 844.919> 62.5734 237.427<636.723 818.34> 843 279<512.5 787.5> 1068 20G<954 1368>
VStem: 88 480<373.731 769.38> 952 416<-68.1619 219 377.458 765.217 868.938 1088> 976 392<868 1087.16>
LayerCount: 2
Fore
SplineSet
952 219 m 0,0,1
 824.799987793 73 824.799987793 73 673.899993896 64.5 c 0,2,3
 639.853012821 62.5821779268 639.853012821 62.5821779268 608.549926758 62.5733739355 c 4,4,5
 501.114265753 62.5431576615 501.114265753 62.5431576615 426 85 c 0,6,7
 329 114 329 114 254 165 c 128,-1,8
 179 216 179 216 133.5 315.5 c 128,-1,9
 88 415 88 415 88 555 c 0,10,11
 88 711 88 711 129 819 c 128,-1,12
 170 927 170 927 236.5 994 c 128,-1,13
 303 1061 303 1061 386.5 1091.5 c 128,-1,14
 470 1122 470 1122 555 1122 c 0,15,16
 617 1122 617 1122 674.5 1104 c 128,-1,17
 732 1086 732 1086 786.5 1057.5 c 128,-1,18
 841 1029 841 1029 895 981 c 128,-1,19
 949 933 949 933 976 868 c 1,20,21
 976 898 976 898 974 930.5 c 128,-1,22
 972 963 972 963 970.5 987.5 c 128,-1,23
 969 1012 969 1012 965.5 1036.5 c 128,-1,24
 962 1061 962 1061 954 1088 c 1,25,-1
 1368 1088 l 1,26,-1
 1368 182 l 2,27,28
 1368 8 1368 8 1322.5 -117 c 128,-1,29
 1277 -242 1277 -242 1199 -323 c 128,-1,30
 1121 -404 1121 -404 1017.5 -458.5 c 128,-1,31
 914 -513 914 -513 798 -513 c 0,32,33
 680 -513 680 -513 568.5 -500 c 128,-1,34
 457 -487 457 -487 357 -465 c 1,35,-1
 387 -168 l 1,36,37
 445 -179 445 -179 500 -188 c 0,38,39
 547 -196 547 -196 596 -202 c 128,-1,40
 645 -208 645 -208 679 -208 c 0,41,42
 765 -208 765 -208 818.5 -181 c 128,-1,43
 872 -154 872 -154 901.5 -83.5 c 128,-1,44
 931 -13 931 -13 941.5 50.5 c 128,-1,45
 952 114 952 114 952 186 c 2,46,-1
 952 219 l 0,0,1
770 300 m 0,47,48
 821 300 821 300 856 324 c 128,-1,49
 891 348 891 348 912.5 385.5 c 128,-1,50
 934 423 934 423 943 469 c 128,-1,51
 952 515 952 515 952 559 c 0,52,53
 952 637 952 637 937.5 691 c 128,-1,54
 923 745 923 745 898 778.5 c 128,-1,55
 873 812 873 812 839.5 827.5 c 128,-1,56
 806 843 806 843 769 843 c 0,57,58
 752 843 752 843 730.5 841.5 c 128,-1,59
 709 840 709 840 686.5 831.5 c 128,-1,60
 664 823 664 823 643 805.5 c 128,-1,61
 622 788 622 788 605 756 c 128,-1,62
 588 724 588 724 578 675 c 128,-1,63
 568 626 568 626 568 555 c 0,64,65
 568 466 568 466 590 415 c 128,-1,66
 612 364 612 364 643.5 338.5 c 128,-1,67
 675 313 675 313 709.5 306.5 c 128,-1,68
 744 300 744 300 770 300 c 0,47,48
EndSplineSet
EndChar

StartChar: cedilla
Encoding: 118 184 198
Width: 900
Flags: W
HStem: -788 301<200 413.857>
VStem: 200 200<-100 0> 448 305<-450.972 -270.939>
LayerCount: 2
Fore
SplineSet
200 0 m 1,0,-1
 400 0 l 1,1,-1
 400 -100 l 1,2,3
 486 -100 486 -100 552 -129 c 128,-1,4
 618 -158 618 -158 662.5 -205.5 c 128,-1,5
 707 -253 707 -253 730 -313.5 c 128,-1,6
 753 -374 753 -374 753 -438 c 0,7,8
 753 -503 753 -503 728.5 -566 c 128,-1,9
 704 -629 704 -629 653 -678.5 c 128,-1,10
 602 -728 602 -728 524.5 -758 c 128,-1,11
 447 -788 447 -788 342 -788 c 0,12,13
 309 -788 309 -788 273.5 -784.5 c 128,-1,14
 238 -781 238 -781 200 -774 c 1,15,-1
 200 -478 l 1,16,17
 251 -487 251 -487 291 -487 c 0,18,19
 330 -487 330 -487 359.5 -476 c 128,-1,20
 389 -465 389 -465 408.5 -447.5 c 128,-1,21
 428 -430 428 -430 438 -407.5 c 128,-1,22
 448 -385 448 -385 448 -361 c 0,23,24
 448 -338 448 -338 438.5 -316 c 128,-1,25
 429 -294 429 -294 410.5 -276.5 c 128,-1,26
 392 -259 392 -259 363.5 -248.5 c 128,-1,27
 335 -238 335 -238 297 -238 c 0,28,29
 252 -238 252 -238 200 -256 c 1,30,-1
 200 0 l 1,0,-1
EndSplineSet
EndChar

StartChar: seven
Encoding: 23 55 199
Width: 1088
Flags: W
HStem: -3 21G<192 678.255> 1122.5 291<96 544>
VStem: 192 480<-3 477>
DStem2: 192 -3 672 -3 0.298492 0.954412<143.276 1179.26>
LayerCount: 2
Fore
SplineSet
1024 1122.5 m 1,0,-1
 672 -3 l 1,1,-1
 192 -3 l 1,2,-1
 544 1122.5 l 1,3,-1
 96 1122.5 l 1,4,-1
 96 1413.5 l 5,5,-1
 992 1413.5 l 5,6,-1
 1024 1122.5 l 1,0,-1
EndSplineSet
EndChar

StartChar: k
Encoding: 75 107 200
Width: 1351
Flags: W
HStem: 0 21G<160 608 880.131 1391> 1516 20G<160 608>
VStem: 160 448<0 495 626 1536> 928 443<636 1079>
LayerCount: 2
Fore
SplineSet
626 626 m 1,0,-1
 928 1079 l 1,1,-1
 1371 1079 l 1,2,-1
 1030 581 l 1,3,-1
 1391 0 l 1,4,-1
 891 0 l 1,5,-1
 622 495 l 1,6,-1
 608 495 l 1,7,-1
 608 0 l 1,8,-1
 160 0 l 1,9,-1
 160 1536 l 1,10,-1
 608 1536 l 1,11,-1
 608 626 l 1,12,-1
 626 626 l 1,0,-1
EndSplineSet
EndChar

StartChar: OE
Encoding: 193 338 201
Width: 1999
Flags: W
HStem: -38 302<707.319 998.612> 0 320<1400 1900> 0 264<741.907 997.472> 586 266<1400 1800> 1109 317<1400 1855> 1165 300<707.793 997.998> 1165 261<756.875 997.472>
VStem: 100 443<468.971 961.191> 1000 400<320 586 852 1109>
LayerCount: 2
Fore
SplineSet
1002 0 m 1,0,1
 930 -20 930 -20 865.5 -29 c 128,-1,2
 801 -38 801 -38 740 -38 c 0,3,4
 636 -38 636 -38 548 -8.5 c 128,-1,5
 460 21 460 21 389 73.5 c 128,-1,6
 318 126 318 126 264 197 c 128,-1,7
 210 268 210 268 173.5 352 c 128,-1,8
 137 436 137 436 118.5 529 c 128,-1,9
 100 622 100 622 100 717 c 256,10,11
 100 812 100 812 121 904 c 128,-1,12
 142 996 142 996 181.5 1079 c 128,-1,13
 221 1162 221 1162 278.5 1233 c 128,-1,14
 336 1304 336 1304 408.5 1355.5 c 128,-1,15
 481 1407 481 1407 568 1436 c 128,-1,16
 655 1465 655 1465 755 1465 c 0,17,18
 815 1465 815 1465 877 1455.5 c 128,-1,19
 939 1446 939 1446 1007 1426 c 1,20,-1
 1855 1426 l 1,21,-1
 1855 1109 l 1,22,-1
 1400 1109 l 1,23,-1
 1400 852 l 1,24,-1
 1800 852 l 1,25,-1
 1800 586 l 1,26,-1
 1400 586 l 1,27,-1
 1400 320 l 1,28,-1
 1900 320 l 1,29,-1
 1900 0 l 1,30,-1
 1002 0 l 1,0,1
543 715 m 0,31,32
 543 625 543 625 563.5 543.5 c 128,-1,33
 584 462 584 462 623 399.5 c 128,-1,34
 662 337 662 337 719 300.5 c 128,-1,35
 776 264 776 264 850 264 c 0,36,37
 919 264 919 264 1000 292 c 1,38,-1
 1000 1137 l 1,39,40
 919 1165 919 1165 850 1165 c 0,41,42
 776 1165 776 1165 719 1128.5 c 128,-1,43
 662 1092 662 1092 623 1030.5 c 128,-1,44
 584 969 584 969 563.5 887.5 c 128,-1,45
 543 806 543 806 543 715 c 0,31,32
EndSplineSet
EndChar

StartChar: z
Encoding: 90 122 202
Width: 1152
Flags: W
HStem: 0 271<634 996> 832 247<153 508>
LayerCount: 2
Fore
SplineSet
634 271 m 1,0,-1
 1021 271 l 1,1,2
 1009 209 1009 209 1002.5 142 c 128,-1,3
 996 75 996 75 996 0 c 1,4,-1
 128 0 l 1,5,-1
 128 271 l 1,6,-1
 508 832 l 1,7,-1
 128 832 l 1,8,-1
 153 1079 l 5,9,-1
 996 1079 l 5,10,-1
 996 826 l 1,11,-1
 634 271 l 1,0,-1
EndSplineSet
EndChar

StartChar: currency
Encoding: 99 164 203
Width: 1463
Flags: W
HStem: 298 176<453.108 719.85> 935 176<450.395 721.9>
VStem: 166 201<561.154 849.036> 805 204<559.479 849.036>
LayerCount: 2
Fore
SplineSet
588 298 m 256,0,1
 484 298 484 298 405 333 c 128,-1,2
 326 368 326 368 273 425 c 128,-1,3
 220 482 220 482 193 555 c 128,-1,4
 166 628 166 628 166 705 c 256,5,6
 166 782 166 782 192.5 855 c 128,-1,7
 219 928 219 928 272 985 c 128,-1,8
 325 1042 325 1042 404 1076.5 c 128,-1,9
 483 1111 483 1111 588 1111 c 0,10,11
 692 1111 692 1111 771 1076.5 c 128,-1,12
 850 1042 850 1042 903 985 c 128,-1,13
 956 928 956 928 982.5 855 c 128,-1,14
 1009 782 1009 782 1009 705 c 256,15,16
 1009 628 1009 628 982 555 c 128,-1,17
 955 482 955 482 902 425 c 128,-1,18
 849 368 849 368 770.5 333 c 128,-1,19
 692 298 692 298 588 298 c 256,0,1
587 474 m 0,20,21
 640 474 640 474 681 494 c 128,-1,22
 722 514 722 514 749.5 546 c 128,-1,23
 777 578 777 578 791 619.5 c 128,-1,24
 805 661 805 661 805 705 c 0,25,26
 805 748 805 748 791 789.5 c 128,-1,27
 777 831 777 831 749.5 863.5 c 128,-1,28
 722 896 722 896 681.5 915.5 c 128,-1,29
 641 935 641 935 587 935 c 256,30,31
 533 935 533 935 491.5 915.5 c 128,-1,32
 450 896 450 896 422.5 863.5 c 128,-1,33
 395 831 395 831 381 789.5 c 128,-1,34
 367 748 367 748 367 705 c 0,35,36
 367 661 367 661 381 619.5 c 128,-1,37
 395 578 395 578 423 546 c 128,-1,38
 451 514 451 514 492 494 c 128,-1,39
 533 474 533 474 587 474 c 0,20,21
EndSplineSet
EndChar

StartChar: Eth
Encoding: 142 208 204
Width: 1500
Flags: W
HStem: 0 320<551 858.452> 579 268<0 151 551 800> 1111 315<551 862.439>
VStem: 151 400<320 579 847 1111> 1000 405<472.51 968.253>
LayerCount: 2
Fore
SplineSet
151 0 m 1,0,-1
 151 579 l 1,1,-1
 0 579 l 1,2,-1
 0 847 l 1,3,-1
 151 847 l 1,4,-1
 151 1426 l 1,5,-1
 620 1426 l 2,6,7
 797 1426 797 1426 942 1381.5 c 128,-1,8
 1087 1337 1087 1337 1190 1248 c 128,-1,9
 1293 1159 1293 1159 1349 1025 c 128,-1,10
 1405 891 1405 891 1405 712 c 0,11,12
 1405 578 1405 578 1376 473 c 128,-1,13
 1347 368 1347 368 1295 289 c 128,-1,14
 1243 210 1243 210 1170.5 155 c 128,-1,15
 1098 100 1098 100 1010 65.5 c 128,-1,16
 922 31 922 31 822 15.5 c 128,-1,17
 722 0 722 0 616 0 c 2,18,-1
 151 0 l 1,0,-1
800 847 m 1,19,-1
 800 579 l 1,20,-1
 551 579 l 1,21,-1
 551 320 l 1,22,23
 553 320 553 320 564 320 c 128,-1,24
 575 320 575 320 588.5 320 c 128,-1,25
 602 320 602 320 613 319.5 c 128,-1,26
 624 319 624 319 626 319 c 0,27,28
 714 320 714 320 783.5 335.5 c 128,-1,29
 853 351 853 351 901 395.5 c 128,-1,30
 949 440 949 440 974.5 521.5 c 128,-1,31
 1000 603 1000 603 1000 736 c 0,32,33
 1000 847 1000 847 976 919.5 c 128,-1,34
 952 992 952 992 905.5 1035 c 128,-1,35
 859 1078 859 1078 791 1095 c 128,-1,36
 723 1112 723 1112 635 1112 c 1,37,38
 633 1111 633 1111 621 1111 c 128,-1,39
 609 1111 609 1111 595 1111 c 2,40,-1
 551 1111 l 1,41,-1
 551 847 l 1,42,-1
 800 847 l 1,19,-1
EndSplineSet
EndChar

StartChar: multiply
Encoding: 149 215 205
Width: 928
Flags: W
HStem: 1072 20G<250 289.897 638.103 678>
DStem2: 270 1092 57 879 0.706519 -0.707694<0.250397 275.065 576.543 850.65> 57 490 270 277 0.706519 0.707694<0 274.107 575.585 850.399>
LayerCount: 2
Fore
SplineSet
676 684 m 1,0,-1
 871 490 l 1,1,-1
 658 277 l 1,2,-1
 464 471 l 1,3,-1
 270 277 l 1,4,-1
 57 490 l 1,5,-1
 251 684 l 1,6,-1
 57 879 l 1,7,-1
 270 1092 l 1,8,-1
 464 897 l 1,9,-1
 658 1092 l 1,10,-1
 871 879 l 1,11,-1
 676 684 l 1,0,-1
EndSplineSet
EndChar

StartChar: numbersign
Encoding: 3 35 206
Width: 1024
Flags: W
HStem: 512 224<381.528 642.696> 1184 224<381.948 643.38>
VStem: 64 256<799.464 1121.18> 704 256<798.228 1121.31>
LayerCount: 2
Fore
SplineSet
147 691 m 1,0,1
 105 750 105 750 84.5 819 c 128,-1,2
 64 888 64 888 64 960 c 0,3,4
 64 1026 64 1026 82 1090 c 128,-1,5
 100 1154 100 1154 135 1210 c 1,6,-1
 32 1319 l 1,7,-1
 192 1473 l 1,8,-1
 299 1360 l 1,9,10
 344 1383 344 1383 397.5 1395.5 c 128,-1,11
 451 1408 451 1408 512 1408 c 0,12,13
 566 1408 566 1408 613 1398 c 128,-1,14
 660 1388 660 1388 702 1370 c 1,15,-1
 800 1473 l 1,16,-1
 960 1319 l 1,17,-1
 875 1230 l 1,18,19
 917 1171 917 1171 938.5 1101.5 c 128,-1,20
 960 1032 960 1032 960 960 c 0,21,22
 960 882 960 882 935 807.5 c 128,-1,23
 910 733 910 733 862 672 c 1,24,-1
 960 570 l 1,25,-1
 800 416 l 1,26,-1
 681 541 l 1,27,28
 605 512 605 512 512 512 c 0,29,30
 457 512 457 512 409.5 522 c 128,-1,31
 362 532 362 532 320 550 c 1,32,-1
 192 416 l 1,33,-1
 32 570 l 1,34,-1
 147 691 l 1,0,1
320 960 m 256,35,36
 320 913 320 913 330 872 c 128,-1,37
 340 831 340 831 363 801 c 128,-1,38
 386 771 386 771 422.5 753.5 c 128,-1,39
 459 736 459 736 512 736 c 256,40,41
 565 736 565 736 602 753.5 c 128,-1,42
 639 771 639 771 661.5 801 c 128,-1,43
 684 831 684 831 694 872 c 128,-1,44
 704 913 704 913 704 960 c 256,45,46
 704 1007 704 1007 694 1048 c 128,-1,47
 684 1089 684 1089 661.5 1119 c 128,-1,48
 639 1149 639 1149 602 1166.5 c 128,-1,49
 565 1184 565 1184 512 1184 c 256,50,51
 459 1184 459 1184 422.5 1166.5 c 128,-1,52
 386 1149 386 1149 363 1119 c 128,-1,53
 340 1089 340 1089 330 1048 c 128,-1,54
 320 1007 320 1007 320 960 c 256,35,36
EndSplineSet
EndChar

StartChar: exclam
Encoding: 1 33 207
Width: 807
Flags: W
HStem: -32 384<246.562 586.109> 1394 20G<192 640>
VStem: 160 513<46.6074 271.625> 256 320<512 714.048>
LayerCount: 2
Fore
SplineSet
192 1414 m 5,0,-1
 640 1414 l 5,1,-1
 576 512 l 1,2,-1
 256 512 l 1,3,-1
 192 1414 l 5,0,-1
416 -32 m 0,4,5
 351 -32 351 -32 302.5 -15 c 128,-1,6
 254 2 254 2 222.5 29 c 128,-1,7
 191 56 191 56 175.5 90 c 128,-1,8
 160 124 160 124 160 159 c 0,9,10
 160 195 160 195 176.5 229.5 c 128,-1,11
 193 264 193 264 225 291.5 c 128,-1,12
 257 319 257 319 305 335.5 c 128,-1,13
 353 352 353 352 416 352 c 256,14,15
 479 352 479 352 527 335.5 c 128,-1,16
 575 319 575 319 607.5 292 c 128,-1,17
 640 265 640 265 656.5 230.5 c 128,-1,18
 673 196 673 196 673 160 c 0,19,20
 673 125 673 125 657.5 90.5 c 128,-1,21
 642 56 642 56 610 29 c 128,-1,22
 578 2 578 2 530 -15 c 128,-1,23
 482 -32 482 -32 416 -32 c 0,4,5
EndSplineSet
EndChar

